<?xml version="1.0" encoding="UTF-8" standalone="no"?>
<!-- Created with Inkscape (http://www.inkscape.org/) -->

<svg
   xmlns:dc="http://purl.org/dc/elements/1.1/"
   xmlns:cc="http://creativecommons.org/ns#"
   xmlns:rdf="http://www.w3.org/1999/02/22-rdf-syntax-ns#"
   xmlns:svg="http://www.w3.org/2000/svg"
   xmlns="http://www.w3.org/2000/svg"
   xmlns:xlink="http://www.w3.org/1999/xlink"
   xmlns:sodipodi="http://sodipodi.sourceforge.net/DTD/sodipodi-0.dtd"
   xmlns:inkscape="http://www.inkscape.org/namespaces/inkscape"
   version="1.0"
   width="48"
   height="48"
   id="svg11300"
   inkscape:version="0.47 r22583"
   sodipodi:docname="preferences-desktop-keyboard.svg">
  <metadata
     id="metadata48">
    <rdf:RDF>
      <cc:Work
         rdf:about="">
        <dc:format>image/svg+xml</dc:format>
        <dc:type
           rdf:resource="http://purl.org/dc/dcmitype/StillImage" />
        <dc:title></dc:title>
      </cc:Work>
    </rdf:RDF>
  </metadata>
  <sodipodi:namedview
     pagecolor="#ffffff"
     bordercolor="#666666"
     borderopacity="1"
     objecttolerance="10"
     gridtolerance="10"
     guidetolerance="10"
     inkscape:pageopacity="0"
     inkscape:pageshadow="2"
     inkscape:window-width="640"
     inkscape:window-height="480"
     id="namedview46"
     showgrid="false"
     inkscape:zoom="5.0833333"
     inkscape:cx="24"
     inkscape:cy="31.391527"
     inkscape:window-x="363"
     inkscape:window-y="229"
     inkscape:window-maximized="0"
     inkscape:current-layer="svg11300" />
  <defs
     id="defs3">
    <inkscape:perspective
       sodipodi:type="inkscape:persp3d"
       inkscape:vp_x="0 : 24 : 1"
       inkscape:vp_y="0 : 1000 : 0"
       inkscape:vp_z="48 : 24 : 1"
       inkscape:persp3d-origin="24 : 16 : 1"
       id="perspective50" />
    <linearGradient
       id="linearGradient3042">
      <stop
         id="stop3044"
         style="stop-color:black;stop-opacity:0"
         offset="0" />
      <stop
         id="stop3050"
         style="stop-color:black;stop-opacity:1"
         offset="0.5" />
      <stop
         id="stop3046"
         style="stop-color:black;stop-opacity:0"
         offset="1" />
    </linearGradient>
    <linearGradient
       id="linearGradient3028">
      <stop
         id="stop3030"
         style="stop-color:black;stop-opacity:1"
         offset="0" />
      <stop
         id="stop3032"
         style="stop-color:black;stop-opacity:0"
         offset="1" />
    </linearGradient>
    <linearGradient
       id="linearGradient7603">
      <stop
         id="stop7605"
         style="stop-color:#b4b4b4;stop-opacity:1"
         offset="0" />
      <stop
         id="stop7607"
         style="stop-color:#8c8c8c;stop-opacity:1"
         offset="1" />
    </linearGradient>
    <linearGradient
       id="linearGradient6602">
      <stop
         id="stop6604"
         style="stop-color:white;stop-opacity:1"
         offset="0" />
      <stop
         id="stop6606"
         style="stop-color:white;stop-opacity:0"
         offset="1" />
    </linearGradient>
    <linearGradient
       id="linearGradient4574">
      <stop
         id="stop4576"
         style="stop-color:#282828;stop-opacity:1"
         offset="0" />
      <stop
         id="stop4578"
         style="stop-color:#5a5c58;stop-opacity:1"
         offset="1" />
    </linearGradient>
    <linearGradient
       id="linearGradient6544">
      <stop
         id="stop6546"
         style="stop-color:#ebebeb;stop-opacity:1"
         offset="0" />
      <stop
         id="stop6548"
         style="stop-color:#b4b4b4;stop-opacity:1"
         offset="1" />
    </linearGradient>
    <radialGradient
       cx="2.9999995"
       cy="33.214287"
       r="3"
       fx="2.9999995"
       fy="33.214287"
       id="radialGradient6334"
       xlink:href="#linearGradient3028"
       gradientUnits="userSpaceOnUse"
       gradientTransform="matrix(0,-0.750002,1.333334,0,-40.28573,35.00001)" />
    <radialGradient
       cx="2.9999995"
       cy="33.214287"
       r="3"
       fx="2.9999995"
       fy="33.214287"
       id="radialGradient6336"
       xlink:href="#linearGradient3028"
       gradientUnits="userSpaceOnUse"
       gradientTransform="matrix(0,-0.750002,1.333334,0,-88.28573,-30.49999)" />
    <linearGradient
       x1="37.03125"
       y1="35.062885"
       x2="37.03125"
       y2="29.995127"
       id="linearGradient6338"
       xlink:href="#linearGradient3042"
       gradientUnits="userSpaceOnUse"
       gradientTransform="matrix(1,0,0,0.888889,0,3.833333)" />
    <linearGradient
       x1="-104.52803"
       y1="74.240334"
       x2="-104.76312"
       y2="84.219604"
       id="linearGradient6340"
       xlink:href="#linearGradient6544"
       gradientUnits="userSpaceOnUse"
       gradientTransform="matrix(0.3759763,0,0,0.440908,59.388441,-0.1093047)" />
    <linearGradient
       x1="15.114408"
       y1="18.000002"
       x2="15.031146"
       y2="40"
       id="linearGradient6342"
       xlink:href="#linearGradient7603"
       gradientUnits="userSpaceOnUse"
       gradientTransform="matrix(0.9999991,0,0,1.0476171,2.3096606e-5,-4.8808931)" />
    <linearGradient
       x1="-72.86232"
       y1="97.8554"
       x2="-79.091995"
       y2="55.60075"
       id="linearGradient6344"
       xlink:href="#linearGradient4574"
       gradientUnits="userSpaceOnUse"
       gradientTransform="matrix(0.3365634,0,0,0.3822199,53.691071,1.494908)" />
    <linearGradient
       x1="-52.060738"
       y1="40.247692"
       x2="-52.060738"
       y2="44.313557"
       id="linearGradient6346"
       xlink:href="#linearGradient6602"
       gradientUnits="userSpaceOnUse"
       gradientTransform="matrix(0.2765083,0,0,0.2177256,55.395219,8.5554193)" />
    <linearGradient
       x1="-52.060738"
       y1="40.247692"
       x2="-52.060738"
       y2="44.313557"
       id="linearGradient6348"
       xlink:href="#linearGradient6602"
       gradientUnits="userSpaceOnUse"
       gradientTransform="matrix(0.276508,0,0,0.2177254,58.395203,8.5554333)" />
    <linearGradient
       x1="-52.060738"
       y1="40.247692"
       x2="-52.060738"
       y2="44.313557"
       id="linearGradient6350"
       xlink:href="#linearGradient6602"
       gradientUnits="userSpaceOnUse"
       gradientTransform="matrix(0.276508,0,0,0.2177254,52.395206,8.5554313)" />
    <inkscape:perspective
       id="perspective2898"
       inkscape:persp3d-origin="0.5 : 0.33333333 : 1"
       inkscape:vp_z="1 : 0.5 : 1"
       inkscape:vp_y="0 : 1000 : 0"
       inkscape:vp_x="0 : 0.5 : 1"
       sodipodi:type="inkscape:persp3d" />
    <linearGradient
       x1="33.855877"
       y1="50.274071"
       x2="34.688435"
       y2="53.004242"
       id="linearGradient4767"
       xlink:href="#linearGradient3331"
       gradientUnits="userSpaceOnUse" />
    <linearGradient
       id="linearGradient3331">
      <stop
         id="stop3333"
         style="stop-color:#d3d7cf;stop-opacity:1"
         offset="0" />
      <stop
         id="stop3335"
         style="stop-color:#d3d7cf;stop-opacity:0"
         offset="1" />
    </linearGradient>
    <linearGradient
       x1="35.905197"
       y1="48.013897"
       x2="36.81237"
       y2="51.840569"
       id="linearGradient4769"
       xlink:href="#linearGradient3355"
       gradientUnits="userSpaceOnUse" />
    <linearGradient
       id="linearGradient3355">
      <stop
         id="stop3357"
         style="stop-color:#6f716c;stop-opacity:1"
         offset="0" />
      <stop
         id="stop3359"
         style="stop-color:#888a85;stop-opacity:0"
         offset="1" />
    </linearGradient>
    <linearGradient
       x1="33.358002"
       y1="37.386215"
       x2="33.358002"
       y2="52.806263"
       id="linearGradient4771"
       xlink:href="#linearGradient3315"
       gradientUnits="userSpaceOnUse" />
    <linearGradient
       id="linearGradient3315">
      <stop
         id="stop3317"
         style="stop-color:#ffffff;stop-opacity:1"
         offset="0" />
      <stop
         id="stop3319"
         style="stop-color:#ffffff;stop-opacity:0"
         offset="1" />
    </linearGradient>
    <linearGradient
       x1="36.201752"
       y1="37.667465"
       x2="30.034962"
       y2="41.842426"
       id="linearGradient4773"
       xlink:href="#linearGradient3307"
       gradientUnits="userSpaceOnUse" />
    <linearGradient
       id="linearGradient3307">
      <stop
         id="stop3309"
         style="stop-color:#888a85;stop-opacity:1"
         offset="0" />
      <stop
         id="stop3311"
         style="stop-color:#888a85;stop-opacity:0"
         offset="1" />
    </linearGradient>
    <linearGradient
       y2="41.842426"
       x2="30.034962"
       y1="37.667465"
       x1="36.201752"
       gradientUnits="userSpaceOnUse"
       id="linearGradient2922"
       xlink:href="#linearGradient3307"
       inkscape:collect="always" />
    <inkscape:perspective
       id="perspective2932"
       inkscape:persp3d-origin="0.5 : 0.33333333 : 1"
       inkscape:vp_z="1 : 0.5 : 1"
       inkscape:vp_y="0 : 1000 : 0"
       inkscape:vp_x="0 : 0.5 : 1"
       sodipodi:type="inkscape:persp3d" />
  </defs>
  <g
     id="g6319">
    <g
       transform="matrix(1,0,0,1.1111111,0,0.1111115)"
       id="g3052"
       style="opacity:0.3;display:inline;enable-background:new">
      <rect
         width="4"
         height="4.5"
         x="0"
         y="30.5"
         id="rect3026"
         style="fill:url(#radialGradient6334);fill-opacity:1;stroke:none" />
      <rect
         width="4"
         height="4.5"
         x="-48"
         y="-35"
         transform="scale(-1,-1)"
         id="rect3036"
         style="fill:url(#radialGradient6336);fill-opacity:1;stroke:none;display:inline" />
      <rect
         width="40"
         height="4.5"
         x="4"
         y="30.5"
         id="rect3040"
         style="fill:url(#linearGradient6338);fill-opacity:1;stroke:none" />
    </g>
    <rect
       width="46.999977"
       height="21.999977"
       rx="1"
       ry="1"
       x="0.50001186"
       y="14.500011"
       id="rect6674"
       style="fill:url(#linearGradient6340);fill-opacity:1;fill-rule:nonzero;stroke:url(#linearGradient6342);stroke-width:1.00002372;stroke-linecap:butt;stroke-linejoin:miter;stroke-miterlimit:4;stroke-opacity:1;stroke-dasharray:none;stroke-dashoffset:0;marker:none;visibility:visible;display:inline;overflow:visible;enable-background:new" />
    <path
       d="m 3,16.999999 0,2 2,0 0,-2 -2,0 z m 4,0 c 0,0.666667 0,1.333333 0,2 2,0 4,0 6,0 0,-0.666667 0,-1.333333 0,-2 -2,0 -4,0 -6,0 z m 8,0 c 0,0.666667 0,1.333333 0,2 2,0 4,0 6,0 0,-0.666667 0,-1.333333 0,-2 -2,0 -4,0 -6,0 z m 8,0 c 0,0.666667 0,1.333333 0,2 1.333333,0 5.400795,0 6,0 0,-0.647344 0,-1.352656 0,-2 -0.666667,0 -4.734129,0 -6,0 z m 7,0 c 0,0.666667 0,1.333333 0,2 2,0 4,0 6,0 0,-0.666667 0,-1.333333 0,-2 -0.641711,0 -5.52445,0 -6,0 z m 0,4 0,4 6,0 0,-4 -6,0 z m -27,0 0,10 26,0 0,-10 -26,0 z m 34,0 0,10 8,0 0,-10 -8,0 z m -2.9375,6 -2.0625,0.03125 0,1.96875 -1.96875,0 -0.03125,2 6,0 0,-2 -1.9375,0 0,-2 z"
       id="rect6676"
       style="fill:url(#linearGradient6344);fill-opacity:1;fill-rule:nonzero;stroke:none;stroke-width:0.3597748;marker:none;visibility:visible;display:inline;overflow:visible;enable-background:new" />
    <path
       d="m 41.831,18.000001 c 0,0.458949 -0.372052,0.831001 -0.831001,0.831001 -0.458948,0 -0.831,-0.372052 -0.831,-0.831001 0,-0.458949 0.372052,-0.831001 0.831,-0.831001 0.458949,0 0.831001,0.372052 0.831001,0.831001 z"
       id="path6794"
       style="fill:#3ce010;fill-opacity:1;fill-rule:nonzero;stroke:#297713;stroke-width:0.33800095;stroke-linecap:butt;stroke-linejoin:miter;stroke-miterlimit:4;stroke-opacity:1;stroke-dasharray:none;stroke-dashoffset:0;marker:none;visibility:visible;display:inline;overflow:visible;enable-background:new" />
    <path
       d="m 41.562115,17.760994 c 0,0.244452 -0.251671,0.442621 -0.562122,0.442621 -0.310452,0 -0.562123,-0.198169 -0.562123,-0.442621 0,-0.244453 0.251671,-0.442622 0.562123,-0.442622 0.310451,0 0.562122,0.198169 0.562122,0.442622 z"
       id="path6796"
       style="fill:url(#linearGradient6346);fill-opacity:1;fill-rule:nonzero;stroke:none;stroke-width:0.82687408;marker:none;visibility:visible;display:inline;overflow:visible;enable-background:new" />
    <path
       d="m 44.830997,18.000001 c 0,0.458948 -0.372052,0.831 -0.831,0.831 -0.458948,0 -0.830999,-0.372052 -0.830999,-0.831 0,-0.458949 0.372051,-0.831 0.830999,-0.831 0.458948,0 0.831,0.372051 0.831,0.831 z"
       id="path6806"
       style="fill:#146400;fill-opacity:1;fill-rule:nonzero;stroke:#154708;stroke-width:0.33800057;stroke-linecap:butt;stroke-linejoin:miter;stroke-miterlimit:4;stroke-opacity:1;stroke-dasharray:none;stroke-dashoffset:0;marker:none;visibility:visible;display:inline;overflow:visible;enable-background:new" />
    <path
       d="m 44.562114,17.760999 c 0,0.244453 -0.25167,0.442621 -0.562122,0.442621 -0.310451,0 -0.562122,-0.198168 -0.562122,-0.442621 0,-0.244453 0.251671,-0.442621 0.562122,-0.442621 0.310452,0 0.562122,0.198168 0.562122,0.442621 z"
       id="path6808"
       style="fill:url(#linearGradient6348);fill-opacity:1;fill-rule:nonzero;stroke:none;stroke-width:0.82687408;marker:none;visibility:visible;display:inline;overflow:visible;enable-background:new" />
    <path
       d="m 38.831,17.999999 c 0,0.458948 -0.372052,0.831 -0.831,0.831 -0.458948,0 -0.830999,-0.372052 -0.830999,-0.831 0,-0.458949 0.372051,-0.831 0.830999,-0.831 0.458948,0 0.831,0.372051 0.831,0.831 z"
       id="path6807"
       style="fill:#146400;fill-opacity:1;fill-rule:nonzero;stroke:#154708;stroke-width:0.33800057;stroke-linecap:butt;stroke-linejoin:miter;stroke-miterlimit:4;stroke-opacity:1;stroke-dasharray:none;stroke-dashoffset:0;marker:none;visibility:visible;display:inline;overflow:visible;enable-background:new" />
    <path
       d="m 38.562117,17.760997 c 0,0.244453 -0.25167,0.442621 -0.562122,0.442621 -0.310451,0 -0.562122,-0.198168 -0.562122,-0.442621 0,-0.244453 0.251671,-0.442621 0.562122,-0.442621 0.310452,0 0.562122,0.198168 0.562122,0.442621 z"
       id="path6809"
       style="fill:url(#linearGradient6350);fill-opacity:1;fill-rule:nonzero;stroke:none;stroke-width:0.82687408;marker:none;visibility:visible;display:inline;overflow:visible;enable-background:new" />
    <path
       d="m 3,16.999999 c 0.063939,0.465154 -0.1244169,1.182604 0.087281,1.5 C 3.5030006,18.386625 4.3751189,18.729649 4.5,18.325437 4.3637844,17.932559 4.7970739,16.970175 4.2381565,16.999999 c -0.4127188,0 -0.8254377,0 -1.2381565,0 z m 4,0 c 0.063939,0.465154 -0.1244169,1.182604 0.087281,1.5 C 7.5030006,18.386625 8.3751189,18.729649 8.5,18.325437 8.3637844,17.932559 8.7970739,16.970175 8.2381565,16.999999 c -0.4127188,0 -0.8254377,0 -1.2381565,0 z m 2,0 c 0.063939,0.465154 -0.1244169,1.182604 0.087281,1.5 0.4157194,-0.113374 1.287838,0.22965 1.412719,-0.174562 -0.136216,-0.392878 0.297074,-1.355262 -0.261843,-1.325438 -0.4127195,0 -0.8254384,0 -1.2381572,0 z m 2,0 c 0.06394,0.465154 -0.124417,1.182604 0.08728,1.5 0.41572,-0.113374 1.287838,0.22965 1.412719,-0.174562 -0.136216,-0.392878 0.297074,-1.355262 -0.261843,-1.325438 -0.412719,0 -0.825438,0 -1.238157,0 z m 4,0 c 0.06394,0.465154 -0.124417,1.182604 0.08728,1.5 0.41572,-0.113374 1.287838,0.22965 1.412719,-0.174562 -0.136216,-0.392878 0.297074,-1.355262 -0.261843,-1.325438 -0.412719,0 -0.825438,0 -1.238157,0 z m 2,0 c 0.06394,0.465154 -0.124417,1.182604 0.08728,1.5 0.41572,-0.113374 1.287838,0.22965 1.412719,-0.174562 -0.136216,-0.392878 0.297074,-1.355262 -0.261843,-1.325438 -0.412719,0 -0.825438,0 -1.238157,0 z m 2,0 c 0.06394,0.465154 -0.124417,1.182604 0.08728,1.5 0.41572,-0.113374 1.287838,0.22965 1.412719,-0.174562 -0.136216,-0.392878 0.297074,-1.355262 -0.261843,-1.325438 -0.412719,0 -0.825438,0 -1.238157,0 z m 4,0 c 0.06394,0.465154 -0.124417,1.182604 0.08728,1.5 0.41572,-0.113374 1.287838,0.22965 1.412719,-0.174562 -0.136216,-0.392878 0.297074,-1.355262 -0.261843,-1.325438 -0.412719,0 -0.825438,0 -1.238157,0 z m 2,0 c 0.06394,0.465154 -0.124417,1.182604 0.08728,1.5 0.41572,-0.113374 1.287838,0.22965 1.412719,-0.174562 -0.136216,-0.392878 0.297074,-1.355262 -0.261843,-1.325438 -0.412719,0 -0.825438,0 -1.238157,0 z m 2,0 c 0.06394,0.465154 -0.124417,1.182604 0.08728,1.5 0.41572,-0.113374 1.287838,0.22965 1.412719,-0.174562 -0.136216,-0.392878 0.297074,-1.355262 -0.261843,-1.325438 -0.412719,0 -0.825438,0 -1.238157,0 z m 3,0 c 0.06394,0.465154 -0.124417,1.182604 0.08728,1.5 0.41572,-0.113374 1.287838,0.22965 1.412719,-0.174562 -0.136216,-0.392878 0.297074,-1.355262 -0.261843,-1.325438 -0.412719,0 -0.825438,0 -1.238157,0 z m 2,0 c 0.06394,0.465154 -0.124417,1.182604 0.08728,1.5 0.41572,-0.113374 1.287838,0.22965 1.412719,-0.174562 -0.136216,-0.392878 0.297074,-1.355262 -0.261843,-1.325438 -0.412719,0 -0.825438,0 -1.238157,0 z m 2,0 c 0.06394,0.465154 -0.124417,1.182604 0.08728,1.5 0.41572,-0.113374 1.287838,0.22965 1.412719,-0.174562 -0.136216,-0.392878 0.297074,-1.355262 -0.261843,-1.325438 -0.412719,0 -0.825438,0 -1.238157,0 z m -31,4 c 0.063939,0.465154 -0.1244169,1.182604 0.087281,1.5 C 3.5030006,22.386625 4.3751189,22.729649 4.5,22.325437 4.3637844,21.932559 4.7970739,20.970175 4.2381565,20.999999 c -0.4127188,0 -0.8254377,0 -1.2381565,0 z m 2,0 c 0.063939,0.465154 -0.1244169,1.182604 0.087281,1.5 C 5.5030006,22.386625 6.3751189,22.729649 6.5,22.325437 6.3637844,21.932559 6.7970739,20.970175 6.2381565,20.999999 c -0.4127188,0 -0.8254377,0 -1.2381565,0 z m 2,0 c 0.063939,0.465154 -0.1244169,1.182604 0.087281,1.5 C 7.5030006,22.386625 8.3751189,22.729649 8.5,22.325437 8.3637844,21.932559 8.7970739,20.970175 8.2381565,20.999999 c -0.4127188,0 -0.8254377,0 -1.2381565,0 z m 2,0 c 0.063939,0.465154 -0.1244169,1.182604 0.087281,1.5 0.4157194,-0.113374 1.287838,0.22965 1.412719,-0.174562 -0.136216,-0.392878 0.297074,-1.355262 -0.261843,-1.325438 -0.4127195,0 -0.8254384,0 -1.2381572,0 z m 2,0 c 0.06394,0.465154 -0.124417,1.182604 0.08728,1.5 0.41572,-0.113374 1.287838,0.22965 1.412719,-0.174562 -0.136216,-0.392878 0.297074,-1.355262 -0.261843,-1.325438 -0.412719,0 -0.825438,0 -1.238157,0 z m 2,0 c 0.06394,0.465154 -0.124417,1.182604 0.08728,1.5 0.41572,-0.113374 1.287838,0.22965 1.412719,-0.174562 -0.136216,-0.392878 0.297074,-1.355262 -0.261843,-1.325438 -0.412719,0 -0.825438,0 -1.238157,0 z m 2,0 c 0.06394,0.465154 -0.124417,1.182604 0.08728,1.5 0.41572,-0.113374 1.287838,0.22965 1.412719,-0.174562 -0.136216,-0.392878 0.297074,-1.355262 -0.261843,-1.325438 -0.412719,0 -0.825438,0 -1.238157,0 z m 2,0 c 0.06394,0.465154 -0.124417,1.182604 0.08728,1.5 0.41572,-0.113374 1.287838,0.22965 1.412719,-0.174562 -0.136216,-0.392878 0.297074,-1.355262 -0.261843,-1.325438 -0.412719,0 -0.825438,0 -1.238157,0 z m 2,0 c 0.06394,0.465154 -0.124417,1.182604 0.08728,1.5 0.41572,-0.113374 1.287838,0.22965 1.412719,-0.174562 -0.136216,-0.392878 0.297074,-1.355262 -0.261843,-1.325438 -0.412719,0 -0.825438,0 -1.238157,0 z m 2,0 c 0.06394,0.465154 -0.124417,1.182604 0.08728,1.5 0.41572,-0.113374 1.287838,0.22965 1.412719,-0.174562 -0.136216,-0.392878 0.297074,-1.355262 -0.261843,-1.325438 -0.412719,0 -0.825438,0 -1.238157,0 z m 2,0 c 0.06394,0.465154 -0.124417,1.182604 0.08728,1.5 0.41572,-0.113374 1.287838,0.22965 1.412719,-0.174562 -0.136216,-0.392878 0.297074,-1.355262 -0.261843,-1.325438 -0.412719,0 -0.825438,0 -1.238157,0 z m 2,0 c 0.06394,0.465154 -0.124417,1.182604 0.08728,1.5 1.137573,0 2.275146,0 3.412719,0 -0.06394,-0.465154 0.124417,-1.182604 -0.08728,-1.5 -1.137573,0 -2.275146,0 -3.412719,0 z m 5,0 c 0.06394,0.465154 -0.124417,1.182604 0.08728,1.5 0.41572,-0.113374 1.287838,0.22965 1.412719,-0.174562 -0.136216,-0.392878 0.297074,-1.355262 -0.261843,-1.325438 -0.412719,0 -0.825438,0 -1.238157,0 z m 2,0 c 0.06394,0.465154 -0.124417,1.182604 0.08728,1.5 0.41572,-0.113374 1.287838,0.22965 1.412719,-0.174562 -0.136216,-0.392878 0.297074,-1.355262 -0.261843,-1.325438 -0.412719,0 -0.825438,0 -1.238157,0 z m 2,0 c 0.06394,0.465154 -0.124417,1.182604 0.08728,1.5 0.41572,-0.113374 1.287838,0.22965 1.412719,-0.174562 -0.136216,-0.392878 0.297074,-1.355262 -0.261843,-1.325438 -0.412719,0 -0.825438,0 -1.238157,0 z m 3,0 c 0.06394,0.465154 -0.124417,1.182604 0.08728,1.5 0.41572,-0.113374 1.287838,0.22965 1.412719,-0.174562 -0.136216,-0.392878 0.297074,-1.355262 -0.261843,-1.325438 -0.412719,0 -0.825438,0 -1.238157,0 z m 2,0 c 0.06394,0.465154 -0.124417,1.182604 0.08728,1.5 0.41572,-0.113374 1.287838,0.22965 1.412719,-0.174562 -0.136216,-0.392878 0.297074,-1.355262 -0.261843,-1.325438 -0.412719,0 -0.825438,0 -1.238157,0 z m 2,0 c 0.06394,0.465154 -0.124417,1.182604 0.08728,1.5 0.41572,-0.113374 1.287838,0.22965 1.412719,-0.174562 -0.136216,-0.392878 0.297074,-1.355262 -0.261843,-1.325438 -0.412719,0 -0.825438,0 -1.238157,0 z m 2,0 c 0.06394,0.465154 -0.124417,1.182604 0.08728,1.5 0.41572,-0.113374 1.287838,0.22965 1.412719,-0.174562 -0.136216,-0.392878 0.297074,-1.355262 -0.261843,-1.325438 -0.412719,0 -0.825438,0 -1.238157,0 z m -40,2 c 0.063939,0.465154 -0.1244169,1.182604 0.087281,1.5 C 3.5030006,24.386625 4.3751189,24.729649 4.5,24.325437 4.3637844,23.932559 4.7970739,22.970175 4.2381565,22.999999 c -0.4127188,0 -0.8254377,0 -1.2381565,0 z m 2,0 c 0.063939,0.465154 -0.1244169,1.182604 0.087281,1.5 C 5.5030006,24.386625 6.3751189,24.729649 6.5,24.325437 6.3637844,23.932559 6.7970739,22.970175 6.2381565,22.999999 c -0.4127188,0 -0.8254377,0 -1.2381565,0 z m 2,0 c 0.063939,0.465154 -0.1244169,1.182604 0.087281,1.5 C 7.5030006,24.386625 8.3751189,24.729649 8.5,24.325437 8.3637844,23.932559 8.7970739,22.970175 8.2381565,22.999999 c -0.4127188,0 -0.8254377,0 -1.2381565,0 z m 2,0 c 0.063939,0.465154 -0.1244169,1.182604 0.087281,1.5 0.4157194,-0.113374 1.287838,0.22965 1.412719,-0.174562 -0.136216,-0.392878 0.297074,-1.355262 -0.261843,-1.325438 -0.4127195,0 -0.8254384,0 -1.2381572,0 z m 2,0 c 0.06394,0.465154 -0.124417,1.182604 0.08728,1.5 0.41572,-0.113374 1.287838,0.22965 1.412719,-0.174562 -0.136216,-0.392878 0.297074,-1.355262 -0.261843,-1.325438 -0.412719,0 -0.825438,0 -1.238157,0 z m 2,0 c 0.06394,0.465154 -0.124417,1.182604 0.08728,1.5 0.41572,-0.113374 1.287838,0.22965 1.412719,-0.174562 -0.136216,-0.392878 0.297074,-1.355262 -0.261843,-1.325438 -0.412719,0 -0.825438,0 -1.238157,0 z m 2,0 c 0.06394,0.465154 -0.124417,1.182604 0.08728,1.5 0.41572,-0.113374 1.287838,0.22965 1.412719,-0.174562 -0.136216,-0.392878 0.297074,-1.355262 -0.261843,-1.325438 -0.412719,0 -0.825438,0 -1.238157,0 z m 2,0 c 0.06394,0.465154 -0.124417,1.182604 0.08728,1.5 0.41572,-0.113374 1.287838,0.22965 1.412719,-0.174562 -0.136216,-0.392878 0.297074,-1.355262 -0.261843,-1.325438 -0.412719,0 -0.825438,0 -1.238157,0 z m 2,0 c 0.06394,0.465154 -0.124417,1.182604 0.08728,1.5 0.41572,-0.113374 1.287838,0.22965 1.412719,-0.174562 -0.136216,-0.392878 0.297074,-1.355262 -0.261843,-1.325438 -0.412719,0 -0.825438,0 -1.238157,0 z m 2,0 c 0.06394,0.465154 -0.124417,1.182604 0.08728,1.5 0.41572,-0.113374 1.287838,0.22965 1.412719,-0.174562 -0.136216,-0.392878 0.297074,-1.355262 -0.261843,-1.325438 -0.412719,0 -0.825438,0 -1.238157,0 z m 2,0 c 0.06394,0.465154 -0.124417,1.182604 0.08728,1.5 0.41572,-0.113374 1.287838,0.22965 1.412719,-0.174562 -0.136216,-0.392878 0.297074,-1.355262 -0.261843,-1.325438 -0.412719,0 -0.825438,0 -1.238157,0 z m 2,0 c 0.06394,0.465154 -0.124417,1.182604 0.08728,1.5 0.41572,-0.113374 1.287838,0.22965 1.412719,-0.174562 -0.136216,-0.392878 0.297074,-1.355262 -0.261843,-1.325438 -0.412719,0 -0.825438,0 -1.238157,0 z m 2,0 c 0.06394,0.465154 -0.124417,1.182604 0.08728,1.5 0.41572,-0.113374 1.287838,0.22965 1.412719,-0.174562 -0.136216,-0.392878 0.297074,-1.355262 -0.261843,-1.325438 -0.412719,0 -0.825438,0 -1.238157,0 z m 3,0 c 0.06394,0.465154 -0.124417,1.182604 0.08728,1.5 0.41572,-0.113374 1.287838,0.22965 1.412719,-0.174562 -0.136216,-0.392878 0.297074,-1.355262 -0.261843,-1.325438 -0.412719,0 -0.825438,0 -1.238157,0 z m 2,0 c 0.06394,0.465154 -0.124417,1.182604 0.08728,1.5 0.41572,-0.113374 1.287838,0.22965 1.412719,-0.174562 -0.136216,-0.392878 0.297074,-1.355262 -0.261843,-1.325438 -0.412719,0 -0.825438,0 -1.238157,0 z m 2,0 c 0.06394,0.465154 -0.124417,1.182604 0.08728,1.5 0.41572,-0.113374 1.287838,0.22965 1.412719,-0.174562 -0.136216,-0.392878 0.297074,-1.355262 -0.261843,-1.325438 -0.412719,0 -0.825438,0 -1.238157,0 z m 3,0 c 0.06394,0.465154 -0.124417,1.182604 0.08728,1.5 0.41572,-0.113374 1.287838,0.22965 1.412719,-0.174562 -0.136216,-0.392878 0.297074,-1.355262 -0.261843,-1.325438 -0.412719,0 -0.825438,0 -1.238157,0 z m 2,0 c 0.06394,0.465154 -0.124417,1.182604 0.08728,1.5 0.41572,-0.113374 1.287838,0.22965 1.412719,-0.174562 -0.136216,-0.392878 0.297074,-1.355262 -0.261843,-1.325438 -0.412719,0 -0.825438,0 -1.238157,0 z m 2,0 c 0.06394,0.465154 -0.124417,1.182604 0.08728,1.5 0.41572,-0.113374 1.287838,0.22965 1.412719,-0.174562 -0.136216,-0.392878 0.297074,-1.355262 -0.261843,-1.325438 -0.412719,0 -0.825438,0 -1.238157,0 z m 2,0 c 0,1.166667 0,2.333333 0,3.5 0.465154,-0.06394 1.182604,0.124417 1.5,-0.08728 0,-1.137573 0,-2.275146 0,-3.412719 -0.5,0 -1,0 -1.5,0 z m -40,2 c 0.063939,0.465154 -0.1244169,1.182604 0.087281,1.5 1.1375729,0 2.2751459,0 3.4127188,0 -0.063939,-0.465154 0.1244169,-1.182604 -0.087281,-1.5 -1.1375729,0 -2.2751459,0 -3.4127188,0 z m 4,0 c 0.063939,0.465154 -0.1244169,1.182604 0.087281,1.5 C 7.5030006,26.386625 8.3751189,26.729649 8.5,26.325437 8.3637844,25.932559 8.7970739,24.970175 8.2381565,24.999999 c -0.4127188,0 -0.8254377,0 -1.2381565,0 z m 2,0 c 0.063939,0.465154 -0.1244169,1.182604 0.087281,1.5 0.4157194,-0.113374 1.287838,0.22965 1.412719,-0.174562 -0.136216,-0.392878 0.297074,-1.355262 -0.261843,-1.325438 -0.4127195,0 -0.8254384,0 -1.2381572,0 z m 2,0 c 0.06394,0.465154 -0.124417,1.182604 0.08728,1.5 0.41572,-0.113374 1.287838,0.22965 1.412719,-0.174562 -0.136216,-0.392878 0.297074,-1.355262 -0.261843,-1.325438 -0.412719,0 -0.825438,0 -1.238157,0 z m 2,0 c 0.06394,0.465154 -0.124417,1.182604 0.08728,1.5 0.41572,-0.113374 1.287838,0.22965 1.412719,-0.174562 -0.136216,-0.392878 0.297074,-1.355262 -0.261843,-1.325438 -0.412719,0 -0.825438,0 -1.238157,0 z m 2,0 c 0.06394,0.465154 -0.124417,1.182604 0.08728,1.5 0.41572,-0.113374 1.287838,0.22965 1.412719,-0.174562 -0.136216,-0.392878 0.297074,-1.355262 -0.261843,-1.325438 -0.412719,0 -0.825438,0 -1.238157,0 z m 2,0 c 0.06394,0.465154 -0.124417,1.182604 0.08728,1.5 0.41572,-0.113374 1.287838,0.22965 1.412719,-0.174562 -0.136216,-0.392878 0.297074,-1.355262 -0.261843,-1.325438 -0.412719,0 -0.825438,0 -1.238157,0 z m 2,0 c 0.06394,0.465154 -0.124417,1.182604 0.08728,1.5 0.41572,-0.113374 1.287838,0.22965 1.412719,-0.174562 -0.136216,-0.392878 0.297074,-1.355262 -0.261843,-1.325438 -0.412719,0 -0.825438,0 -1.238157,0 z m 2,0 c 0.06394,0.465154 -0.124417,1.182604 0.08728,1.5 0.41572,-0.113374 1.287838,0.22965 1.412719,-0.174562 -0.136216,-0.392878 0.297074,-1.355262 -0.261843,-1.325438 -0.412719,0 -0.825438,0 -1.238157,0 z m 2,0 c 0.06394,0.465154 -0.124417,1.182604 0.08728,1.5 0.41572,-0.113374 1.287838,0.22965 1.412719,-0.174562 -0.136216,-0.392878 0.297074,-1.355262 -0.261843,-1.325438 -0.412719,0 -0.825438,0 -1.238157,0 z m 2,0 c 0.06394,0.465154 -0.124417,1.182604 0.08728,1.5 1.137573,0 2.275146,0 3.412719,0 -0.06394,-0.465154 0.124417,-1.182604 -0.08728,-1.5 -1.137573,0 -2.275146,0 -3.412719,0 z m 12,0 c 0.06394,0.465154 -0.124417,1.182604 0.08728,1.5 0.41572,-0.113374 1.287838,0.22965 1.412719,-0.174562 -0.136216,-0.392878 0.297074,-1.355262 -0.261843,-1.325438 -0.412719,0 -0.825438,0 -1.238157,0 z m 2,0 c 0.06394,0.465154 -0.124417,1.182604 0.08728,1.5 0.41572,-0.113374 1.287838,0.22965 1.412719,-0.174562 -0.136216,-0.392878 0.297074,-1.355262 -0.261843,-1.325438 -0.412719,0 -0.825438,0 -1.238157,0 z m 2,0 c 0.06394,0.465154 -0.124417,1.182604 0.08728,1.5 0.41572,-0.113374 1.287838,0.22965 1.412719,-0.174562 -0.136216,-0.392878 0.297074,-1.355262 -0.261843,-1.325438 -0.412719,0 -0.825438,0 -1.238157,0 z m -38,2 c 0.063939,0.465154 -0.1244169,1.182604 0.087281,1.5 C 3.5030006,28.386625 4.3751189,28.729649 4.5,28.325437 4.3637844,27.932559 4.7970739,26.970175 4.2381565,26.999999 c -0.4127188,0 -0.8254377,0 -1.2381565,0 z m 2,0 c 0.063939,0.465154 -0.1244169,1.182604 0.087281,1.5 C 5.5030006,28.386625 6.3751189,28.729649 6.5,28.325437 6.3637844,27.932559 6.7970739,26.970175 6.2381565,26.999999 c -0.4127188,0 -0.8254377,0 -1.2381565,0 z m 2,0 c 0.063939,0.465154 -0.1244169,1.182604 0.087281,1.5 C 7.5030006,28.386625 8.3751189,28.729649 8.5,28.325437 8.3637844,27.932559 8.7970739,26.970175 8.2381565,26.999999 c -0.4127188,0 -0.8254377,0 -1.2381565,0 z m 2,0 c 0.063939,0.465154 -0.1244169,1.182604 0.087281,1.5 0.4157194,-0.113374 1.287838,0.22965 1.412719,-0.174562 -0.136216,-0.392878 0.297074,-1.355262 -0.261843,-1.325438 -0.4127195,0 -0.8254384,0 -1.2381572,0 z m 2,0 c 0.06394,0.465154 -0.124417,1.182604 0.08728,1.5 0.41572,-0.113374 1.287838,0.22965 1.412719,-0.174562 -0.136216,-0.392878 0.297074,-1.355262 -0.261843,-1.325438 -0.412719,0 -0.825438,0 -1.238157,0 z m 2,0 c 0.06394,0.465154 -0.124417,1.182604 0.08728,1.5 0.41572,-0.113374 1.287838,0.22965 1.412719,-0.174562 -0.136216,-0.392878 0.297074,-1.355262 -0.261843,-1.325438 -0.412719,0 -0.825438,0 -1.238157,0 z m 2,0 c 0.06394,0.465154 -0.124417,1.182604 0.08728,1.5 0.41572,-0.113374 1.287838,0.22965 1.412719,-0.174562 -0.136216,-0.392878 0.297074,-1.355262 -0.261843,-1.325438 -0.412719,0 -0.825438,0 -1.238157,0 z m 2,0 c 0.06394,0.465154 -0.124417,1.182604 0.08728,1.5 0.41572,-0.113374 1.287838,0.22965 1.412719,-0.174562 -0.136216,-0.392878 0.297074,-1.355262 -0.261843,-1.325438 -0.412719,0 -0.825438,0 -1.238157,0 z m 2,0 c 0.06394,0.465154 -0.124417,1.182604 0.08728,1.5 0.41572,-0.113374 1.287838,0.22965 1.412719,-0.174562 -0.136216,-0.392878 0.297074,-1.355262 -0.261843,-1.325438 -0.412719,0 -0.825438,0 -1.238157,0 z m 2,0 c 0.06394,0.465154 -0.124417,1.182604 0.08728,1.5 0.41572,-0.113374 1.287838,0.22965 1.412719,-0.174562 -0.136216,-0.392878 0.297074,-1.355262 -0.261843,-1.325438 -0.412719,0 -0.825438,0 -1.238157,0 z m 2,0 c 0.06394,0.465154 -0.124417,1.182604 0.08728,1.5 0.41572,-0.113374 1.287838,0.22965 1.412719,-0.174562 -0.136216,-0.392878 0.297074,-1.355262 -0.261843,-1.325438 -0.412719,0 -0.825438,0 -1.238157,0 z m 2,0 c 0.06394,0.465154 -0.124417,1.182604 0.08728,1.5 0.41572,-0.113374 1.287838,0.22965 1.412719,-0.174562 -0.136216,-0.392878 0.297074,-1.355262 -0.261843,-1.325438 -0.412719,0 -0.825438,0 -1.238157,0 z m 2,0 c 0.06394,0.465154 -0.124417,1.182604 0.08728,1.5 0.41572,-0.113374 1.287838,0.22965 1.412719,-0.174562 -0.136216,-0.392878 0.297074,-1.355262 -0.261843,-1.325438 -0.412719,0 -0.825438,0 -1.238157,0 z m 5,0 c 0.06394,0.465154 -0.124417,1.182604 0.08728,1.5 0.41572,-0.113374 1.287838,0.22965 1.412719,-0.174562 -0.136216,-0.392878 0.297074,-1.355262 -0.261843,-1.325438 -0.412719,0 -0.825438,0 -1.238157,0 z m 5,0 c 0.06394,0.465154 -0.124417,1.182604 0.08728,1.5 0.41572,-0.113374 1.287838,0.22965 1.412719,-0.174562 -0.136216,-0.392878 0.297074,-1.355262 -0.261843,-1.325438 -0.412719,0 -0.825438,0 -1.238157,0 z m 2,0 c 0.06394,0.465154 -0.124417,1.182604 0.08728,1.5 0.41572,-0.113374 1.287838,0.22965 1.412719,-0.174562 -0.136216,-0.392878 0.297074,-1.355262 -0.261843,-1.325438 -0.412719,0 -0.825438,0 -1.238157,0 z m 2,0 c 0.06394,0.465154 -0.124417,1.182604 0.08728,1.5 0.41572,-0.113374 1.287838,0.22965 1.412719,-0.174562 -0.136216,-0.392878 0.297074,-1.355262 -0.261843,-1.325438 -0.412719,0 -0.825438,0 -1.238157,0 z m 2,0 c 0,1.166667 0,2.333333 0,3.5 0.465154,-0.06394 1.182604,0.124417 1.5,-0.08728 0,-1.137573 0,-2.275146 0,-3.412719 -0.5,0 -1,0 -1.5,0 z m -40,2 c 0.063939,0.465154 -0.1244169,1.182604 0.087281,1.5 1.1375729,0 2.2751459,0 3.4127188,0 -0.063939,-0.465154 0.1244169,-1.182604 -0.087281,-1.5 -1.1375729,0 -2.2751459,0 -3.4127188,0 z m 4,0 c 0.063939,0.465154 -0.1244169,1.182604 0.087281,1.5 C 7.5030006,30.386625 8.3751189,30.729649 8.5,30.325437 8.3637844,29.932559 8.7970739,28.970175 8.2381565,28.999999 c -0.4127188,0 -0.8254377,0 -1.2381565,0 z m 2,0 c 0.063939,0.465154 -0.1244169,1.182604 0.087281,1.5 3.80424,0 7.608479,0 11.412719,0 -0.06394,-0.465154 0.124417,-1.182604 -0.08728,-1.5 -3.80424,0 -7.608479,0 -11.4127192,0 z m 12,0 c 0.06394,0.465154 -0.124417,1.182604 0.08728,1.5 0.41572,-0.113374 1.287838,0.22965 1.412719,-0.174562 -0.136216,-0.392878 0.297074,-1.355262 -0.261843,-1.325438 -0.412719,0 -0.825438,0 -1.238157,0 z m 2,0 c 0.06394,0.465154 -0.124417,1.182604 0.08728,1.5 0.41572,-0.113374 1.287838,0.22965 1.412719,-0.174562 -0.136216,-0.392878 0.297074,-1.355262 -0.261843,-1.325438 -0.412719,0 -0.825438,0 -1.238157,0 z m 2,0 c 0.06394,0.465154 -0.124417,1.182604 0.08728,1.5 1.137573,0 2.275146,0 3.412719,0 -0.06394,-0.465154 0.124417,-1.182604 -0.08728,-1.5 -1.137573,0 -2.275146,0 -3.412719,0 z m 5,0 c 0.06394,0.465154 -0.124417,1.182604 0.08728,1.5 0.41572,-0.113374 1.287838,0.22965 1.412719,-0.174562 -0.136216,-0.392878 0.297074,-1.355262 -0.261843,-1.325438 -0.412719,0 -0.825438,0 -1.238157,0 z m 2,0 c 0.06394,0.465154 -0.124417,1.182604 0.08728,1.5 0.41572,-0.113374 1.287838,0.22965 1.412719,-0.174562 -0.136216,-0.392878 0.297074,-1.355262 -0.261843,-1.325438 -0.412719,0 -0.825438,0 -1.238157,0 z m 2,0 c 0.06394,0.465154 -0.124417,1.182604 0.08728,1.5 0.41572,-0.113374 1.287838,0.22965 1.412719,-0.174562 -0.136216,-0.392878 0.297074,-1.355262 -0.261843,-1.325438 -0.412719,0 -0.825438,0 -1.238157,0 z m 3,0 c 0.06394,0.465154 -0.124417,1.182604 0.08728,1.5 1.137573,0 2.275146,0 3.412719,0 -0.06394,-0.465154 0.124417,-1.182604 -0.08728,-1.5 -1.137573,0 -2.275146,0 -3.412719,0 z m 4,0 c 0.06394,0.465154 -0.124417,1.182604 0.08728,1.5 0.41572,-0.113374 1.287838,0.22965 1.412719,-0.174562 -0.136216,-0.392878 0.297074,-1.355262 -0.261843,-1.325438 -0.412719,0 -0.825438,0 -1.238157,0 z"
       id="rect7609"
       style="opacity:0.3;fill:white;fill-opacity:1;stroke:none" />
  </g>
  <path
     style="opacity:0.2;color:#000000;fill:#000000;fill-opacity:1;fill-rule:nonzero;stroke:#000000;stroke-width:1.00000036;stroke-linecap:round;stroke-linejoin:round;stroke-miterlimit:4;stroke-opacity:1;stroke-dasharray:none;stroke-dashoffset:1.4;marker:none;visibility:visible;display:inline;overflow:visible"
     id="path6270"
     d="m 29.944386,20.273803 c -0.64332,0.03859 -1.260006,0.159458 -1.875,0.375 l 4.46875,4.46875 -1.4375,2.84375 -2.84375,1.40625 -4.46875,-4.4375 c -0.875534,2.466042 -0.316262,5.308738 1.65625,7.28125 1.972513,1.972513 4.815204,2.500533 7.28125,1.625 l 1.65625,1.65625 8.15625,0 c 0.103462,0 0.211805,-0.02152 0.3125,-0.03125 l -5.875,-5.875 c 0.862168,-2.459979 0.309165,-5.315835 -1.65625,-7.28125 -1.474061,-1.47406 -3.445039,-2.147025 -5.375,-2.03125 z" />
  <g
     id="g3199"
     transform="translate(-60.46053,-6.6229934)">
    <path
       style="color:#000000;fill:url(#linearGradient4767);fill-opacity:1;fill-rule:nonzero;stroke:url(#linearGradient4769);stroke-width:1;stroke-linecap:round;stroke-linejoin:round;stroke-miterlimit:4;stroke-opacity:1;stroke-dasharray:none;stroke-dashoffset:1.4;marker:none;visibility:visible;display:inline;overflow:visible"
       id="path3193"
       transform="matrix(0.707107,-0.707107,0.707107,0.707107,44.01958,36.46818)"
       d="m 32.5,24.1875 c -2.36285,1.124659 -4,3.522947 -4,6.3125 0,2.789555 1.637147,5.187838 4,6.3125 l 0,18.537596 6.03125,0 0,-18.537596 C 40.880361,35.682677 42.5,33.279516 42.5,30.5 c 0,-2.779514 -1.619643,-5.18268 -3.96875,-6.3125 l 0,6.3125 -3.015625,1 -3.015625,-1 0,-6.3125 z" />
    <path
       style="opacity:0.4;color:#000000;fill:none;stroke:url(#linearGradient4771);stroke-width:1;stroke-linecap:round;stroke-linejoin:miter;stroke-miterlimit:4;stroke-opacity:1;stroke-dashoffset:1.4;marker:none;visibility:visible;display:inline;overflow:visible"
       id="path3195"
       transform="matrix(0.707107,-0.707107,0.707107,0.707107,44.01958,36.46818)"
       d="m 31.5,26.34375 c -1.140863,1.088316 -2,2.448306 -2,4.15625 0,2.400502 1.409032,4.440748 3.4375,5.40625 0.347345,0.167478 0.566561,0.520659 0.5625,0.90625 l 0,18.929712 4.03125,0 0,-18.929712 c -0.0041,-0.385591 0.215155,-0.738772 0.5625,-0.90625 C 40.107408,34.937766 41.5,32.893233 41.5,30.5 c 0,-1.697797 -0.84276,-3.066152 -1.96875,-4.15625 l 0,4.15625 c -0.0036,0.42786 -0.280514,0.805441 -0.6875,0.9375 l -3.03125,1 c -0.20292,0.06717 -0.42208,0.06717 -0.625,0 l -3,-1 C 31.780514,31.305441 31.503622,30.92786 31.5,30.5 l 0,-4.15625 z" />
    <rect
       style="opacity:0.4;color:#000000;fill:none;stroke:url(#linearGradient2922);stroke-width:0.99999976;stroke-linecap:round;stroke-linejoin:miter;stroke-miterlimit:4;stroke-opacity:1;stroke-dasharray:none;stroke-dashoffset:1.4;marker:none;visibility:visible;display:inline;overflow:visible"
       id="rect3197"
       transform="matrix(0.707107,-0.707107,0.707107,0.707107,44.01958,36.46818)"
       y="37.499985"
       x="34.500008"
       ry="1.0000045"
       rx="1.0000045"
       height="15.000015"
       width="2.0000091" />
  </g>
</svg>
