<?xml version="1.0" encoding="UTF-8" standalone="no"?>
<!-- Created with Inkscape (http://www.inkscape.org/) -->

<svg
   xmlns:dc="http://purl.org/dc/elements/1.1/"
   xmlns:cc="http://creativecommons.org/ns#"
   xmlns:rdf="http://www.w3.org/1999/02/22-rdf-syntax-ns#"
   xmlns:svg="http://www.w3.org/2000/svg"
   xmlns="http://www.w3.org/2000/svg"
   xmlns:xlink="http://www.w3.org/1999/xlink"
   xmlns:sodipodi="http://sodipodi.sourceforge.net/DTD/sodipodi-0.dtd"
   xmlns:inkscape="http://www.inkscape.org/namespaces/inkscape"
   width="1920"
   height="1440"
   id="svg2"
   version="1.1"
   inkscape:version="0.47 r22583"
   style="display:inline"
   inkscape:export-filename="/home/knome/Desktop/bluebird_bg.png"
   inkscape:export-xdpi="90"
   inkscape:export-ydpi="90"
   sodipodi:docname="balls_3.svg">
  <defs
     id="defs4">
    <linearGradient
       id="linearGradient5050">
      <stop
         id="stop5052"
         offset="0"
         style="stop-color:#03507c;stop-opacity:0.69411767;" />
      <stop
         id="stop5054"
         offset="1"
         style="stop-color:#0a73fe;stop-opacity:0;" />
    </linearGradient>
    <linearGradient
       id="linearGradient5036">
      <stop
         style="stop-color:#5da2ca;stop-opacity:0.69361702"
         offset="0"
         id="stop5038" />
      <stop
         style="stop-color:#8bcbef;stop-opacity:0;"
         offset="1"
         id="stop5040" />
    </linearGradient>
    <inkscape:perspective
       sodipodi:type="inkscape:persp3d"
       inkscape:vp_x="0 : 526.18109 : 1"
       inkscape:vp_y="0 : 1000 : 0"
       inkscape:vp_z="744.09448 : 526.18109 : 1"
       inkscape:persp3d-origin="372.04724 : 350.78739 : 1"
       id="perspective10" />
    <radialGradient
       inkscape:collect="always"
       xlink:href="#linearGradient5036"
       id="radialGradient5044"
       cx="990.6673"
       cy="750.56927"
       fx="990.6673"
       fy="750.56927"
       r="960"
       gradientTransform="matrix(0.50998877,-0.86018106,1.0541667,0.625,-6.4543232,1023.0474)"
       gradientUnits="userSpaceOnUse" />
    <radialGradient
       inkscape:collect="always"
       xlink:href="#linearGradient5050"
       id="radialGradient5048"
       gradientUnits="userSpaceOnUse"
       gradientTransform="matrix(0.38925087,0.51871102,-0.49202981,0.36922882,-265.34325,133.19543)"
       cx="605.51019"
       cy="-214.71848"
       fx="605.51019"
       fy="-214.71848"
       r="960" />
    <filter
       inkscape:collect="always"
       id="filter5078"
       x="-0.076555371"
       width="1.1531107"
       y="-0.59149009"
       height="2.1829801"
       color-interpolation-filters="sRGB">
      <feGaussianBlur
         inkscape:collect="always"
         stdDeviation="77.117702"
         id="feGaussianBlur5080" />
    </filter>
    <filter
       inkscape:collect="always"
       id="filter5092"
       x="-0.047503505"
       width="1.0950069"
       y="-0.42011601"
       height="1.840232"
       color-interpolation-filters="sRGB">
      <feGaussianBlur
         inkscape:collect="always"
         stdDeviation="55.92066"
         id="feGaussianBlur5094" />
    </filter>
    <filter
       inkscape:collect="always"
       id="filter5106"
       x="-0.027764965"
       width="1.05553"
       y="-0.26200506"
       height="1.5240101"
       color-interpolation-filters="sRGB">
      <feGaussianBlur
         inkscape:collect="always"
         stdDeviation="32.424851"
         id="feGaussianBlur5108" />
    </filter>
    <filter
       inkscape:collect="always"
       id="filter5124"
       x="-0.090184286"
       width="1.1803685"
       y="-0.37775388"
       height="1.7555078"
       color-interpolation-filters="sRGB">
      <feGaussianBlur
         inkscape:collect="always"
         stdDeviation="60.292942"
         id="feGaussianBlur5126" />
    </filter>
    <filter
       inkscape:collect="always"
       id="filter5152"
       x="-0.11115131"
       width="1.2223026"
       y="-0.48354268"
       height="1.9670852"
       color-interpolation-filters="sRGB">
      <feGaussianBlur
         inkscape:collect="always"
         stdDeviation="55.935155"
         id="feGaussianBlur5154" />
    </filter>
    <filter
       inkscape:collect="always"
       id="filter5178"
       x="-0.1109937"
       width="1.2219874"
       y="-0.42168611"
       height="1.8433722"
       color-interpolation-filters="sRGB">
      <feGaussianBlur
         inkscape:collect="always"
         stdDeviation="46.93619"
         id="feGaussianBlur5180" />
    </filter>
    <filter
       inkscape:collect="always"
       id="filter5188"
       x="-0.098860897"
       width="1.1977218"
       y="-0.3657324"
       height="1.7314647"
       color-interpolation-filters="sRGB">
      <feGaussianBlur
         inkscape:collect="always"
         stdDeviation="88.260253"
         id="feGaussianBlur5190" />
    </filter>
    <filter
       inkscape:collect="always"
       id="filter5198"
       x="-0.059751354"
       width="1.1195027"
       y="-0.44798219"
       height="1.8959644"
       color-interpolation-filters="sRGB">
      <feGaussianBlur
         inkscape:collect="always"
         stdDeviation="58.918197"
         id="feGaussianBlur5200" />
    </filter>
    <filter
       inkscape:collect="always"
       id="filter5228"
       x="-0.17443816"
       width="1.3488764"
       y="-0.51878899"
       height="2.0375781"
       color-interpolation-filters="sRGB">
      <feGaussianBlur
         inkscape:collect="always"
         stdDeviation="107.43441"
         id="feGaussianBlur5230" />
    </filter>
    <filter
       inkscape:collect="always"
       id="filter5250"
       x="-0.1725926"
       width="1.3451852"
       y="-0.75809044"
       height="2.516181"
       color-interpolation-filters="sRGB">
      <feGaussianBlur
         inkscape:collect="always"
         stdDeviation="99.623817"
         id="feGaussianBlur5252" />
    </filter>
    <filter
       inkscape:collect="always"
       id="filter5318"
       x="-0.30627614"
       width="1.6125523"
       y="-0.30627614"
       height="1.6125523"
       color-interpolation-filters="sRGB">
      <feGaussianBlur
         inkscape:collect="always"
         stdDeviation="15.824268"
         id="feGaussianBlur5320" />
    </filter>
    <filter
       inkscape:collect="always"
       id="filter5433"
       x="-0.04606944"
       width="1.0921389"
       y="-0.3135317"
       height="1.6270634"
       color-interpolation-filters="sRGB">
      <feGaussianBlur
         inkscape:collect="always"
         stdDeviation="64.995257"
         id="feGaussianBlur5435" />
    </filter>
    <filter
       inkscape:collect="always"
       id="filter5443"
       x="-0.11369096"
       width="1.2273819"
       y="-0.18414795"
       height="1.3682959"
       color-interpolation-filters="sRGB">
      <feGaussianBlur
         inkscape:collect="always"
         stdDeviation="76.566643"
         id="feGaussianBlur5445" />
    </filter>
    <filter
       inkscape:collect="always"
       id="filter5465"
       x="-0.24730714"
       width="1.4946142"
       y="-0.3540749"
       height="1.7081498"
       color-interpolation-filters="sRGB">
      <feGaussianBlur
         inkscape:collect="always"
         stdDeviation="114.69725"
         id="feGaussianBlur5467" />
    </filter>
    <filter
       inkscape:collect="always"
       id="filter3936"
       x="-0.1780552"
       width="1.3561105"
       y="-1.0586371"
       height="3.1172743"
       color-interpolation-filters="sRGB">
      <feGaussianBlur
         inkscape:collect="always"
         stdDeviation="144.82838"
         id="feGaussianBlur3938" />
    </filter>
    <filter
       inkscape:collect="always"
       id="filter3946"
       x="-0.2070024"
       width="1.4140048"
       y="-0.45981497"
       height="1.9196299"
       color-interpolation-filters="sRGB">
      <feGaussianBlur
         inkscape:collect="always"
         stdDeviation="148.40191"
         id="feGaussianBlur3948" />
    </filter>
    <clipPath
       clipPathUnits="userSpaceOnUse"
       id="clipPath3968">
      <rect
         y="-120"
         x="0"
         height="1440"
         width="1920"
         id="rect3970"
         style="opacity:0.5;fill:#f2f2f2;fill-opacity:1;stroke:none" />
    </clipPath>
    <clipPath
       clipPathUnits="userSpaceOnUse"
       id="clipPath3972">
      <rect
         style="opacity:0.5;fill:#f2f2f2;fill-opacity:1;stroke:none"
         id="rect3974"
         width="1920"
         height="1440"
         x="0"
         y="-120" />
    </clipPath>
    <filter
       inkscape:collect="always"
       id="filter3984"
       x="-0.31584325"
       width="1.6316864"
       y="-0.35041329"
       height="1.7008266"
       color-interpolation-filters="sRGB">
      <feGaussianBlur
         inkscape:collect="always"
         stdDeviation="155.77285"
         id="feGaussianBlur3986" />
    </filter>
    <filter
       inkscape:collect="always"
       id="filter4010"
       x="-0.22414216"
       width="1.4482843"
       y="-0.44674069"
       height="1.8934814"
       color-interpolation-filters="sRGB">
      <feGaussianBlur
         inkscape:collect="always"
         stdDeviation="111.76624"
         id="feGaussianBlur4012" />
    </filter>
    <clipPath
       clipPathUnits="userSpaceOnUse"
       id="clipPath4016">
      <rect
         style="opacity:0.5;fill:#f2f2f2;fill-opacity:1;stroke:none"
         id="rect4018"
         width="1920"
         height="1440"
         x="-225.33316"
         y="-54.03801"
         transform="matrix(0.95289912,-0.30328742,0.30328742,0.95289912,0,0)" />
    </clipPath>
    <clipPath
       clipPathUnits="userSpaceOnUse"
       id="clipPath4056">
      <rect
         y="-120"
         x="0"
         height="1440"
         width="1920"
         id="rect4058"
         style="opacity:0.5;fill:#f2f2f2;fill-opacity:1;stroke:none" />
    </clipPath>
    <clipPath
       clipPathUnits="userSpaceOnUse"
       id="clipPath4067">
      <rect
         y="-267.63782"
         x="0"
         height="1440"
         width="1920"
         id="rect4069"
         style="opacity:0.33617021;fill:#296ab7;fill-opacity:1;stroke:none;display:inline" />
    </clipPath>
    <clipPath
       clipPathUnits="userSpaceOnUse"
       id="clipPath4072">
      <rect
         y="-120"
         x="0"
         height="1440"
         width="1920"
         id="rect4074"
         style="opacity:0.17872338;fill:#005bd5;fill-opacity:1;stroke:none" />
    </clipPath>
  </defs>
  <sodipodi:namedview
     id="base"
     pagecolor="#ffffff"
     bordercolor="#666666"
     borderopacity="1.0"
     inkscape:pageopacity="0.0"
     inkscape:pageshadow="2"
     inkscape:zoom="0.25"
     inkscape:cx="2195.5996"
     inkscape:cy="352.47421"
     inkscape:document-units="px"
     inkscape:current-layer="layer8"
     showgrid="false"
     inkscape:window-width="1920"
     inkscape:window-height="1132"
     inkscape:window-x="1920"
     inkscape:window-y="22"
     inkscape:window-maximized="1"
     showguides="true"
     inkscape:guide-bbox="true" />
  <metadata
     id="metadata7">
    <rdf:RDF>
      <cc:Work
         rdf:about="">
        <dc:format>image/svg+xml</dc:format>
        <dc:type
           rdf:resource="http://purl.org/dc/dcmitype/StillImage" />
        <dc:title></dc:title>
      </cc:Work>
    </rdf:RDF>
  </metadata>
  <g
     inkscape:groupmode="layer"
     id="layer8"
     inkscape:label="bgbgbgbg"
     transform="translate(0,120)">
    <rect
       style="opacity:1;fill:#ffffff;fill-opacity:1;stroke:none;display:inline"
       id="rect3116"
       width="1920"
       height="1440"
       x="0"
       y="-120" />
  </g>
  <g
     inkscape:label="Layer 1"
     inkscape:groupmode="layer"
     id="layer1"
     transform="translate(0,267.63782)"
     style="display:inline"
     sodipodi:insensitive="true" />
  <g
     inkscape:groupmode="layer"
     id="layer3"
     inkscape:label="sky"
     style="display:inline"
     transform="translate(0,120)"
     sodipodi:insensitive="true">
    <rect
       style="fill:url(#radialGradient5044);fill-opacity:1;stroke:none"
       id="rect2816"
       width="1920"
       height="1440"
       x="0"
       y="-120" />
    <rect
       y="-120"
       x="0"
       height="1440"
       width="1920"
       id="rect5046"
       style="opacity:0.35319148;fill:url(#radialGradient5048);fill-opacity:1;stroke:none" />
  </g>
  <g
     inkscape:groupmode="layer"
     id="layer2"
     inkscape:label="clouds"
     style="display:inline"
     transform="translate(0,120)"
     sodipodi:insensitive="true">
    <g
       style="display:inline"
       transform="translate(0,147.63782)"
       id="g5258"
       clip-path="url(#clipPath4067)">
      <path
         transform="translate(0,-147.63782)"
         d="m -167.75886,570.80934 c 2.94316,-7.19014 1.25607,-23.30362 8.82947,-21.57043 8.59233,1.96637 0.50612,20.09064 7.595,25.3292 5.13503,3.7947 11.76453,-7.39408 18.06622,-6.36601 9.1823,1.49801 15.25757,14.07469 24.53021,13.31525 14.13841,-1.15795 25.177221,-23.74675 38.342877,-18.46463 20.001604,8.02475 27.16577,33.46437 40.748654,50.19655 22.1606294,-20.16778 37.1647572,-54.31151 66.481888,-60.50334 24.202126,-5.11154 42.67486,26.81469 66.781801,32.3578 27.30368,6.27818 56.01018,1.57776 84.01662,2.31659 32.40283,0.85481 64.79987,2.03109 97.21107,2.46433 36.55698,0.48866 73.14254,-0.98041 109.68032,0.30117 39.82844,1.397 79.53907,5.15382 119.3086,7.73073 185.18661,62.03728 62.12186,40.11121 262.15894,26.15306 47.05376,-3.2833 95.33248,5.7572 141.44288,-4.17596 52.5156,-11.31298 96.39711,-58.85491 150.11701,-58.63224 343.6879,1.42461 -62.3088,190.69252 316.7147,-44.456 102.8148,27.76704 171.4637,54.50793 278.6507,52.91323 41.2257,-0.61335 81.1788,-16.77635 122.3949,-17.85771 34.0928,-0.89448 67.681,15.43806 101.6099,11.9806 188.3356,-19.19201 -0.6707,-51.12642 147.5431,-16.88523 16.8464,-9.58392 31.6533,-33.10847 50.539,-28.75175 17.9243,4.13493 16.0072,33.86409 28.8233,47.05974 18.7575,19.31296 28.3251,1.66872 47.1493,1.39695 20.3365,-0.29362 24.6603,8.4421 37.9913,20.79229 7.3399,-11.75074 14.6798,-23.50148 22.0197,-35.25222 12.4899,2.27406 -19.6702,178.90754 -32.1601,176.63347 l 0,0 c -2.908,-10.79045 -5.8161,-21.58091 -8.7241,-32.37136 -9.5228,20.98702 -9.8073,67.07814 -41.8561,54.63473 -7.4948,-2.90996 -13.8063,-18.71622 -19.9596,-13.54159 -16.7528,14.0884 -12.6996,47.11737 -32.0757,57.30101 -24.0295,12.62935 -51.5608,-98.57477 -81.4121,2.08036 -19.6942,-11.191 -37.905,-25.53489 -59.0826,-33.573 -54.4832,-20.67954 -127.9621,-30.13027 -183.927,-9.73242 -46.7934,17.05503 -79.8022,83.33361 -128.9757,75.43022 -390.7629,-62.80523 155.6717,-228.29142 -279.0088,-52.91249 -344.2315,-140.92314 60.8213,-21.47303 -317.3299,39.20458 -48.21918,7.73719 -88.85301,-44.78411 -137.26318,-51.21942 -235.7803,-31.34304 -50.42754,53.97325 -282.84181,44.13482 -43.49381,-1.84115 -82.5957,-27.53827 -123.89355,-41.3074 -227.26356,-77.16294 -3.49163,-28.42152 -230.55056,4.32977 -31.92223,4.6045 -64.19302,-19.0849 -95.87467,-13.04308 -33.61565,6.41065 -56.25941,47.02479 -90.445737,48.57514 -25.855535,1.17255 -43.751482,-27.66482 -65.6272227,-41.49723 -20.3549743,5.87456 -40.7099483,11.74911 -61.0649223,17.62366 -106.817038,-83.55352 16.862465,-8.61581 -82.115318,-7.79619 -11.3809,0.0942 -11.78339,-23.44854 -23.02758,-25.20982 -8.88381,-1.39155 -11.66697,14.30428 -19.60316,18.53219 -3.16956,1.68855 -8.43294,0.44528 -10.47815,-2.50674 -3.51582,-5.07466 -2.5433,-12.0824 -3.81494,-18.1236 -12.51845,-1.58145 9.8466,-178.61903 22.36504,-177.03758 z"
         id="path5068"
         style="opacity:0.35319148;fill:#3771c8;fill-opacity:1;stroke:none;filter:url(#filter5078)" />
      <path
         transform="translate(0,-147.63782)"
         d="m -430.15786,414.89277 c 48.35445,24.73071 -16.53489,-1.64428 42.08573,-6.44458 11.84861,-0.97026 22.55206,14.87837 33.85875,11.20551 19.40917,-6.30487 29.01516,-44.98762 48.1295,-37.83856 174.39931,65.22804 -68.826,106.62255 121.09334,55.59511 27.88828,-8.73868 55.77657,-17.47737 83.66486,-26.21605 30.663567,5.32593 61.640646,22.86939 91.9906936,15.97779 41.4682424,-9.41622 69.2269594,-56.72557 111.4018664,-62.16227 39.10357,-5.04079 74.67592,26.50548 113.53643,33.16579 118.53319,20.31544 144.48177,4.63144 263.88186,-16.38837 146.65695,-48.89271 143.12785,-67.78842 297.84548,-41.52496 51.58184,8.75607 99.05705,36.19524 150.91337,43.14338 52.10821,6.98189 105.20188,-4.39125 157.71148,-1.79127 52.7552,2.61214 105.952,28.91396 157.5014,17.39885 62.0608,-13.86317 112.0884,-60.09272 168.1325,-90.13907 48.5462,33.14546 87.038,94.8189 145.6386,99.4364 58.5878,4.61649 101.3407,-66.1097 159.3707,-75.40285 47.7685,-7.64983 94.281,29.62983 142.5891,27.04584 49.4833,-2.64685 93.0309,-39.72827 142.5183,-42.29617 45.2489,-2.34797 87.9622,23.17543 133.0145,27.99875 42.1761,4.51539 84.8341,-0.0897 127.2512,-0.1346 39.4304,-4.66092 78.8608,-9.32185 118.2913,-13.98277 12.8643,1.48111 -8.0819,183.41014 -20.9462,181.92902 l 0,0 c -37.4941,-11.71099 -74.9882,-23.42198 -112.4823,-35.13297 -257.0668,63.17278 -2.3681,5.87704 -269.2088,49.71326 -47.0627,7.73139 -92.8901,22.76258 -140.2709,28.21498 -48.1543,5.54141 -97.0963,-0.0287 -145.3418,4.65222 -51.5159,4.99819 -101.6045,23.49773 -153.3556,24.3281 -51.6276,0.8284 -102.4552,-12.93432 -153.6827,-19.40149 -52.5098,-1.35706 -105.0369,-2.15744 -157.5293,-4.07119 -52.6134,-1.91817 -105.1237,-7.82329 -157.7705,-7.42392 -52.8826,0.40116 -105.47797,11.04119 -158.34802,9.82195 -7.45352,-0.17188 -291.59698,-33.8691 -302.13481,-31.0306 -57.83503,15.5786 -101.60112,63.46295 -152.40168,95.19442 -44.47026,-9.19202 -90.59612,-12.44324 -133.41078,-27.57607 -42.72656,-15.10169 -76.06046,-55.33992 -120.84133,-62.28925 -29.51227,-4.57987 -195.5246049,49.2345 -227.121341,53.27418 -30.81011,3.93911 -62.105002,-1.47129 -93.150509,-2.44886 -26.88052,-0.84642 -53.7499,-2.01535 -80.62485,-3.02302 -26.18197,0.1659 -97.46704,-2.33656 -125.30294,8.30512 -17.79141,6.80167 -28.58807,28.47784 -47.29345,32.07028 -12.1382,2.33119 -38.49227,-28.37927 -51.97902,-29.66404 -4.25138,-0.40499 -5.64301,6.41166 -8.46452,9.61749 -13.55563,-0.0877 -12.31524,-191.79322 1.24039,-191.70551 z"
         id="path5082"
         style="opacity:0.35319148;fill:#eef4fb;fill-opacity:1;stroke:none;filter:url(#filter5092)" />
      <path
         transform="translate(0,-147.63782)"
         d="m -211.84763,258.1859 c 3.61361,-0.97956 7.22721,-1.95912 10.84081,-2.93867 4.97656,6.32774 6.87971,18.91512 14.92967,18.98323 10.87649,0.092 15.92499,-19.15164 26.78936,-18.63028 14.1815,0.68054 52.38949,50.36699 69.18943,41.50028 27.700691,-14.61995 39.954388,-48.24864 59.931583,-72.37296 18.324414,16.31799 30.59322406,46.18349 54.973243,48.95396 27.446647,3.11894 48.119558,-30.60306 75.517354,-34.12544 26.79358,-3.44471 52.85219,12.21163 79.79612,14.15763 17.92803,1.29483 180.4341,-4.59933 193.0568,-6.31688 38.27316,-5.20774 75.4759,-16.46845 113.21385,-24.70268 257.8735,115.23355 -42.85158,9.26014 240.67396,14.39366 43.52986,0.78816 81.13498,34.4186 124.29744,40.11703 44.22423,5.83861 89.12453,-4.03815 133.6868,-6.05722 47.13411,-16.7886 91.50491,-54.06939 141.40241,-50.36579 48.1293,3.57235 84.3975,46.83847 126.5962,70.25771 47.4995,-20.74915 90.7053,-60.20067 142.4985,-62.24747 45.4342,-1.79549 81.6818,42.67668 126.2619,51.62643 42.0377,8.43934 85.781,1.11905 128.6286,-0.45547 139.7453,-5.13525 106.5557,-8.62943 242.5631,-27.61067 36.4011,-5.08014 72.9928,-8.68556 109.4891,-13.02834 78.544,45.0545 97.8208,82.25879 189.7693,41.57105 32.6934,-14.467 50.0203,-73.81512 84.8237,-65.63759 35.1178,8.25138 16.3656,79.93331 48.2038,96.89416 19.9236,10.61369 33.9875,-29.75821 51.8077,-43.61608 12.5665,-9.77235 26.1701,-18.13259 39.2551,-27.19889 10.654,0.22797 22.7009,-4.5878 31.9621,0.6839 42.679,24.29404 6.4868,37.18097 50.1625,57.63191 8.1492,3.81579 20.0658,4.30243 26.9538,-1.48751 14.0803,-11.83554 19.9676,-30.89709 29.9514,-46.34564 14.5894,1.84627 -11.5208,208.17198 -26.1102,206.32571 l 0,0 c -40.7012,-91.81307 7.6744,-15.29796 -51.3654,4.10162 -11.7458,3.85952 -13.0989,-30.99428 -24.9439,-27.45086 -110.1385,32.94774 22.3675,62.57854 -65.5168,35.96614 -41.113,-8.33738 -36.6904,-12.43459 -82.5295,3.84093 -41.056,14.57726 -90.4839,58.10192 -139.2097,19.29397 -35.7748,-28.49304 -33.2619,-103.71519 -78.0813,-112.82072 -43.8297,-8.90447 -74.5041,49.50217 -111.7561,74.25326 -400.6978,78.34467 250.2387,-15.34183 -211.3845,-101.0073 -50.621,-9.39396 -83.0691,65.13084 -132.586,79.23096 -41.0314,11.68385 -85.5131,-0.10948 -127.8874,-5.06011 -517.73878,-60.48793 264.929,5.90756 -263.4055,-35.50725 -270.1006,120.63444 -21.9056,52.50342 -271.93775,7.86132 -225.09566,-40.18979 -54.26889,53.44977 -275.95968,108.23044 -78.47628,19.3918 -154.59609,-84.57107 -234.85625,-60.44556 -37.10122,3.19398 -74.30241,5.38549 -111.30365,9.58193 -34.42558,3.90433 -68.24677,14.90034 -102.89252,14.71083 -113.99544,-0.62353 -60.76276,-31.16935 -170.027732,-22.01868 -25.274872,2.1167 -48.369366,21.4642 -73.630521,19.18964 -21.608285,-1.94565 -38.163103,-20.64925 -57.244655,-30.97388 -29.516302,13.6839 -62.137312,33.77216 -96.652922,33.88332 -10.97003,0.0353 -20.83503,-9.65016 -31.75785,-8.63279 -9.86675,0.91901 -18.16849,19.82467 -26.20844,14.03187 -11.71785,-8.44274 1.8209,-37.66209 -12.07096,-41.61227 -11.87914,-3.37786 -9.84167,22.65474 -14.76251,33.98211 -15.03224,-1.89901 11.82387,-214.48702 26.85611,-212.588 z"
         id="path5096"
         style="opacity:0.35319148;fill:#b7d0ee;fill-opacity:1;stroke:none;filter:url(#filter5106)" />
      <path
         transform="translate(0,-147.63782)"
         d="m -186.6506,99.377275 c 1.70293,5.645015 -0.11719,19.665485 5.10878,16.935035 9.64301,-5.03828 6.81618,-23.126074 16.44293,-28.195364 6.20562,-3.267777 11.87935,7.94299 18.66734,9.706864 65.152158,16.92992 -12.9653,-13.284165 68.239077,-9.548604 15.663622,0.720558 29.487796,10.674407 44.231694,16.011614 44.148432,7.54028 75.714501,-39.227724 116.844254,-39.675346 23.757475,-0.258556 43.320855,27.486844 66.902005,24.586203 29.65202,-3.6474 49.35861,-38.052478 78.8981,-42.520603 C 500.59848,5.5473983 96.680635,155.48208 403.26192,25.653033 649.243,17.318462 343.2286,17.197719 596.30416,52.867749 c 33.95609,4.785981 68.64541,-4.592024 102.85207,-2.178392 34.59997,2.441384 71.30145,31.397 102.71192,16.683048 205.55835,-96.291973 21.84259,-186.051625 206.55575,-46.802707 61.4262,-18.9635025 136.1455,-52.331338 204.0686,-35.168227 31.9498,8.0732434 53.3474,55.947099 85.6421,49.387998 39.5394,-8.030494 57.8384,-56.268383 86.7575,-84.402575 20.2968,1.953029 -7.3232,288.992886 -27.62,287.039856 l 0,0 c -25.6356,-3.14666 -52.983,0.29331 -76.9069,-9.43997 -31.2544,-12.71566 -50.6954,-59.73818 -84.2432,-56.12304 -345.77168,37.26071 107.6619,135.747 -204.33539,48.59608 -33.30959,0.51651 -66.96098,-3.238 -99.92876,1.54953 -35.77347,5.19496 -68.66437,30.71205 -104.72357,28.16976 -140.38973,-9.89794 -57.26943,-99.35406 -204.14955,-13.26712 -40.87946,23.9596 -59.73018,85.86069 -106.35285,94.31757 -35.51585,6.44222 -60.75093,-38.99788 -91.1264,-58.49682 -28.81482,-14.09846 -54.38636,-43.4524 -86.44445,-42.29538 -63.84077,2.30412 -90.43584,89.48411 -164.23213,62.94513 -28.70047,-10.3214 -35.90453,-53.58885 -64.046936,-65.34698 -53.108307,-22.18909 -98.875974,52.40023 -120.907135,76.29308 -13.16394,-27.0353 -12.240383,-68.39543 -39.491818,-81.1059 -18.143271,-8.46229 -24.680891,32.66226 -41.671701,43.25003 -45.96174,28.64094 -21.45574,-12.75022 -53.99168,-18.60285 -4.58386,-0.82455 -20.69299,23.30489 -23.58909,27.38786 -12.43663,-1.57111 9.78224,-177.451567 22.21886,-175.880455 z"
         id="path5110"
         style="opacity:0.35319148;fill:#659bdb;fill-opacity:1;stroke:none;filter:url(#filter5124)" />
      <path
         transform="translate(0,-147.63782)"
         d="m 2058.1642,781.0383 c -41.0395,-0.76402 54.3671,-2.06125 -33.0153,34.92891 -8.5771,3.63081 -13.6004,-15.30643 -22.8862,-16.03018 -12.4139,-0.96756 -23.3653,8.9036 -35.5484,11.47571 -59.24,12.50694 -40.4226,8.86952 -90.2946,-34.71128 -59.2104,-30.98952 -80.6601,55.26901 -126.8108,55.57766 -25.3239,0.16937 -34.5317,-42.32616 -59.3321,-47.45183 -24.1318,-4.98749 -46.5894,17.31495 -71.0231,20.51036 -72.2968,9.45491 -76.4826,-4.86179 -140.4813,-36.77351 -77.7444,0.0928 -73.3455,-0.42339 -151.2104,1.72158 -24.9976,0.68861 -50.3018,-1.52699 -74.9789,2.52189 -25.4876,4.18184 -48.8961,17.33344 -74.3046,21.97165 -23.199,4.23489 -47.1457,2.07478 -70.605,4.48102 -22.395,2.29706 -44.5661,6.41183 -66.8492,9.61774 -160.36027,63.31308 30.3969,6.22426 -114.54737,-4.41218 -16.43063,-1.20573 -29.63028,14.41263 -44.44541,21.61894 -12.23755,-0.32586 -7.62918,-173.39099 4.60838,-173.06512 l 0,0 c 15.73667,-20.81538 21.48995,-58.04158 47.21003,-62.44614 42.8995,-7.34653 56.10785,98.16393 115.26077,61.35149 181.8202,-52.65319 -45.848,4.92154 139.6625,-15.35526 26.0003,-2.8419 51.0531,-11.86754 75.7318,-20.53078 26.888,-9.43879 50.3891,-37.72663 78.5916,-33.64308 30.0346,4.34883 41.8498,56.159 72.1899,55.47535 33.793,-0.76144 55.0011,-39.30731 82.5016,-58.96097 130.0503,118.14273 3.7797,35.54874 143.0319,52.42916 23.7681,2.88122 44.3313,36.26789 66.4833,27.1842 35.8602,-14.7049 39.7662,-79.1547 77.847,-86.36858 190.5063,-36.08878 -104.6855,230.96097 122.1565,-11.51548 41.9701,23.57805 44.9323,31.92961 90.7265,35.35975 10.1914,0.76337 22.0964,-8.49322 30.5379,-2.73224 11.6909,7.97863 6.9913,42.45948 20.1924,37.35372 18.6656,-7.21927 6.5955,-46.20627 24.7075,-54.71963 12.3162,-5.78907 3.8006,26.95099 5.7009,40.42648 11.6468,1.47134 -9.161,166.18198 -20.8078,164.71065 z"
         id="path5134"
         style="opacity:0.35319148;fill:#cbddf3;fill-opacity:1;stroke:none;filter:url(#filter5152)" />
      <path
         transform="translate(0,-147.63782)"
         d="m 2107.5975,819.69801 c -15.701,-58.69241 3.3712,-1.94679 -13.3446,9.26399 -7.0185,4.70709 -11.3079,-19.20863 -19.2943,-16.44596 -12.4011,4.28975 -11.3413,35.46345 -23.8033,31.35425 -144.1401,-47.52849 50.8448,-61.61775 -72.1651,-45.44865 -16.3878,23.60018 -20.4431,69.97962 -49.1634,70.80054 -27.8716,0.79667 -23.6269,-55.82679 -48.7107,-68.00296 -47.0961,-22.86126 -102.3715,67.55341 -128.2462,70.72044 -25.0451,3.0655 -43.2435,-26.01211 -64.8652,-39.01817 -25.2855,11.36764 -50.571,22.73527 -75.8565,34.1029 -187.8429,-99.44109 54.7241,4.42242 -150.5825,2.6062 -27.0068,-0.23891 -42.7122,-39.96338 -69.6851,-41.33765 -29.4231,-1.49911 -52.2983,34.72884 -81.7388,33.6226 -209.7811,-7.88264 66.8813,-91.89703 -144.4462,-11.31545 -20.6706,0.19791 -41.3413,0.39581 -62.0119,0.59371 -14.9107,-1.86659 11.4868,-212.73516 26.3975,-210.86857 l 0,0 c 20.2817,2.46101 40.5634,4.92203 60.8451,7.38305 166.7332,-7.35248 -29.3436,-1.71462 144.819,3.22556 25.7926,0.73161 51.6857,-4.34749 77.3827,-2.01161 34.3798,3.12515 109.8374,30.43233 145.6499,24.53976 27.7498,-4.56594 51.5417,-22.51779 77.3126,-33.77669 134.8534,79.63423 -2.1551,27.34677 140.6605,-24.07129 19.8255,-7.13778 40.3035,14.75731 61.3711,15.15142 19.2807,0.36069 37.1187,-13.78717 56.3846,-12.94856 104.717,4.55815 -7.1013,40.12185 88.8035,0.11386 11.1948,14.57246 15.4351,40.84043 33.5846,43.71738 13.9284,2.20784 14.3043,-24.73632 24.4648,-34.51574 7.0021,-6.73942 24.637,-7.00158 33.1489,-11.81607 4.5811,-2.59115 6.7161,-10.30964 11.9792,-10.28616 4.6334,0.0207 6.1628,6.92058 9.2442,10.38087 14.4452,-0.83903 26.3109,203.44797 11.8656,204.287 z"
         id="path5156"
         style="opacity:0.33617021;fill:#ffffff;fill-opacity:1;stroke:none;filter:url(#filter5178)" />
      <path
         transform="translate(0,-147.63782)"
         d="m -189.61385,824.47275 c 18.2426,-4.24998 33.25105,21.02684 50.50308,16.86124 19.04904,-4.5995 30.35824,-29.15309 49.851543,-31.1611 18.131565,-1.86773 32.550368,18.03985 50.565043,20.81718 17.934716,2.76501 130.493301,-8.65826 143.098594,-9.79979 24.61847,19.1726 43.14269,63.03015 73.85542,57.51779 46.19596,-8.2913 62.10328,-81.00982 108.13259,-90.18122 33.31629,-6.63831 55.67335,41.25753 88.19897,51.06192 31.74248,9.56832 68.93216,-7.81933 99.30976,5.45994 174.97534,76.4888 -2.6692,125.97005 201.91377,17.50472 147.6598,-69.47715 69.21751,-70.69266 196.21023,9.35771 27.73012,17.47979 52.70644,51.29427 85.38925,48.77703 38.54333,-2.96861 58.818,-63.99413 97.4588,-62.86001 239.4107,7.02678 -93.27758,157.05054 147.3068,25.37877 35.1874,-23.95305 63.5085,38.28122 95.6802,29.42737 15.6685,-4.31207 19.7852,-26.43794 33.0204,-35.86805 3.9825,-2.83759 15.1547,-2.86629 14.5352,1.98435 -9.1671,71.77947 -14.0041,146.2561 -41.99,212.9878 -7.7569,18.4963 -16.1568,-36.7164 -24.2353,-55.0746 -14.8449,11.891 -29.6898,23.7819 -44.5346,35.6729 -16.6384,-5.7202 -33.6495,-23.868 -49.915,-17.1607 -30.8123,12.7058 -40.0056,67.1021 -73.3233,67.9796 -30.6493,0.8072 -35.8482,-57.5611 -65.7546,-64.3166 -30.0713,-6.7928 -58.41868,19.7219 -87.59617,29.6765 -31.93007,10.8937 -63.81745,21.9121 -95.72617,32.8682 -39.98531,-20.9056 -136.35598,-79.4384 -187.18586,-73.8581 -193.25797,21.2169 -22.18762,83.7428 -209.17649,51.1794 -200.69459,-34.9501 14.70732,-52.8626 -186.56294,-21.111 -152.8548,6.8331 -18.49944,8.8102 -156.25759,-14.0444 -19.22277,-3.1892 -38.854754,-4.3317 -58.332993,-3.799 -13.240366,0.3621 -26.374075,3.1842 -39.206235,6.4666 -8.287856,2.12 -22.3378099,18.0774 -23.7825428,9.6456 C -9.0746914,1012.1852 -3.3288746,946.75491 -5.9113165,882.20099 237.64489,744.10824 -110.38387,913.94709 103.52453,898.73073 c 29.02536,-2.06472 34.74621,-53.63574 63.05455,-60.37165 24.13181,-5.74211 44.25007,23.86985 68.50502,29.06733 25.60052,5.48582 52.33745,1.64782 78.5073,2.43524 28.72543,0.86432 57.45231,1.67999 86.17847,2.51998 407.9811,-168.04176 -243.17803,67.95728 187.44565,31.4706 45.77718,-3.8787 63.64135,-70.81892 106.41267,-87.58824 128.28726,-50.29749 74.33402,56.79747 198.06904,35.98632 38.88279,-6.53974 66.84349,-41.83905 100.26523,-62.75858 30.61184,-16.91451 58.24994,-60.50054 91.83544,-50.74354 39.1929,11.386 35.4649,81.7756 72.6777,98.5366 22.7873,10.26366 40.7062,-34.49356 65.6373,-36.23816 17.8164,-1.24673 27.8431,31.79378 45.3908,28.4688 75.322,-14.27223 4.8072,-73.4347 52.445,-25.29244 27.267,46.37258 90.6903,86.06222 81.8011,139.11772 -6.023,35.9481 -75.3132,1.03332 -107.9889,17.18396 -18.4901,9.13912 -14.0913,43.87233 -32.8567,52.43193 -15.0461,6.863 -30.4707,-14.66449 -46.9518,-16.02831 -53.364,-4.41588 -83.4012,18.55321 -130.6975,40.59461 -28.3204,-0.2719 -56.7557,-3.3777 -84.96125,-0.8156 -58.25481,5.2917 -149.4369,29.3706 -202.9317,47.9898 -45.15682,15.7172 -85.53435,52.0141 -133.34046,52.8756 -51.47217,0.9276 -97.89981,-31.8842 -146.84971,-47.8263 -50.5648,7.4743 -101.1296,14.9486 -151.69439,22.423 -526.66101,250.6518 211.62768,-50.6844 -294.928348,-4.3353 -57.451462,5.2568 -87.680046,77.0583 -139.460246,102.4967 -70.923806,34.8433 -165.354386,26.5216 -240.628976,36.8597 -33.89079,4.6545 -66.9905,13.9023 -100.48575,20.8535 -122.13527,-108.9418 -40.15155,-84.5104 -153.33117,-30.7483 -57.02819,27.0893 -44.37905,-8.756 -84.20702,41.4189 -8.37891,10.5557 -9.03888,45.9505 -18.22564,36.0899 -16.34688,-17.5459 -9.27451,-47.0564 -13.91177,-70.5846 9.92494,14.8137 25.49901,61.7521 29.77481,44.4412 16.3795,-66.3138 10.71581,-136.3847 9.80551,-204.6854 -0.063,-4.7234 -14.41625,2.4904 -12.44314,6.7824 3.15016,6.8524 12.70961,10.7834 20.22422,10.1435 114.01864,-9.7096 -45.55254,-29.0529 80.1363,-7.6948 132.6769,-46.7788 -26.54176,-1.2381 115.33733,-6.7817 141.22366,-5.5181 1.88146,-48.629 147.61639,15.7139 15.01387,1.1609 -1.40289,213.489 -16.41675,212.3282 l 0,0 c -24.23127,-25.0281 -39.59273,-64.2271 -72.69379,-75.0844 -24.75344,-8.1192 -48.23349,19.9876 -73.26332,27.2099 -69.8199,20.1465 -54.18602,15.6756 -117.22148,-5.3988 -95.96418,-3.8851 3.52269,-10.9125 -88.89049,38.7216 -16.07038,8.6312 -69.89029,-3.8521 -73.34623,-23.8957 -10.43015,-60.4922 -9.03804,-124.0013 3.34597,-184.1239 2.3979,-11.6415 20.61487,11.8375 30.92231,17.7562 7.51408,-21.4408 16.21979,-61.8463 40.98128,-74.1408 11.89595,-5.9066 28.8243,-8.4079 39.83283,-0.9773 23.05211,15.5597 26.74608,71.4776 53.5334,63.9979 238.76637,-66.6695 -79.42749,-156.78249 157.7885,-65.8374 185.05992,83.4699 12.01444,37.1551 215.14588,-18.3127 149.706575,-40.87946 107.872767,33.9732 262.34243,6.3825 326.94508,-58.39729 -34.421977,-87.2069 295.04035,-37.13932 50.49401,-35.41352 94.43172,-82.80933 151.48205,-106.24058 44.92361,-18.45066 96.61388,-10.01346 144.87078,-15.47507 43.50103,-4.92336 86.6231,-15.02639 130.39698,-15.67915 16.10344,-0.24013 180.30942,24.3597 202.30297,17.94551 32.50484,-9.47968 55.56184,-38.71166 83.34274,-58.06749 24.1677,3.29327 49.4883,1.80248 72.5031,9.87983 22.0966,7.7551 37.3245,42.61005 59.9608,36.61019 24.7784,-6.56764 24.0752,-46.40338 42.8468,-63.85985 6.8997,-6.41628 34.7868,-8.90992 28.1809,-2.19155 -100.8624,102.57993 -122.1374,-18.97757 17.1537,178.26698 -3.7505,9.58965 -1.2109,26.48543 -11.2515,28.76894 -11.2028,2.54782 -17.1899,-16.56794 -28.2169,-19.79274 -15.0419,-4.39897 -31.4872,-4.65476 -46.9647,-2.19386 -22.574,3.58921 -43.252,15.12615 -65.565,20.0858 -293.75667,65.29526 153.7803,-49.53373 -171.85758,36.49476 -37.64951,-13.5367 -148.56507,-60.7468 -192.73611,-47.2091 -41.90872,12.84432 -69.70018,53.3858 -106.85777,76.6373 -33.14443,20.7402 -64.70057,50.8967 -103.57871,55.044 -64.09719,6.8375 -117.33363,-73.4661 -184.55316,-57.7663 -171.10456,-89.1852 3.62725,-24.1187 -163.62856,-13.8599 -23.62611,1.4491 -44.43244,-22.063 -68.03938,-20.3293 -22.15529,1.6271 -39.05983,21.3862 -59.657477,29.7073 -13.815223,5.5812 -29.56509,18.0148 -43.111632,11.8099 -11.007303,-5.0418 -5.534748,-23.5731 -8.302122,-35.3596 -4.00278,-86.35723 -34.8655442,-96.41236 4.894375,-128.49989 13.034494,-10.51926 22.945821,-31.3288 39.687791,-30.8197 50.374555,1.53183 67.008295,79.7905 124.577605,67.16475 37.66051,-8.25948 61.80746,-46.10823 92.71118,-69.16235 6.11505,2.21757 177.49745,64.95984 181.33282,63.88276 46.23775,-12.98484 64.63952,-87.62446 112.61328,-89.87253 40.5368,-1.89957 52.6498,68.58128 91.49992,80.3077 64.50171,19.46905 133.34538,-64.70685 200.7326,-23.70785 312.41133,-19.81406 -110.85118,2.797 175.27823,0.27368 25.1394,-0.2217 49.9926,-9.63733 75.0444,-7.52869 18.9787,1.59747 85.7216,35.18212 110.9751,23.58468 19.9775,-9.1745 29.7505,-32.37279 44.6257,-48.55918 7.4305,6.38244 21.5765,9.37818 22.2914,19.14734 4.3425,59.33453 33.2616,150.33128 -20.8258,193.02788 -9.2878,7.3318 -17.3663,20.3931 -29.1976,20.1909 -14.7225,-0.2516 -24.1965,-24.0509 -38.6715,-21.3508 -24.6936,4.6062 -42.3978,26.9515 -63.5966,40.4273 -100.1623,-22.1796 -51.4109,-0.3276 -141.8385,-74.6308 -29.93571,-7.689 -60.37539,13.9083 -91.09905,17.2738 -31.25401,3.4236 -62.9074,0.8732 -94.27414,3.0323 -144.54769,9.9496 -55.4529,24.1859 -195.18012,-20.2049 -36.52591,14.2253 -71.19972,34.6991 -109.57772,42.676 -51.62482,10.7303 -153.23596,1.9568 -200.72905,-24.3299 -32.89683,-18.2079 -47.31994,-68.82977 -84.44515,-74.78357 -63.08533,-10.11704 -113.00727,96.35397 -185.966183,46.42837 -24.621807,-4.9675 -49.294781,-20.1171 -73.8654208,-14.9024 -29.0179562,6.1585 -48.6945852,58.7622 -75.7786792,46.6617 -31.516187,-14.0806 -5.835237,-81.22304 -36.603297,-96.87105 -22.08888,-11.23397 -33.20957,37.91215 -54.54809,50.51325 -20.26425,11.9668 -37.39907,-0.3309 -53.78676,-8.2911 -12.97229,-2.7955 26.56212,-186.25145 39.53441,-183.45595 z"
         id="path5182"
         style="opacity:0.33617021;fill:#a0c1e9;fill-opacity:1;stroke:none;filter:url(#filter5188)" />
      <path
         transform="translate(0,-147.63782)"
         d="m -64.385417,572.437 c 25.058789,-4.68156 25.868198,-58.29413 51.157779,-56.33405 20.2277612,1.56776 22.4813353,36.92474 41.164808,44.83348 63.846877,27.02644 74.46096,-42.38573 129.67805,-51.15699 26.3014,-4.17799 50.78826,16.0446 76.18239,24.0669 26.60604,21.31185 45.84992,66.80579 79.8181,63.93554 43.20284,-3.65055 60.24398,-72.40234 103.03459,-79.38624 34.38333,-5.61174 58.54601,43.47435 93.16645,47.36406 36.00617,4.04541 70.15674,-31.62173 105.7814,-25.01164 216.29866,40.13381 -28.68187,135.13564 212.89079,-3.09146 36.44578,-7.18584 72.29353,-24.33011 109.33733,-21.55751 35.5316,2.65942 64.73343,33.7815 100.19613,37.24038 35.1346,3.42689 69.9529,-9.94917 104.4855,-17.2766 34.5784,-7.33717 69.3969,-38.70045 102.6358,-26.67227 193.537,70.03533 -30.4331,162.96965 180.0014,34.56103 27.203,8.99503 52.962,27.49522 81.6091,26.98508 29.1802,-0.51964 54.302,-21.62986 82.2895,-29.90374 119.1105,-35.21242 31.6849,-4.78001 149.1091,-16.18757 119.6773,-11.62645 25.0273,-29.51925 138.4708,6.07093 21.5241,-8.44549 41.7376,-28.96811 64.5724,-25.33646 22.0285,3.50343 29.5803,36.5007 50.7022,43.66981 15.6799,5.32202 32.5894,-5.99368 48.6705,-9.94106 23.2697,-5.71196 59.6165,-15.88182 79.6666,-30.67419 12.9699,-9.5688 22.6899,-22.89732 34.0349,-34.34599 29.2878,59.69054 6.0652,49.98381 47.4216,29.24842 7.0067,-3.51305 15.54,-3.82279 22.0335,-8.21259 8.2213,-5.55786 11.2425,-20.15799 21.133,-20.96931 7.6553,-0.62797 11.7544,10.81824 14.309,18.06198 5.3694,15.22484 5.9025,31.74375 8.8538,47.61562 5.8967,-12.85109 11.7934,-25.70217 17.6901,-38.55326 12.9675,1.6393 -10.2158,185.02789 -23.1833,183.38859 l 0,0 c -4.5916,3.02204 -9.1831,6.04408 -13.7747,9.06612 -4.4873,-2.66377 -9.2934,-11.13043 -13.4621,-7.99131 -10.3271,7.77654 -9.1577,40.20652 -20.029,33.21079 -15.3587,-9.88352 4.0031,-44.03365 -11.5836,-53.55376 -11.3391,-6.92576 -12.5381,25.14424 -24.0407,31.7949 -15.9744,9.23623 -41.2543,-23.61235 -45.7216,-27.99203 -16.1339,18.29594 -39.1818,54.56167 -70.0291,55.28915 -38.5913,0.91012 -44.0621,-36.7473 -85.5919,-30.17869 -121.6637,19.24305 5.8546,64.89916 -118.4357,-0.22664 -23.0303,3.03327 -45.8623,8.94445 -69.0911,9.09981 -23.4675,0.15696 -46.9309,-12.84548 -69.9285,-8.17 -5.6683,1.15238 -151.235,75.66333 -157.1825,76.26781 -261.1969,26.54701 126.9362,-98.52059 -166.6038,11.17295 -4.1521,-1.66668 -175.8439,-70.83651 -177.5566,-70.47775 -43.6929,9.15229 -64.4751,79.73667 -109.0703,77.71225 -41.952,-1.90443 -56.3159,-63.58505 -91.3055,-86.8084 -102.14259,-67.79414 -104.63588,-38.2225 -211.60935,1.8146 -275.34452,62.7997 52.53774,14.75868 -207.9626,-34.06374 -35.10401,-6.57911 -69.85214,15.03489 -105.05515,21.06188 -33.21307,5.6863 -67.53856,5.4141 -100.10598,14.06309 -159.57547,42.37879 -34.25773,50.08134 -181.7943,22.94714 -180.341889,-83.36988 47.43222,-6.93205 -148.220153,58.69939 -22.399268,7.51382 -27.650144,-41.11242 -49.015736,-51.19687 -12.6102913,-5.95199 -27.319096,11.88665 -40.906993,8.7538 -50.960988,-11.74965 -8.158048,-46.76265 -45.126844,-5.35729 -11.834711,-0.44481 -5.544222,-167.81289 6.290489,-167.36809 z"
         id="path5192"
         style="opacity:0.33617021;fill:#d2e2f5;fill-opacity:1;stroke:none;filter:url(#filter5198)" />
      <path
         transform="translate(0,-147.63782)"
         d="m 2193.1582,258.34607 c -5.0059,2.60794 -10.1735,10.72118 -15.0176,7.82381 -9.8214,-5.87434 -10.5616,-21.0216 -19.3343,-28.37043 -4.8743,-4.08314 -69.9301,-28.24064 -70.123,-28.24077 -114.8007,-0.0763 7.9972,46.06203 -108.2576,-12.07149 -22.489,2.74807 -45.7476,1.79649 -67.467,8.2442 -27.2674,8.0947 -50.2554,28.07175 -77.8671,34.9002 -52.1366,12.89355 -98.8493,-0.10301 -148.4379,-14.00623 -23.8938,-6.69914 -46.7872,-16.69209 -70.7123,-23.2788 -23.5135,-6.47343 -47.618,-10.56867 -71.4269,-15.85301 -24.4461,3.57391 -48.7092,12.66964 -73.3382,10.72172 -34.0199,-2.69063 -93.4559,-37.81095 -124.959,-47.95318 -19.2503,-6.19753 -41.0107,-20.68006 -59.412,-12.29106 -133.3902,60.8113 -6.6875,93.82255 -116.2342,49.8881 -36.4585,-20.26579 -46.058,-36.96878 -88.4687,-20.36422 -15.1665,5.93798 -25.2285,21.25997 -40.0776,27.9523 -9.3118,4.19671 -20.5759,1.02966 -30.4032,3.81267 -37.66037,10.66508 -10.7019,17.82504 -40.78244,4.13248 -17.77199,-59.79059 35.99504,126.47077 59.38354,-140.02155 1.9033,-21.686955 -37.75522,-26.474138 -45.55671,-46.798593 -8.82612,-22.9938233 26.45311,-39.395487 41.29811,-32.343696 13.6072,6.4638363 22.3266,20.2305217 33.4899,30.345782 13.5021,8.660311 24.5662,24.186759 40.5063,25.980933 17.2394,1.940412 32.6821,-11.893816 49.5752,-15.841645 56.0042,-13.087915 59.64,-0.660654 115.0927,-29.6803322 24.926,-13.0443368 41.8032,-48.0131438 69.926,-47.2598908 26.0745,0.698389 39.7207,33.819106 59.581,50.7286589 49.5721,-3.0772775 75.1765,81.4751211 124.2033,79.1004791 30.3175,-1.46845 48.7185,-39.115422 78.0596,-46.887975 22.1257,-5.861197 45.4897,11.145127 68.1816,8.14812 125.4522,-16.568987 25.0459,-56.476049 132.8184,8.881033 300.4226,-114.223073 -184.2257,44.524905 114.0068,45.809434 32.9994,0.142133 38.3805,-58.250268 68.6967,-71.285041 15.5267,-6.675891 28.7431,21.168253 45.6165,22.134824 76.6842,4.392745 20.4196,-60.589986 70.5245,28.367348 11.6824,-5.310229 22.2566,-16.967502 35.0473,-15.930687 12.1592,0.985625 20.9182,12.868869 29.8384,21.190319 39.2663,36.630199 54.6869,55.303699 55.9192,114.621219 0.3828,18.42961 -0.8687,41.05685 -14.6195,53.33334 -22.3552,19.95832 -55.4804,22.67771 -83.2206,34.01656 -8.5011,13.97495 -9.1858,40.78269 -25.5034,41.92484 -21.1708,1.48186 -31.1732,-39.53989 -52.1752,-36.4877 -19.3124,2.80662 -15.5055,38.97397 -32.3804,48.77601 -13.7336,7.97735 -33.117,-8.86382 -47.5904,-2.32383 -107.8599,48.7381 18.3246,54.0148 -97.6054,35.90983 -24.7777,11.49266 -71.1996,40.40794 -103.1752,28.09886 -19.7022,-7.58439 -27.6338,-34.76412 -47.5088,-41.88325 -14.539,-5.2078 -30.5328,4.88529 -45.5338,8.55587 -49.0706,12.00708 -34.4216,7.83741 -71.1727,46.6198 19.357,-113.94581 -35.7512,-4.64373 -38.9139,-18.68027 -13.9473,-61.8999 -34.6054,-144.60516 27.5128,-186.42804 14.267,-9.60566 33.1859,-9.07738 49.6155,-14.16509 19.7956,-6.13006 39.3587,-12.98755 59.038,-19.48133 22.3823,-20.08773 38.688,-69.98819 67.1468,-60.26319 40.4634,13.8272 28.8943,96.86332 70.3727,107.25654 32.9992,8.2686 39.6147,-64.73494 72.9877,-71.33478 26.6079,-5.26198 41.9544,40.25281 68.9089,43.27334 24.2406,2.71641 44.5314,-20.10314 67.619,-27.97398 21.05,-7.17622 42.9993,-11.37784 64.499,-17.06677 162.8023,-115.141023 -32.776,-2.44889 92.1119,-9.81727 13.11,-0.77349 18.9322,-19.47618 23.0636,-31.94223 1.925,-5.808304 -2.9346,-21.756921 -6.8308,-17.038661 -96.7182,117.127111 -85.6726,84.740351 -38.2363,189.670891 0.9703,-1.86806 5.0118,-5.73515 2.9109,-5.60419 -10.1556,0.63307 -19.8652,10.07209 -29.6473,7.27087 -13.6346,-3.90443 -20.4028,-29.36809 -34.0511,-25.51164 -25.9712,7.33842 -35.2478,58.35369 -61.6021,52.5394 -146.6631,-32.35682 83.6745,-175.64841 -118.4077,-13.46613 -139.8584,-64.96924 14.4634,0.57467 -136.9266,-44.34523 -25.2522,-7.49274 -47.5405,-24.72606 -73.549,-28.89441 -26.5759,-4.25929 -54.0333,8.26747 -80.6367,4.18324 -26.3723,-4.04877 -49.4161,-20.36516 -74.9604,-28.07101 -23.8624,-7.19845 -48.6142,-11.02652 -72.9213,-16.53978 -23.9296,4.17432 -47.8593,8.34863 -71.7889,12.52295 -22.6212,19.40922 -38.6806,52.16202 -67.8635,58.22766 -50.8404,10.56712 -25.8093,-65.06213 -66.8423,-65.25963 -35.7589,34.93462 -15.9698,30.73969 -54.897,25.8684 -32.7029,-115.703359 -48.1645,-80.80365 29.0005,-183.977901 6.2654,-8.377251 14.5367,-18.9111174 24.9976,-18.9742936 12.6796,-0.076576 22.9469,26.1254176 33.1691,18.6230086 108.2019,-79.413496 -32.6567,-69.821923 79.9043,-66.311186 9.2266,2.537933 114.6205,31.997687 117.7095,30.654837 31.998,-13.910562 37.571,-71.596667 72.2107,-75.776055 31.2206,-3.766847 43.1631,53.916748 74.3312,58.095338 28.1988,3.780512 49.0686,-30.288339 76.4895,-37.875368 22.1149,-6.118951 45.8655,-1.549402 68.7983,-2.324103 14.1072,0.977139 0.2884,200.483573 -13.8188,199.506433 l 0,0 c -23.0641,9.75322 -44.6031,24.52167 -69.1923,29.25966 -23.8886,4.60302 -48.6356,-2.27447 -72.9604,-1.86884 -24.3781,0.40652 -48.6394,3.91901 -73.018,4.30311 -22.3089,0.35149 -44.5907,-2.00218 -66.9023,-2.09858 -27.9794,-0.1209 -77.402,2.35007 -106.8659,3.65267 -32.5477,14.00563 -37.8311,18.61727 -70.05,24.98715 -7.4605,1.47497 -15.1433,1.46953 -22.674,2.52888 -2.5736,0.36203 -8.8675,4.00038 -7.6024,1.73015 72.8132,-130.660961 98.2343,-72.93262 -5.5469,-156.242272 2.5187,-12.741298 0.3881,-27.3930902 7.556,-38.2238937 2.7888,-4.2139579 10.9212,1.52970265 14.1629,5.4060354 9.5531,11.4231153 7.7886,40.1752023 22.5899,38.5413213 23.0818,-2.54794 28.4397,-46.6770599 51.6616,-46.7377609 22.7918,-0.059577 33.4374,30.9810759 50.1561,46.4716139 24.7522,-7.14472 49.5044,-14.289441 74.2566,-21.434161 184.4844,-83.729566 -14.129,-25.2216592 151.1575,33.061691 27.1046,9.55763 55.748,-16.822746 84.4857,-17.211549 26.035,-0.352238 50.7273,12.614655 76.6523,15.031451 157.6527,14.696788 -1.2366,-21.848131 144.2369,17.642793 56.716,-19.426769 72.5231,-33.209964 131.0245,-24.756763 17.3038,2.500322 36.4405,5.112933 49.8387,16.345125 15.9277,13.352793 14.0386,44.181979 32.865,52.988549 30.3848,14.21335 63.8037,-56.667638 97.9502,-23.088387 17.8927,32.437477 57.7524,60.492067 53.6781,97.312437 -5.2414,47.36882 -47.9358,82.80065 -77.7242,120.00181 -7.738,9.66348 -20.2839,18.98391 -32.6053,17.78269 -14.0552,-1.37027 -20.9083,-21.19196 -34.6744,-24.3419 -27.4154,-6.27316 -80.6696,21.20164 -100.4868,29.39216 -21.2502,-3.99153 -42.7808,-6.70521 -63.7507,-11.97457 -22.2078,-5.58041 -42.6617,-20.76591 -65.5586,-20.51851 -24.4097,0.26375 -46.4554,15.03285 -69.8566,21.98168 -23.3617,6.93707 -46.4299,15.34953 -70.4136,19.67052 -153.6623,27.68438 14.1651,-21.56229 -131.1132,25.76548 -65.7795,-11.19804 -50.7734,-25.89228 -80.4287,40.20285 -2.1753,4.84841 11.0887,-6.75092 10.4633,-12.02805 -7.1985,-60.73803 -24.2624,-119.95155 -33.2749,-180.44702 -0.7661,-5.14205 -0.3371,-12.4121 4.1524,-15.03346 4.7493,-2.77303 10.7965,2.1021 16.1947,3.15315 8.2672,8.52769 12.9265,25.80511 24.8017,25.58309 15.4155,-0.28822 22.9136,-22.49879 37.7336,-26.75228 13.5788,-3.89728 28.2767,6.14074 42.2098,3.80765 16.2896,-2.7277 29.7131,-15.48143 45.9384,-18.5681 136.9402,-26.05111 -43.668,33.89127 90.2187,-15.0077 108.4981,52.54735 -16.9421,7.79747 82.516,-5.91011 14.4729,-1.99469 27.6816,23.29634 40.6088,16.48963 16.3098,-8.58787 15.5394,-33.43018 23.3091,-50.14526 8.7028,-2.31567 17.9278,-3.18132 26.1083,-6.94701 6.4213,-2.9559 11.2517,-8.56039 16.8776,-12.84059 -4.9586,11.57167 -7.4083,24.57949 -14.8758,34.71499 -4.734,6.42541 -23.2893,5.52183 -20.1866,12.87506 8.5377,20.23411 30.5196,31.58859 45.6603,47.49675 8.0102,8.41611 13.8474,19.46407 23.7907,25.47433 2.7111,1.63873 7.0348,-10.5395 5.2716,-7.90763 -8.2098,12.25438 -16.4075,24.5168 -24.6113,36.7752 -83.113,-84.38006 40.6122,24.02621 -73.41,-8.89069 -19.5766,-5.65155 -22.625,-38.19396 -42.0406,-44.3762 -18.6477,-5.93773 -37.7808,11.49788 -57.3115,12.74083 -40.4653,2.57526 -80.6733,-13.90389 -121.1626,-10.78255 -25.0608,14.67516 -46.3171,47.22005 -75.1823,44.02547 -26.9595,-2.98369 -33.119,-44.7833 -56.4633,-58.59502 -35.6324,-21.08201 -97.3584,-11.41611 -134.8333,-14.50294 -106.5242,-8.77446 -27.3029,-24.54299 -136.2799,14.75318 -171.3939,49.36449 38.024,9.7413 -119.5445,-32.37606 -53.7721,-14.37303 -62.7882,54.33409 -112.4715,49.16376 -18.9936,-1.97659 -24.4349,-33.85816 -43.1422,-37.69286 -15.3296,-3.14231 -28.2642,13.43921 -42.3963,20.15881 -128.93626,-18.57149 84.3246,2.41117 -67.21868,31.69643 -11.22624,2.16944 -12.17485,-20.87033 -22.408,-25.97106 -28.39456,-14.1533 -89.7527,1.53175 -90.26424,-30.19057 -0.76535,-47.4621 63.77213,-127.594688 103.54705,-178.3743136 6.67972,12.2377919 6.13686,35.6605836 20.03916,36.7133756 14.40451,1.090824 16.11541,-24.8671076 28.00261,-33.0752725 69.2527,-47.8191935 1.6721,22.6739275 74.5721,13.5519184 159.4825,-19.9561049 -51.4645,-62.9115649 100.6619,-21.8327219 18.7559,0.499333 37.5712,3.07223 56.2675,1.498 20.7948,-1.750926 40.7774,-13.363292 61.555,-11.418664 20.9979,1.965246 37.9867,23.67898285 59.0539,22.706766 25.5694,-1.1799846 46.0528,-33.401231 71.2174,-28.718568 50.1134,9.325155 62.7152,96.809217 127.2617,84.789559 111.509,-57.2750389 46.8996,-36.119503 160.6278,-51.8250113 26.1158,-3.60649705 51.8058,-12.8521802 78.1588,-12.1059377 24.3309,0.6889837 46.9441,13.989992 71.1717,16.3345528 23.5073,2.2748658 49.2259,-12.1952234 70.8039,-2.5952035 24.1197,10.7308607 35.9091,38.7064697 53.8637,58.0597047 19.6057,-3.252443 39.0837,-7.400715 58.8172,-9.757328 25.233,-3.013384 65.6628,0.14888 89.8188,-13.719463 14.2265,-8.167671 19.5669,-33.3331044 35.9693,-33.587808 12.5795,-0.1953396 12.5217,21.825065 18.7826,32.737597 4.803,-1.002056 9.606,-2.004113 14.409,-3.006169 15.7475,1.989373 -12.3864,224.692827 -28.134,222.703447 z"
         id="path5202"
         style="opacity:0.33617021;fill:#337cd2;fill-opacity:1;stroke:none;filter:url(#filter5228)" />
      <path
         transform="translate(0,-147.63782)"
         d="m 2084.0377,1169.7045 c -4.6044,-10.9718 -6.1521,-23.811 -13.8132,-32.9153 -15.9252,-18.9251 -41.3625,-11.4284 -60.2316,-5.4496 -15.8681,5.028 -29.4217,17.5233 -45.9404,19.5748 -151.1066,18.7664 61.3898,-51.1048 -115.9471,17.005 -22.6698,-3.5793 -45.3395,-7.1587 -68.0092,-10.7381 -24.9333,0.6107 -50.1548,5.661 -74.7999,1.8323 -26.3883,-4.0995 -51.5808,-36.0127 -76.0268,-25.2638 -41.4527,18.2268 -51.7876,79.7717 -92.5926,99.4056 -52.9538,25.4794 -130.9813,-53.4551 -158.9217,-75.0498 -140.1225,-29.7259 -21.4486,-16.9439 -163.7927,3.8287 -25.427,3.7106 -51.3916,1.035 -77.0515,2.4031 -23.8649,1.2725 -47.8201,2.1736 -71.484,5.5166 -22.0926,3.121 -43.8159,19.1277 -65.49072,13.8338 -20.17387,-4.9273 -31.13399,-27.4905 -46.70099,-41.2357 -24.52287,-9.5904 -41.06606,63.7089 -71.90607,59.5445 -16.19396,-2.1867 -9.96408,-50.6224 -9.62681,-52.9034 10.34777,-69.9852 13.97271,-141.7001 34.4081,-209.4304 4.50769,-14.94012 10.29761,29.46293 15.44641,44.1944 9.25532,-0.75842 18.49218,-1.79256 27.76597,-2.27526 12.43268,-0.64711 25.08369,1.11641 37.33194,-1.11305 16.98567,-3.09179 33.65207,-21.19212 49.65837,-14.72116 23.1908,9.37554 25.7463,53.95617 50.7243,55.30357 197.1421,10.6345 -45.0547,-139.17583 143.0557,3.5688 31.3009,-20.5542 56.8446,-56.28523 93.9027,-61.66262 30.8251,-4.47293 56.173,28.13972 86.4403,35.49366 31.177,7.57496 63.7664,8.53176 95.8493,8.79656 23.3611,0.1928 187.1897,-15.30882 209.096,-13.34022 35.4904,3.18932 69.2784,16.71712 103.9176,25.07562 323.8446,-118.17574 -86.108,1.2106 213.3509,5.8221 16.8969,0.2602 202.4417,-85.39551 217.1181,-92.0161 19.8196,2.52378 -15.8721,282.815 -35.6917,280.2912 l 0,0 c -35.0985,11.2651 -69.302,41.75 -105.2955,33.7955 -39.9352,-8.8256 -58.2294,-59.5162 -94.7144,-77.9974 -98.3428,-49.8146 -123.7039,-14.511 -217.702,23.7206 -237.2953,-82.6384 33.6129,-6.6106 -211.2209,-18.1811 -96.1981,-4.5462 -96.0549,-54.7572 -194.9668,-34.5053 -35.6539,7.3 -63.6937,36.5123 -98.5377,47.0189 -27.4835,8.2872 -57.1291,5.6887 -85.6936,8.533 -24.3058,-9.0851 -47.2457,-23.4771 -72.9174,-27.2554 -4.5764,-0.6736 -117.2387,11.6885 -127.1188,12.697 -16.51912,1.6861 -33.35139,8.2887 -49.58395,4.7916 -14.5487,-3.1344 -47.65547,-34.0046 -59.72859,-44.5428 -6.36777,9.2637 -18.74764,39.0266 -19.10331,27.7911 -1.83109,-57.8438 8.80749,-115.4197 14.50626,-173.01124 0.62126,-6.27842 -0.55404,-14.53766 4.43426,-18.40049 3.62642,-2.80822 8.35416,3.91708 12.79684,5.05711 54.81732,14.06654 -9.35052,-9.67815 61.71998,19.97602 17.99335,-5.55985 35.19071,-15.40097 53.98001,-16.67947 109.289,-7.43646 15.4086,32.53847 133.965,3.00921 28.054,-6.98748 51.9368,-28.11113 80.5697,-32.11151 88.2649,-12.33171 94.4577,25.8834 152.2326,85.72107 179.9128,-97.94365 2.4288,-25.9924 170.2129,-32.8087 28.6529,-1.164 54.7631,-17.68494 83.028,-22.52609 25.638,-4.39125 52.0731,-1.71273 77.8718,-5.03251 47.548,-6.11848 93.486,-22.27927 141.6578,-24.84575 19.653,3.34217 41.1148,1.13879 58.9591,10.02651 19.8624,9.89288 27.7726,46.66634 49.8196,44.15284 24.042,-2.7409 23.5182,-49.95038 47.1382,-55.20669 15.865,-3.53053 15.3269,32.59197 30.6935,37.88632 7.7076,2.65556 33.7391,-29.94477 38.7273,-35.76034 14.942,0.40791 9.1734,211.72011 -5.7686,211.31221 z"
         id="path5232"
         style="opacity:0.33617021;fill:#296ab7;fill-opacity:1;stroke:none;filter:url(#filter5250)" />
    </g>
  </g>
  <g
     inkscape:groupmode="layer"
     id="layer6"
     inkscape:label="clouds 2"
     style="opacity:0.85406111;display:inline"
     transform="translate(0,120)"
     sodipodi:insensitive="true">
    <g
       id="g5471"
       clip-path="url(#clipPath4072)">
      <path
         d="m -402.53089,489.83502 c 10.92499,5.16908 50.10132,25.43887 58.07271,17.8951 24.7096,-23.38405 15.71403,-102.20881 47.57888,-90.29205 54.03464,20.20778 45.88912,115.43616 96.01498,143.99303 28.31248,16.12971 59.18829,-27.59764 90.0759,-37.97643 32.532978,-10.93166 66.45363,-17.19005 99.680444,-25.78508 C 162.31138,180.92536 3.0335547,329.52668 186.64138,394.26753 c 120.21493,42.38827 59.07117,-62.20152 170.41483,-49.37117 147.04637,16.94443 -41.77737,113.60128 112.55028,11.93004 27.54646,25.33793 37.13633,39.46524 73.61201,51.98703 17.9857,6.17434 38.08459,18.73947 55.80542,11.84165 29.92366,-11.64777 42.01169,-56.22285 73.5616,-62.1977 30.88135,-5.84823 59.2651,20.95437 88.89765,31.43156 33.45967,-11.91444 66.91933,-23.82887 100.379,-35.74331 34.77165,-0.40714 69.5433,-0.81429 104.31495,-1.22143 30.86479,31.989 48.32688,91.9275 92.59438,95.96699 44.3788,4.04965 64.9461,-85.07226 108.8754,-77.58253 43.4301,7.40465 31.0353,113.2175 74.8813,108.9122 55.5491,-5.45445 67.1288,-90.24871 109.1533,-126.98281 21.8634,-19.11106 52.4967,-24.84082 78.745,-37.26123 16.8554,4.39385 40.5527,-1.0712 50.5661,13.18155 13.1793,18.759 2.9264,45.84288 6.7797,68.44258 1.3908,8.15655 10.481,15.08276 8.8447,23.1936 -3.1461,15.59384 -10.1237,52.83266 -22.0619,42.31863 -18.1114,-15.95073 -13.2509,-47.50291 -11.1208,-71.54266 0.9472,-10.68928 9.9552,19.01381 14.9328,28.52072 11.6873,-12.67325 17.8224,-37.93669 35.0618,-38.01976 127.9038,-0.61625 -44.5535,81.67566 96.6942,53.72422 27.8409,-5.50943 49.789,-27.2655 74.3895,-41.41782 28.5483,-16.42347 53.5776,-60.03036 85.0433,-50.30176 32.8964,10.17091 32.0262,60.96555 48.0393,91.44832 16.8906,21.29016 23.9497,58.92138 50.6718,63.87048 28.3256,5.24608 47.9616,-35.95454 76.4348,-40.32954 40.3962,-6.20702 62.9982,40.52104 95.4261,49.88832 35.6067,10.28553 71.9117,-11.79544 101.9772,-24.36352 15.7523,32.08879 12.028,90.20365 47.2568,96.26637 34.6088,5.95603 45.0353,-54.9078 73.4919,-75.48602 207.105,-149.76643 -50.1549,60.25277 162.1372,-10.30005 172.1721,-57.21939 26.8042,-175.76829 176.3543,20.65749 101.7883,28.6058 113.6156,-193.34312 201.1711,-176.38573 49.1897,9.52686 34.2311,98.43414 70.9708,132.50147 16.6201,15.41114 79.6138,-21.95742 95.7914,-30.4183 10.7728,-0.14644 12.8437,152.20384 2.0709,152.35028 l 0,0 c -13.724,7.42299 -28.0699,13.7966 -41.1722,22.26897 -22.6512,14.64703 -39.5631,41.13146 -65.8987,46.96667 -27.1429,6.01409 -59.3407,-29.98517 -82.1938,-14.15357 -179.5413,124.37799 -44.4102,285.85307 -188.3102,-43.82883 -32.9366,36.2677 -51.392,96.48524 -98.8097,108.8031 -10.2038,2.6507 -152.791,-121.37062 -162.1109,-123.24756 -27.586,-5.55555 -50.7814,29.22986 -78.9108,29.99536 -144.7693,3.93969 8.7486,-167.1795 -144.4883,122.67425 -14.7608,-35.39054 -20.3178,-76.23728 -44.2825,-106.17164 -11.3232,-14.14377 -38.0107,-25.60579 -52.3687,-14.55552 -42.0816,32.38714 -45.0388,109.7617 -94.9373,127.926 -27.5806,10.04004 -20.1748,-55.8648 -37.0514,-79.87873 -33.2436,-47.30244 -60.8197,-48.42263 -110.9269,-65.98232 -20.2193,-9.05361 -41.7419,-15.62939 -60.6578,-27.16082 -20.2677,-12.35543 -33.6629,-51.94859 -56.0171,-43.96582 -37.6663,13.45079 -44.8826,68.43402 -77.4635,91.63229 -12.1794,8.67199 -30.3912,-0.0796 -44.6052,-4.71689 -32.6079,-10.63818 -34.7801,-28.21364 -49.9575,-55.98735 -40.6992,-6.45363 -12.2049,-6.25523 -71.5236,46.81927 -14.7106,1.54774 12.4616,-31.41329 4.8687,-44.1076 -4.9544,-8.28292 -11.121,15.81499 -17.415,23.13196 -31.5605,36.69034 -19.5351,26.31569 -63.022,42.34045 -3.338,-56.27295 42.4042,-148.07985 -10.0141,-168.81887 -49.947,-19.7612 -55.0788,99.20496 -102.5866,124.26905 -25.0727,13.22782 -52.2706,-31.27804 -80.3959,-27.7314 -35.7639,4.50987 -59.8713,50.86203 -95.9072,49.96343 -191.12059,-4.76582 25.9593,-224.44716 -185.37802,93.99824 C 827.9126,678.39969 793.17575,655.69293 764.11124,626.68345 730.60549,593.24113 715.52276,538.51181 672.97007,517.76833 613.71818,488.88435 542.852,613.32156 522.0779,625.711 c -17.69551,10.55341 -41.92799,4.47323 -61.80322,-0.95644 -17.73097,-4.84388 -31.35824,-19.18497 -47.03736,-28.77746 -93.97129,36.48903 -49.17278,39.33089 -81.98911,-106.82991 -57.88667,14.28046 -32.45059,179.60709 -87.25926,156.13778 -69.44816,-29.738 14.32066,-200.95351 -59.08746,-218.80409 C 89.208414,403.21129 142.12438,696.72262 -4.1870479,653.49029 -198.2149,842.06529 18.909439,688.47132 -196.96332,599.41289 c -30.23482,-12.47339 -44.50882,48.04462 -68.70077,70.05552 -15.94086,14.50369 -30.02149,36.50449 -51.40141,39.21872 -64.42627,8.17905 -29.75383,-116.763 -47.30646,43.18665 -18.52894,2.69824 -56.68787,-259.34052 -38.15893,-262.03876 z"
         id="path5423"
         style="opacity:0.17872338;fill:#f8fbff;fill-opacity:1;stroke:none;filter:url(#filter5433)" />
      <path
         d="m 416.98682,810.50735 c 55.49971,10.32092 0.95191,7.2039 78.33345,-50.22876 22.6339,-16.7989 48.88473,-28.19514 74.34253,-40.29459 28.83997,-13.70691 57.96902,-46.86193 88.34873,-37.02849 42.72365,13.82898 58.31642,69.36249 94.34717,96.1643 31.261,23.2538 69.81472,34.61016 104.72208,51.91524 11.57574,-12.36722 133.16472,-145.03141 159.58602,-164.35247 15.9318,-11.65042 36.8929,-14.15562 54.7048,-22.65787 1.2113,-0.57818 -4.9678,-1.50208 -3.6427,-1.71576 26.0667,-4.20349 58.4959,6.83784 78.5298,-10.36044 11.2126,-9.62544 -13.9663,-26.04651 -20.9494,-39.06976 -256.27765,5.72042 -88.3483,29.27106 -80.7235,-34.06379 1.2375,-10.27897 -31.1823,0.3969 -29.4685,-9.81346 4.3711,-26.04214 35.0107,-41.58216 42.3526,-66.9474 2.0666,-7.13961 -12.9107,-9.87921 -20.3121,-9.19876 -8.9076,0.81891 -15.5712,8.80898 -23.3568,13.21346 4.0673,-20.92942 21.2377,-82.09984 12.2019,-62.78825 -24.4985,52.35886 -26.69624,115.17091 -59.10773,163.0366 -7.94119,11.72765 -23.17663,-16.29964 -34.42487,-24.90648 -20.74267,-15.87172 -37.057,-39.38886 -61.52913,-48.51489 -26.22038,-9.77798 -60.59166,10.02739 -83.76125,-5.66613 -36.85558,-24.9635 -54.11117,-70.69668 -81.16675,-106.04502 -207.09666,306.85832 -0.0102,92.64726 -156.82212,125.15834 -14.39217,2.98386 -42.75672,26.64232 -29.42809,32.83792 217.72658,101.20677 56.73375,-22.49188 67.65175,-32.04782 14.98583,-13.11629 39.04869,-7.85164 58.57304,-11.77747 -147.48181,255.13636 -76.63946,54.53979 32.84163,114.69392 22.04845,12.11447 2.79479,51.48834 13.49804,74.25531 11.01586,23.43193 62.29231,47.55616 74.76901,70.59451 8.13023,15.01253 6.33024,33.55346 9.49536,50.33019 33.68065,24.93024 120.16743,51.99883 40.50577,83.51635 -12.89183,5.10055 -27.79062,1.18239 -41.59227,-0.13261 -2.83892,-0.27048 -9.43941,-2.68004 -7.26246,-4.52217 19.34699,-16.37141 45.97627,-23.81026 62.96741,-42.61531 12.51396,-13.8499 -32.65518,18.09182 -48.98277,27.13773 40.93619,-22.11592 -10.80286,1.35423 -2.78533,42.09512 3.3394,16.96904 36.59847,20.25993 35.81742,37.53679 -3.16556,70.02147 -7.27234,219.18627 -108.53477,151.83787 -25.41788,-16.9051 -39.79522,-46.3006 -59.69283,-69.4509 -23.34,29.839 -46.68001,59.6781 -70.02002,89.5171 -22.7856,-32.6365 -36.44186,-121.6949 -68.35681,-97.9093 -67.86875,50.5814 -28.22165,256.7922 -108.39164,229.6367 C 311.55213,1241.8284 428.59803,1061.0573 363.9953,993.24059 75.804267,690.71196 394.88315,1554.0973 212.78996,988.46087 -88.762877,1331.7556 126.31818,1171.292 46.009702,1000.3985 c -10.846,-23.07987 -55.8860018,12.1357 -76.447081,-2.94932 -21.831013,-16.01678 -4.564191,-66.9485 -30.298627,-75.36688 -36.14858,-11.82512 -134.567704,94.0638 -148.043584,106.8558 2.46651,-27.4894 8.17431,-54.87931 7.39952,-82.46829 -0.0921,-3.279 -6.44213,1.24096 -9.6632,1.86144 33.91586,-41.3337 80.11515,-75.10531 101.74759,-124.0011 8.24904,-18.64528 -17.90177,-37.18147 -21.56369,-57.23847 -1.12598,-6.16715 7.96387,10.15575 13.50341,13.09089 6.52006,3.45466 14.30594,3.62263 21.458905,5.43395 6.377031,-5.39705 12.754062,-10.79411 19.131093,-16.19117 12.880715,1.56802 -9.294401,183.72884 -22.175117,182.16082 l 0,0 c -9.028241,-13.9713 -18.056491,-27.94259 -27.084731,-41.91389 -7.36665,-12.34169 -8.32598,-32.91867 -22.09996,-37.02507 -16.799,-5.00824 -194.76919,149.00139 -160.16445,-4.57893 15.13404,-67.16684 102.47862,-92.2993 157.85332,-133.21465 6.02047,-4.44841 15.42986,-2.59312 22.45685,-0.0132 11.92361,4.37767 21.56734,13.4237 32.351004,20.13555 17.406666,194.80688 -23.653604,44.49224 109.952812,20.08286 22.251465,-4.06526 29.197377,34.68647 45.652165,50.20723 16.25598,15.33324 29.85246,41.38714 52.188209,42.07939 166.29216,5.15389 28.68437,-96.482 140.71381,9.86667 85.24039,305.98117 -36.12088,14.69592 124.42533,48.31753 38.79486,8.12442 19.15126,118.44174 56.33575,104.71734 57.39233,-21.1831 36.4659,-132.0855 91.30127,-159.20897 30.97889,-15.32322 40.56952,55.96504 60.85428,83.94755 19.91482,-20.27274 39.82964,-40.54549 59.74446,-60.81824 14.96505,14.16329 26.69882,52.15654 44.89516,42.48986 19.34671,-10.27781 0.0382,-87.5843 -1.18394,-65.71114 -2.69291,48.19598 6.30887,167.98784 -20.8329,224.31304 -10.15576,21.0755 -82.04396,-126.56112 -15.88969,-68.3618 -54.9238,-35.84687 -42.76052,-10.3984 -27.89917,-79.88603 -42.23823,-29.38318 -111.68326,-5.59024 -148.73422,-41.29271 -17.83392,-17.18485 35.51896,-37.20294 58.95065,-45.22314 26.1419,-8.94784 55.30288,-5.73493 82.82659,-3.30433 10.95765,0.96767 -21.37938,5.19113 -32.06907,7.7867 7.64667,-0.0334 17.57991,5.35334 22.94,-0.10029 3.87871,-3.94639 -10.45364,-4.77857 -13.85563,-9.14262 -8.45827,-10.85019 -8.15398,-30.56426 -20.97901,-35.54296 -25.22186,-9.79115 -57.90987,9.92426 -81.06486,-4.07057 -34.29387,-20.72717 -54.16496,-130.38726 -61.0624,-157.33861 6.71537,-31.51658 13.43073,-63.03315 20.14609,-94.54972 -20.45286,-25.86404 -62.65063,-44.64369 -61.35859,-77.59211 0.0358,-0.9118 112.7233,-204.73069 137.41688,-207.30693 292.80262,-30.54767 -124.83168,234.30416 189.37432,-2.8973 31.05269,9.97686 61.12624,23.78486 93.15805,29.93058 28.4632,5.46104 59.45532,-4.93083 86.8252,4.60156 24.65295,8.58614 36.45136,44.26548 62.37253,47.3611 20.63221,2.46399 32.05061,-29.83421 52.47697,-33.64529 14.4377,-2.69374 27.3136,10.8068 40.9704,16.2102 19.0766,-6.05156 38.1533,-12.10313 57.2299,-18.15469 0.5086,-0.0141 121.2936,-5.16565 120.3426,2.26229 -6.1054,47.68473 -66.1528,75.02947 -77.208,121.81505 -3.8563,16.3195 34.8814,12.70166 41.8142,27.97034 83.9745,184.9437 -112.3503,-73.26522 38.8771,108.10317 23.1656,27.12841 71.386,45.76183 69.4968,81.38522 -1.7522,33.04012 -53.1719,39.65874 -77.1264,62.48206 -30.9961,29.53255 -47.3823,78.7561 -87.3147,94.19415 -82.3759,31.84684 -99.1291,-85.77042 -184.02214,-20.15993 -43.56066,33.66631 -61.42303,91.38389 -92.13454,137.07584 -36.95384,33.92721 -60.94514,96.78197 -110.86153,101.78157 -44.1196,4.4191 -63.29288,-69.0438 -106.24922,-80.0356 -48.61018,-12.43853 -117.33242,60.6471 -171.24737,38.78755 -23.32935,-9.45877 -21.05057,-61.73597 -46.14854,-59.78173 -25.03052,1.94899 -23.97872,44.11714 -35.96808,66.17568 -13.73827,-1.7355 10.80607,-196.02399 24.54434,-194.28844 z"
         id="path5437"
         style="opacity:0.17872338;fill:#91c0ff;fill-opacity:1;stroke:none;filter:url(#filter5443)" />
      <path
         d="m 843.82531,465.89282 c -14.05307,-0.23287 -28.1394,0.29546 -42.1592,-0.69862 -154.09342,-10.92599 62.34574,6.3719 29.77799,-66.35454 -4.16837,-9.3083 -160.94769,31.54526 -114.89812,-52.4021 15.30052,-27.89254 43.61853,-46.32302 65.4278,-69.48452 -12.72164,-10.77001 -28.29952,-18.87473 -38.16492,-32.31002 -12.97681,-17.67261 -10.92285,-42.69714 -10.79509,-62.75909 0.0726,-11.39624 -9.76652,-29.40383 0.57875,-34.18451 81.26097,-37.5517 112.75098,-28.61162 182.82434,-20.71257 32.65021,-5.61131 78.81577,-43.877969 97.95064,-16.83393 18.3891,25.99001 -38.18257,51.12702 -54.23161,78.6237 -11.47941,19.66757 -29.42334,39.57557 -28.02462,62.30514 0.89973,14.62101 19.44761,24.54824 33.60163,28.3228 32.17835,8.58125 85.788,-23.06975 99.6481,7.21195 13.3513,29.16998 -42.0516,48.45862 -63.0774,72.68793 37.3807,35.23701 -33.80176,55.06311 -24.42085,81.99376 7.06164,20.2725 223.03105,129.83573 -67.44192,98.2344 -32.61755,-3.54855 -37.34944,-54.76256 -61.8957,-76.5336 -18.74565,-16.62626 -43.77214,-24.39932 -65.65822,-36.59898 0.42539,-0.61634 93.27033,-133.74788 92.48442,-137.98755 -5.62539,-30.34657 -63.08305,-31.95205 -68.45592,-62.34434 -4.07598,-23.05627 48.66646,-27.45159 48.44244,-50.8643 -0.21734,-22.71467 -57.68553,-25.82357 -49.37852,-46.96588 C 826.9037,74.932072 884.09149,44.475788 923.15757,2.5947056 1119.8258,269.26552 1019.707,45.837886 991.11429,202.6573 c -3.36165,18.43726 0.30948,40.78031 12.80791,54.74539 18.6784,20.87033 70.3173,13.45303 73.1647,41.31603 11.0143,107.77902 -238.80689,94.00897 81.3604,66.59449 -9.1756,19.85656 -40.126,81.01536 -39.2734,103.61778 0.4608,12.21648 7.7446,30.27796 19.9599,30.76841 34.7196,1.39401 93.0579,-59.74762 100.9706,-25.91297 27.5127,117.64419 -242.2064,199.09944 53.4714,76.27277 -26.6567,29.80327 -53.3134,59.60654 -79.9701,89.40981 -13.8209,-25.26936 -13.5081,-82.74277 -41.4628,-75.80808 -43.0225,10.6725 -53.5093,70.68308 -80.2838,106.00954 -16.1138,21.26064 60.9217,-40.30885 48.3016,-63.81212 -77.8167,-144.92356 -207.4675,81.76764 -24.4351,-144.91144 16.984,-29.45886 58.0028,-55.11154 50.9518,-88.37656 -8.5349,-40.26602 -66.9393,-51.24412 -88.0374,-86.58626 -62.6702,-104.98094 7.1009,-64.33532 33.1263,-139.68905 6.3243,-18.31131 -23.117,-46.16695 -7.5011,-57.631919 35.9682,-26.407377 86.6144,-21.498431 129.9216,-32.247647 30.3095,28.157097 65.0204,52.218236 90.9284,84.471296 9.4318,11.74159 26.5742,72.94272 26.7878,92.63871 0.1523,14.03848 -11.3173,28.46882 -6.419,41.62588 7.5587,20.30289 48.5501,30.40494 40.7624,50.62114 -10.4314,27.07929 -50.9099,27.86724 -76.3649,41.80086 13.9549,59.36663 -124.1209,75.15142 -104.9735,126.48808 14.3609,38.50345 137.7643,8.13482 167.9877,40.98181 9.4765,10.29912 -1.2774,29.03729 -8.2609,41.16602 -13.5095,23.46269 -34.3812,41.83245 -51.5718,62.74867 7.205,-16.84605 39.4491,-54.73775 21.6148,-50.53816 -43.0409,10.13519 -70.0773,56.4992 -111.5911,71.72562 -14.6041,5.3565 38.4213,-32.95133 24.4342,-39.75823 -38.7554,-18.86061 -91.4293,10.37382 -128.8306,-11.047 -19.7239,-11.29646 -9.7867,-156.37568 -9.7224,-158.69976 59.2442,-78.07259 97.6656,-81.93203 67.9363,-172.41133 -7.3537,-22.38049 -35.9303,-36.92556 -36.5719,-60.47448 -1.6169,-59.33619 -24.6871,-152.76318 30.1417,-175.505161 286.8712,-118.988854 239.0027,78.828621 235.0452,188.868001 106.9879,176.8459 -1.4204,-47.32149 -0.899,177.32972 0.065,27.97832 40.2616,42.9938 45.6219,70.4539 4.7654,24.41231 -10.8363,48.58311 -17.7196,72.48479 -5.053,17.54592 -36.2622,53.00771 -18.0488,51.7181 36.6288,-2.59352 62.8013,-38.07343 94.2019,-57.11015 -26.2588,-11.93119 -52.5176,-23.86238 -78.7764,-35.79356 -2.1577,19.85165 13.441,58.08222 -6.4732,59.55496 -35.2082,2.6038 -127.1175,-47.6187 -92.12,-52.26356 58.1615,-7.7192 112.9481,50.43892 170.9797,41.7973 27.4062,-4.08113 -43.0527,-35.86746 -59.0972,-58.45801 -6.0152,-8.46944 -2.8931,-20.57397 -4.3396,-30.86096 -9.8171,-13.42802 -45.8566,-37.53551 -29.4513,-40.28405 36.9089,-6.18371 71.7179,30.37241 108.9853,26.95894 14.9915,-1.37313 21.1057,-24.05767 22.7341,-39.02363 1.2402,-11.39884 -24.8479,-130.5554 -18.3568,-141.60849 9.8606,-16.79077 11.2647,37.27934 16.8971,55.91901 10.9044,-12.79272 21.8089,-25.58544 32.7134,-38.37815 24.2633,-4.0991 56.6902,6.31205 72.7901,-12.29728 21.9264,-25.34394 0.091,-73.13778 22.6023,-97.96358 11.0205,-12.15364 27.0335,18.8049 38.9837,30.04576 38.199,35.93167 96.1839,61.02282 111.2375,111.25869 7.3101,24.3945 -50.7896,3.81206 -76.1843,5.71809 18.0556,23.57089 57.9721,41.26584 54.167,70.71267 -2.9947,23.17548 -44.4888,14.40565 -66.2623,22.89006 -17.5891,6.85388 -34.4765,15.38774 -51.7147,23.08161 -3.1829,8.44742 -122.6474,-36.56493 -119.4645,-45.01235 l 0,0 c 7.8647,-12.60238 19.2351,-23.60599 23.5941,-37.80713 5.1338,-16.72496 2.7151,-34.88477 4.0727,-52.32716 5.2159,-14.11891 10.4318,-28.23781 15.6477,-42.35672 -3.8175,-9.25982 -20.4532,-32.17328 -11.4525,-27.77946 65.3533,31.90327 123.4895,76.90228 186.492,113.22789 6.8305,3.93826 -24.1922,-20.11641 -17.5725,-15.83332 19.3315,12.50792 44.5305,20.57747 55.8732,40.61482 8.0688,14.25386 9.4844,41.65155 -5.2237,48.8592 -29.8065,14.60653 -66.3653,1.65584 -99.548,2.48376 -44.337,330.79468 33.2696,58.66021 -101.8366,74.73272 -25.4711,3.03009 34.4607,87.8423 11.6756,76.0611 -113.4647,-58.66778 -62.8519,-143.00686 -21.619,-69.76714 2.5987,4.61594 -6.6439,8.25224 -9.9659,12.37836 17.2472,15.22429 43.5018,24.19376 51.7415,45.67285 4.9513,12.90695 -21.6098,22.36249 -20.3608,36.13001 2.4563,27.07607 57.5078,72.5169 30.501,75.64398 -69.6629,8.06615 -133.1242,-62.88303 -202.8821,-55.68426 -66.142,6.82563 14.9353,252.04844 -166.9614,109.16068 -11.1469,-20.69311 -54.351,-92.2797 -54.0555,-121.82165 0.2707,-27.05995 30.2603,-53.14122 20.7672,-78.4828 -10.9553,-29.24509 -67.0568,-28.66364 -72.4292,-59.42778 -2.1337,-12.21829 89.7343,-172.9867 95.2512,-182.87759 -92.4233,-33.71326 22.6318,13.27242 38.8731,-15.87745 10.7941,-19.37321 -65.3158,-45.18654 -43.7043,-50.16412 228.9179,-52.72461 37.5651,99.54864 35.5518,104.65112 -8.5536,21.67839 7.1058,46.06487 10.6587,69.0973 24.82,15.77203 70.8299,18.1337 74.46,47.31608 4.2383,34.07053 -47.1774,52.53943 -57.9846,85.12727 -5.9101,17.82109 2.348,38.73392 11.4649,55.14742 8.9633,16.13705 49.7055,22.13627 40.2771,38.00607 -101.8812,171.48539 -101.3191,150.38379 -174.1058,89.96441 48.2867,-104.37268 32.9158,-20.97444 -23.4105,-83.71844 -13.617,-15.16851 -11.9785,-39.80744 -24.0772,-56.21251 -15.9415,-21.61553 -54.066,-29.04662 -58.3553,-55.56009 -4.8288,-29.84822 34.306,-53.11206 35.8897,-83.30685 1.3683,-26.08694 -18.4497,-48.87954 -27.6746,-73.31931 0.089,-25.65981 -2.7874,-113.78364 9.3092,-140.22484 8.5034,-18.58707 30.0005,-28.12244 42.0383,-44.64149 6.5959,-9.0513 1.9871,-29.23833 13.0537,-30.95942 67.2678,-10.46159 119.2209,157.92918 157.356,130.18718 -1.2901,-20.02683 -3.8339,-146.13077 -8.7495,-70.79358 -0.9073,13.90556 1.7955,28.25603 -1.583,41.77541 -4.6616,18.6538 -11.3458,37.35912 -22.1649,53.25383 -17.0803,25.09323 -52.9619,38.69292 -60.4448,68.11083 -6.2611,24.61468 16.5288,48.03265 24.7932,72.04897 7.1404,20.76531 12.0008,42.46065 21.4213,62.29591 7.2812,15.33081 23.5112,26.05345 28.2757,42.34298 19.7149,67.40386 -96.0995,175.29564 -110.6845,184.65642 -31.7627,20.38549 -83.4309,25.33633 -113.2047,2.14251 -18.7411,-14.59931 28.5637,-37.96823 42.8455,-56.95234 -208.57887,69.66065 -39.6438,47.99487 -108.7117,-7.21358 -11.2611,-9.00135 -40.10847,6.85443 -42.6219,-7.34127 -5.63279,-31.81353 30.6525,-61.95675 24.7288,-93.71739 -8.38344,-44.9485 -113.32414,-29.27864 -119.27679,-67.74138 -182.45375,-129.15645 30.81193,56.71685 20.48254,-152.99404 -1.7534,-35.59802 -81.06585,-11.68811 -97.83553,-43.13762 -12.03816,-22.57612 28.61275,-42.61408 39.85571,-65.59656 5.18346,-10.59588 -2.40158,-37.33226 8.9788,-34.22937 38.63781,10.53467 67.64246,42.89449 101.46369,64.34174 24.16334,-33.34734 36.93773,-79.25871 72.48998,-100.04203 19.2355,-11.24473 81.8137,7.5866 63.6328,20.4668 -322.17727,228.24475 -93.57111,-108.231555 -65.7854,92.53502 25.6442,185.29332 -148.02846,-32.21286 -27.1838,100.30068 -114.80733,98.73083 66.6556,-36.84848 -104.35348,-5.58614 -31.75464,5.80509 -46.02905,45.96163 -73.16463,63.44638 -8.94933,5.76648 -41.82707,7.308 -31.67374,4.106 112.96544,-35.62537 78.001,7.56117 114.87188,-58.12945 -28.75147,-0.8917 -57.6492,0.35551 -86.2544,-2.67509 -70.37805,-7.45628 -36.90317,-7.8982 -18.36507,-60.27105 5.13683,-14.51231 4.77212,-30.50542 9.108,-45.27682 5.56161,-18.94716 29.70077,-38.11026 20.49695,-55.5807 -8.30065,-15.75607 -35.37447,-4.15523 -53.0617,-6.23285 -24.72807,-43.44753 -15.85461,-16.5611 77.92413,-69.90083 17.27454,-9.82546 34.43845,-25.28554 54.30052,-24.61697 9.61212,0.32356 -6.89084,18.18156 -12.45593,26.0255 -13.91544,19.61369 -58.06555,35.2757 -45.64667,55.86958 15.70388,26.0413 59.74779,11.36861 89.62168,17.05291 -17.94577,23.53666 -63.57924,42.66147 -53.83729,70.60999 9.74111,27.94612 60.63057,6.69113 86.05953,21.83192 11.53344,6.86718 8.3891,25.56422 14.01259,37.75253 4.20373,9.11116 15.79133,15.8687 15.35253,25.89327 -0.4937,11.27798 -11.83252,19.22858 -17.74877,28.84287 0.64813,3.46812 1.29627,6.93624 1.9444,10.40436 3.50128,10.17396 -140.38014,59.68946 -143.88142,49.51551 z"
         id="path5447"
         style="opacity:0.17872338;fill:#005bd5;fill-opacity:1;stroke:none;filter:url(#filter5465)" />
    </g>
  </g>
  <g
     inkscape:groupmode="layer"
     id="layer7"
     inkscape:label="text"
     style="display:inline"
     transform="translate(0,120)"
     sodipodi:insensitive="true">
    <text
       xml:space="preserve"
       style="font-size:88.72614288px;font-style:normal;font-weight:normal;opacity:0.55744683;fill:#ffffff;fill-opacity:1;stroke:none;display:inline;font-family:Bitstream Vera Sans"
       x="1159.229"
       y="839.56763"
       id="text6988"><tspan
         sodipodi:role="line"
         id="tspan6990"
         x="1159.229"
         y="839.56763"
         style="font-style:normal;font-variant:normal;font-weight:normal;font-stretch:normal;fill:#ffffff;fill-opacity:1;font-family:UbuntuBeta;-inkscape-font-specification:UbuntuBeta">xubuntu</tspan></text>
    <text
       id="text7016"
       y="851.13281"
       x="1523.1539"
       style="font-size:131.48236084px;font-style:normal;font-weight:bold;opacity:0.22127662;fill:#ffffff;fill-opacity:1;stroke:#ffffff;stroke-width:3.79999971;stroke-miterlimit:4;stroke-opacity:1;stroke-dasharray:none;display:inline;font-family:Bitstream Vera Sans;-inkscape-font-specification:UbuntuBeta Bold"
       xml:space="preserve"
       transform="scale(1.0003938,0.99960637)"><tspan
         style="font-style:normal;font-variant:normal;font-weight:normal;font-stretch:normal;fill:#ffffff;fill-opacity:1;stroke:#ffffff;stroke-width:3.79999971;stroke-miterlimit:4;stroke-opacity:1;stroke-dasharray:none;font-family:UbuntuBeta;-inkscape-font-specification:UbuntuBeta"
         y="851.13281"
         x="1523.1539"
         id="tspan7018"
         sodipodi:role="line"
         dx="0 -8.3463783 0 -12.519567 -8.3463783">10.10</tspan></text>
  </g>
  <g
     inkscape:groupmode="layer"
     id="layer4"
     inkscape:label="line"
     style="display:none"
     transform="translate(0,120)"
     sodipodi:insensitive="true">
    <path
       style="opacity:0.13191486;fill:#0959b7;fill-opacity:1;stroke:none"
       id="path5345"
       d="m 1639.5126,249.88304 c -1.825,4.80211 -3.2799,9.76184 -5.4753,14.40634 -6.4211,13.58408 -23.8669,43.92245 -31.1979,54.20826 -16.3133,22.88882 -48.2785,58.76009 -67.1181,77.89249 -14.9191,15.15096 -30.8046,29.31912 -46.2069,43.97867 -17.1068,15.82259 -33.4085,32.56275 -51.3205,47.46777 -49.297,41.02118 -93.8721,72.51499 -147.0269,107.22581 -50.9602,33.27784 -96.252,60.63561 -149.9484,89.45941 -26.0172,13.96592 -52.6652,26.72384 -78.9978,40.08575 -26.6646,11.07985 -52.7465,23.68213 -79.99387,33.23953 -26.38933,9.25642 -53.92542,14.87547 -80.65155,23.10905 -26.22436,8.07902 -51.82751,18.12771 -78.16818,25.81901 -25.48294,7.44084 -51.49371,12.93876 -77.20469,19.5488 -49.60483,12.75291 -99.13672,25.78842 -148.74077,38.54441 -67.54441,15.06829 -136.31543,23.06687 -205.12337,29.4845 -20.3825,1.90105 -40.75422,4.07916 -61.19814,5.13076 -28.61378,1.47184 -76.75881,0.76032 -106.10914,0.55958 -0.26736,-0.0183 -0.008,-3.79956 0.25984,-3.78118 l 0,0 c 108.26711,-20.54536 -9.79779,2.16434 106.57114,-21.2439 20.18869,-4.06106 40.51058,-7.46509 60.63874,-11.81628 67.77808,-14.65191 134.40521,-33.96107 201.22438,-52.34857 57.65668,-15.3038 89.05143,-22.32246 145.54572,-42.71226 24.9183,-8.99347 49.21288,-19.6298 73.7725,-29.56105 24.95556,-10.09134 50.53988,-18.78438 74.77228,-30.50642 25.40739,-12.29043 49.04237,-27.95925 73.86371,-41.39393 24.91629,-13.4861 50.2221,-26.23982 75.3331,-39.35971 65.6892,-34.27529 86.1642,-44.13449 150.3726,-80.9175 69.5587,-39.84805 70.6479,-41.76269 136.7713,-84.65603 60.9839,-39.55946 30.0736,-19.00329 99.5095,-66.9909 42.1974,-34.51808 49.9526,-40.26053 89.7077,-74.98402 11.7,-10.21918 22.9598,-20.93847 34.7444,-31.05997 9.6359,-8.276 19.6946,-16.04668 29.5016,-24.11924 27.4757,-22.61658 12.4088,-11.20322 34.6725,-27.4126 0.8983,-1.92478 28.1188,10.77862 27.2205,12.70342 z" />
  </g>
  <g
     inkscape:groupmode="layer"
     id="layer5"
     inkscape:label="balls"
     style="display:inline"
     transform="translate(0,120)"
     sodipodi:insensitive="true">
    <path
       sodipodi:type="arc"
       style="opacity:0.17872338;fill:#0959b7;fill-opacity:1;stroke:none;filter:url(#filter5318)"
       id="path5304"
       sodipodi:cx="478"
       sodipodi:cy="822"
       sodipodi:rx="62"
       sodipodi:ry="62"
       d="m 540,822 a 62,62 0 1 1 -124,0 62,62 0 1 1 124,0 z"
       transform="translate(-166.8772,76.36754)" />
    <path
       sodipodi:type="arc"
       style="opacity:0.17872338;fill:#0959b7;fill-opacity:1;stroke:none;filter:url(#filter5318)"
       id="path5324"
       sodipodi:cx="478"
       sodipodi:cy="822"
       sodipodi:rx="62"
       sodipodi:ry="62"
       d="m 540,822 a 62,62 0 1 1 -124,0 62,62 0 1 1 124,0 z"
       transform="matrix(0.83025744,0,0,0.83025744,86.793794,179.12637)" />
    <path
       sodipodi:type="arc"
       style="opacity:0.17872338;fill:#0959b7;fill-opacity:1;stroke:none;filter:url(#filter5318)"
       id="path5354"
       sodipodi:cx="478"
       sodipodi:cy="822"
       sodipodi:rx="62"
       sodipodi:ry="62"
       d="m 540,822 a 62,62 0 1 1 -124,0 62,62 0 1 1 124,0 z"
       transform="translate(234.75945,-22.627415)" />
    <path
       sodipodi:type="arc"
       style="opacity:0.17872338;fill:#0959b7;fill-opacity:1;stroke:none;filter:url(#filter5318)"
       id="path5356"
       sodipodi:cx="478"
       sodipodi:cy="822"
       sodipodi:rx="62"
       sodipodi:ry="62"
       d="m 540,822 a 62,62 0 1 1 -124,0 62,62 0 1 1 124,0 z"
       transform="matrix(1.6365345,0,0,1.6365345,115.75789,-603.8416)" />
    <path
       sodipodi:type="arc"
       style="opacity:0.17872338;fill:#0959b7;fill-opacity:1;stroke:none;filter:url(#filter5318)"
       id="path5358"
       sodipodi:cx="478"
       sodipodi:cy="822"
       sodipodi:rx="62"
       sodipodi:ry="62"
       d="m 540,822 a 62,62 0 1 1 -124,0 62,62 0 1 1 124,0 z"
       transform="matrix(0.68880531,0,0,0.68880531,714.43648,108.72383)" />
    <path
       sodipodi:type="arc"
       style="opacity:0.17872338;fill:#0959b7;fill-opacity:1;stroke:none;filter:url(#filter5318)"
       id="path5360"
       sodipodi:cx="478"
       sodipodi:cy="822"
       sodipodi:rx="62"
       sodipodi:ry="62"
       d="m 540,822 a 62,62 0 1 1 -124,0 62,62 0 1 1 124,0 z"
       transform="matrix(1.268759,0,0,1.268759,543.28461,-423.15247)" />
    <path
       sodipodi:type="arc"
       style="opacity:0.17872338;fill:#0959b7;fill-opacity:1;stroke:none;filter:url(#filter5318)"
       id="path5362"
       sodipodi:cx="478"
       sodipodi:cy="822"
       sodipodi:rx="62"
       sodipodi:ry="62"
       d="m 540,822 a 62,62 0 1 1 -124,0 62,62 0 1 1 124,0 z"
       transform="matrix(0.83025744,0,0,0.83025744,819.35642,-100.88792)" />
    <path
       sodipodi:type="arc"
       style="opacity:0.17872338;fill:#0959b7;fill-opacity:1;stroke:none;filter:url(#filter5318)"
       id="path5364"
       sodipodi:cx="478"
       sodipodi:cy="822"
       sodipodi:rx="62"
       sodipodi:ry="62"
       d="m 540,822 a 62,62 0 1 1 -124,0 62,62 0 1 1 124,0 z"
       transform="translate(305.47013,-39.597978)" />
    <path
       sodipodi:type="arc"
       style="opacity:0.17872338;fill:#0959b7;fill-opacity:1;stroke:none;filter:url(#filter5318)"
       id="path5366"
       sodipodi:cx="478"
       sodipodi:cy="822"
       sodipodi:rx="62"
       sodipodi:ry="62"
       d="m 540,822 a 62,62 0 1 1 -124,0 62,62 0 1 1 124,0 z"
       transform="matrix(1.1697426,0,0,1.1697426,730.62164,-444.99851)" />
    <path
       transform="matrix(1.1697426,0,0,1.1697426,68.769693,-128.21467)"
       d="m 540,822 a 62,62 0 1 1 -124,0 62,62 0 1 1 124,0 z"
       sodipodi:ry="62"
       sodipodi:rx="62"
       sodipodi:cy="822"
       sodipodi:cx="478"
       id="path5368"
       style="opacity:0.17872338;fill:#0959b7;fill-opacity:1;stroke:none;filter:url(#filter5318)"
       sodipodi:type="arc" />
    <path
       sodipodi:type="arc"
       style="opacity:0.17872338;fill:#0959b7;fill-opacity:1;stroke:none;filter:url(#filter5318)"
       id="path5370"
       sodipodi:cx="478"
       sodipodi:cy="822"
       sodipodi:rx="62"
       sodipodi:ry="62"
       d="m 540,822 a 62,62 0 1 1 -124,0 62,62 0 1 1 124,0 z"
       transform="matrix(0.60393408,0,0,0.60393408,135.57941,387.79162)" />
    <path
       sodipodi:type="arc"
       style="opacity:0.17872338;fill:#0959b7;fill-opacity:1;stroke:none;filter:url(#filter5318)"
       id="path5372"
       sodipodi:cx="478"
       sodipodi:cy="822"
       sodipodi:rx="62"
       sodipodi:ry="62"
       d="m 540,822 a 62,62 0 1 1 -124,0 62,62 0 1 1 124,0 z"
       transform="matrix(0.50491754,0,0,0.50491754,-10.837961,481.91106)" />
    <path
       sodipodi:type="arc"
       style="opacity:0.17872338;fill:#0959b7;fill-opacity:1;stroke:none;filter:url(#filter5318)"
       id="path5374"
       sodipodi:cx="478"
       sodipodi:cy="822"
       sodipodi:rx="62"
       sodipodi:ry="62"
       d="m 540,822 a 62,62 0 1 1 -124,0 62,62 0 1 1 124,0 z"
       transform="matrix(1.3253399,0,0,1.3253399,799.08169,-664.82341)" />
    <path
       sodipodi:type="arc"
       style="opacity:0.17872338;fill:#0959b7;fill-opacity:1;stroke:none;filter:url(#filter5318)"
       id="path5376"
       sodipodi:cx="478"
       sodipodi:cy="822"
       sodipodi:rx="62"
       sodipodi:ry="62"
       d="m 540,822 a 62,62 0 1 1 -124,0 62,62 0 1 1 124,0 z"
       transform="matrix(0.64636967,0,0,0.64636967,1233.9381,-197.21955)" />
    <path
       transform="matrix(1.0707261,0,0,1.0707261,1084.8359,-594.12377)"
       d="m 540,822 a 62,62 0 1 1 -124,0 62,62 0 1 1 124,0 z"
       sodipodi:ry="62"
       sodipodi:rx="62"
       sodipodi:cy="822"
       sodipodi:cx="478"
       id="path5378"
       style="opacity:0.17872338;fill:#0959b7;fill-opacity:1;stroke:none;filter:url(#filter5318)"
       sodipodi:type="arc" />
  </g>
  <g
     inkscape:groupmode="layer"
     id="layer9"
     inkscape:label="non-ws bg"
     transform="translate(0,120)"
     sodipodi:insensitive="true">
    <path
       style="opacity:0.72950822;fill:#bfd2ee;fill-opacity:1;stroke:none;filter:url(#filter3936)"
       id="path3142"
       d="m 106.402,-129.25005 c 2.6959,-0.0233 5.39348,-0.16813 8.0877,-0.07 31.67284,1.15406 63.25585,2.93296 94.9739,3.16111 47.53752,0.34196 66.48478,-0.66335 115.53501,-2.04443 161.25274,-6.47756 321.87528,-22.94302 482.65935,-36.16182 71.94033,-5.63913 143.96839,-10.06938 216.04464,-13.53163 40.9986,-1.96941 81.8624,-3.97475 122.902,-3.55685 80.643,10.39559 77.5233,3.14007 40.119,201.1324 -3.7779,19.997698 -39.4306,10.269715 -59.4713,13.812555 -14.1088,2.494193 -28.5034,2.951417 -42.771,4.262084 -62.855,5.774097 -56.3104,4.781985 -125.77556,8.996786 C 721.02427,57.8174 483.09253,61.136483 245.27119,67.893924 c -211.029075,5.76667 -422.1079,11.182524 -632.85193,23.956293 -11.78871,0.892399 -23.59564,1.570207 -35.36614,2.677197 -47.43563,4.461216 30.81019,2.437853 32.45833,-6.959376 11.25056,-64.147441 -17.47004,-130.129071 -11.89968,-195.016978 0.81653,-9.51156 19.09313,-0.0116 28.63964,0.017 16.22188,0.0486 32.44359,0.14308 48.66538,0.21461 201.52946,4.23112 403.099965,5.64776 604.66588,6.76692 241.35997,0.40399 482.59739,-8.00736 723.82183,-14.94304 78.1476,-1.33728 156.2748,-4.90231 234.4338,-5.73304 26.6914,-0.28369 58.8722,-0.31223 85.8883,2.47194 10.3386,1.06545 20.5383,3.20395 30.8075,4.80593 29.2992,6.52096 54.8462,20.479675 77.8945,39.34023 9.7427,7.972562 18.0007,17.447458 28.0082,25.075217 1.124,0.669611 2.2481,1.339221 3.3721,2.008831 3.3734,3.575832 0.9985,-0.603155 1.4844,-0.431451 1.7914,0.633159 5.778,0.821087 5.0789,2.587857 -25.396,64.178027 -49.113,129.390159 -81.4361,190.373706 -2.7615,5.21005 -11.4217,-2.93706 -17.1326,-4.40559 -6.3734,-1.32325 -12.6961,-2.92054 -19.1204,-3.96976 -39.8992,-6.51644 -80.5688,-9.42648 -120.8206,-12.42512 -80.8665,-6.0243 -67.7201,-4.80991 -154.8803,-9.27599 C 830.59203,105.54022 583.95254,103.83117 337.40534,104.61 c -194.91866,1.68762 -389.947162,3.81225 -584.69045,12.85021 -9.69979,0.83909 -19.51055,0.8306 -29.09935,2.51727 -1.45886,0.25661 -2.0881,2.1015 -3.13216,3.15224 28.0798,-52.454296 71.61787,-99.21975 84.2394,-157.362899 4.09276,-18.85392 -27.51372,-27.053253 -41.27059,-40.57988 14.18087,3.90166 -40.99693,204.449439 -55.1778,200.547779 l 0,0 c -26.04755,-15.63684 -78.5012,-16.53195 -78.14263,-46.910508 1.98005,-167.751833 51.47799,-163.048922 140.99942,-168.547108 197.187944,-8.249824 394.5966,-10.796434 591.93521,-12.078134 249.77664,-0.38984 499.66416,1.22916 749.24811,11.853246 72.9795,4.086146 91.1753,4.556947 160.6151,10.347558 55.1065,4.59534 110.4825,9.966194 164.3723,22.882216 73.4015,12.880332 10.7678,-0.12474 -69.4643,192.42156 -0.5092,1.22187 -2.4019,-1.11674 -3.5692,-1.74079 -13.5214,-7.22817 -26.6725,-15.05422 -38.5115,-24.88619 -5.7448,-4.86001 -20.1589,-15.438822 -24.5617,-22.210203 -0.1446,-0.222297 0.5372,-0.172113 0.7901,-0.09242 1.761,0.554975 3.5136,1.169324 5.1761,1.972605 0.7542,0.364376 -1.619,-0.430016 -2.4285,-0.645023 -29.671,-3.132587 -59.1852,-2.875398 -89.0264,-2.408764 -77.8014,1.216602 -155.5744,4.156145 -233.36445,5.844675 -243.21877,7.041315 -486.46741,15.11154 -729.8245,14.24381 -201.63839,-1.19777 -403.27111,-2.9726 -604.87946,-6.795058 -16.86282,-0.159382 -33.72787,-0.16061 -50.58845,-0.478147 -11.91387,-0.224375 -31.3375,9.929555 -35.72953,-1.147487 -24.74917,-62.419268 -45.41914,-129.751706 -42.77482,-196.846372 0.47171,-11.968856 98.84037,-14.821556 109.74719,-16.057376 212.55004,-12.09311 425.382555,-17.69679 638.1804,-23.47947 235.70739,-6.52592 471.54354,-9.76147 707.06715,-21.69749 46.16087,-3.18661 72.34307,-4.36564 116.49807,-9.4522 9.4572,-1.08945 18.9339,-6.06813 28.257,-4.14337 6.8548,1.41517 -20.382,-1.18506 -20.1779,5.81131 5.72,196.000565 91.056,187.57656 22.7748,193.455382 C 1012.4278,26.879245 904.14991,35.615859 795.99093,43.307385 631.82912,57.056156 467.73597,73.388198 303.00919,78.631061 223.06548,80.162682 142.91805,81.057146 63.16738,74.20699 48.780795,71.149841 92.015412,-132.3072 106.402,-129.25005 z"
       clip-path="url(#clipPath3968)" />
    <path
       style="opacity:0.54621851;fill:#5facd3;fill-opacity:1;stroke:none;filter:url(#filter3984)"
       id="path3978"
       d="m -14.156579,1422.2547 c 3.33163,-5.2054 6.4159184,-10.5777 9.9948889,-15.6162 4.56452445,-6.4261 22.6212781,-28.3113 26.6201441,-33.2229 23.184249,-28.4761 46.464467,-56.7947 70.203861,-84.8136 51.201855,-60.2851 106.312395,-116.8892 163.553885,-171.4419 18.41024,-17.5455 38.80197,-34.1022 58.33347,-50.4173 16.74859,-14.6648 35.19695,-27.101 52.68309,-40.8196 7.63325,-5.9886 14.55591,-12.0769 22.63337,-17.4514 37.05139,-26.60812 86.55522,-14.16646 121.95226,10.655 25.90643,18.1663 29.23654,39.0753 36.41623,64.3346 6.02116,47.4553 0.98929,95.471 -1.25752,143.0409 -0.41262,39.8655 -5.19149,80.021 -1.22269,119.834 -0.0613,0.1807 -0.0965,0.7117 -0.18391,0.5421 -4.05046,-7.8564 -2.2311,-8.7292 -9.74941,-17.3722 -22.27736,-25.6102 -37.26727,-29.6878 -68.74079,-37.7839 1.49662,-2.1162 2.40119,-4.8138 4.48986,-6.3486 6.31405,-4.6395 13.59524,-7.7969 20.29341,-11.8623 8.64574,-5.2474 17.2627,-10.5478 25.73343,-16.0734 4.97883,-3.2477 64.35749,-43.6029 65.93375,-44.7295 12.56223,-8.9789 24.73026,-18.4968 37.09539,-27.7452 23.90762,-19.3119 56.39917,-44.7433 78.47825,-65.9598 13.66151,-13.1278 26.6316,-26.9823 39.19759,-41.1622 1.78548,-2.0148 2.01164,-5.0708 3.65964,-7.1996 81.30506,-105.02214 -4.08994,11.7645 68.01513,-88.38961 33.35248,-48.07085 61.02768,-99.63604 90.45508,-150.09375 21.07419,-19.11771 37.34052,-45.53251 63.22259,-57.35314 52.87318,-24.14776 93.35818,5.98156 129.39048,39.4347 8.9193,8.28085 13.2555,20.48689 18.5809,31.43063 11.3831,23.39219 17.1786,47.15568 24.4694,71.97911 28.299,117.09006 33.8289,238.20896 33.2779,358.23976 -0.1228,26.7601 -1.0964,53.5096 -1.6447,80.2644 -3.6171,107.5684 -15.4842,214.5991 -25.9937,321.6463 -0.3876,5.651 -0.7752,11.302 -1.1629,16.953 -0.1583,0.1212 -0.395,0.5462 -0.4751,0.3636 -18.6758,-42.5945 -6.1757,-31.391 -50.8539,-63.6269 -14.1659,-10.2209 -22.2738,-3.2121 -9.9111,-10.5734 9.4295,-5.8377 19.9572,-9.365 29.9361,-14.1536 14.4247,-2.872 55.0416,201.1237 40.6169,203.9958 l 0,0 c -19.4672,6.9763 -38.8907,14.1819 -59.3429,17.8554 -22.9773,3.0752 -47.2617,8.4526 -70.2016,-0.8682 -20.97635,-8.523 -41.48824,-20.2569 -57.32293,-36.4405 -20.32924,-20.7772 -27.61631,-49.0993 -29.47818,-76.5163 -0.6296,-9.2712 0.2636,-18.5832 0.39541,-27.8748 10.01277,-102.9244 21.94535,-205.7454 26.92741,-309.0753 3.93907,-129.6487 6.13741,-260.7797 -20.02908,-388.519 -2.24144,-8.93634 -4.47122,-17.87562 -6.72433,-26.80903 -1.25493,-4.97571 -3.48291,-9.79653 -3.79978,-14.91826 -0.0592,-0.95616 2.00537,-0.73609 2.85829,-0.29989 16.23618,8.3035 30.11758,22.59574 47.97436,26.29669 60.78213,12.59756 67.70613,-14.95705 107.93313,-53.80718 -1.0129,-0.38313 -2.255,-1.89674 -3.0387,-1.14939 -4.891,4.66387 -18.0845,30.88293 -18.9633,32.45788 -20.4919,36.72411 -41.8551,72.99168 -64.0839,108.68838 -24.94707,37.4325 -47.66941,73.8523 -77.16961,108.1275 -66.98213,77.8242 -140.27965,149.2346 -224.18022,208.6316 -38.73758,27.1596 -77.47365,54.0873 -118.21431,78.2086 -11.77008,6.9687 -45.72798,26.0518 -59.74074,31.9927 -10.59854,4.4934 -21.6893,7.7236 -32.53396,11.5854 -15.90234,0.662 -31.96843,4.3563 -47.70702,1.9858 -14.28849,-2.1521 -28.02112,-8.111 -40.56614,-15.2814 -31.69045,-18.1135 -48.73568,-50.6384 -57.89124,-84.3259 -3.9069,-20.6414 -4.8155,-22.2898 -6.33884,-43.9336 -2.6216,-37.2481 0.63451,-74.5796 1.14851,-111.8396 1.06321,-25.9595 2.03821,-51.9434 3.90171,-77.8621 0.37961,-5.2799 1.13986,-10.5316 1.40008,-15.8187 0.23565,-4.7878 -0.27246,-9.6003 0.0863,-14.3804 0.0833,-1.1094 0.81728,-2.0695 1.22591,-3.1043 20.79696,46.124 42.90111,58.1334 95.43716,67.6397 10.77776,1.9503 21.63037,-3.4621 32.43478,-5.2588 1.3919,-0.2314 4.07368,-2.2341 4.15184,-0.8252 0.0948,1.7088 -2.68031,2.1289 -4.02047,3.1934 -6.24722,6.2279 -13.76463,11.1943 -20.72411,16.5904 -15.22651,11.8062 -30.01931,24.1298 -44.49001,36.8564 -7.55794,6.7731 -15.21286,13.4396 -22.67382,20.3193 -9.02764,8.3245 -17.6251,17.1141 -26.78787,25.2896 -2.52199,2.2502 9.31086,-9.7912 6.83683,-7.4883 -31.61802,29.4305 -60.42697,61.4544 -89.01296,93.7926 -28.15553,31.4228 -22.87089,24.8284 -48.64622,56.1886 -6.78303,8.2527 -26.17237,32.5169 -33.99477,41.946 -3.40328,4.1024 -6.63575,8.3717 -10.39186,12.1537 -1.29204,1.3009 -3.08621,1.9805 -4.62931,2.9708 -5.29469,13.7217 -199.349475,-61.1565 -194.054789,-74.8782 z"
       transform="matrix(0.95289912,0.30328742,-0.30328742,0.95289912,225.33316,-65.96199)"
       clip-path="url(#clipPath4016)" />
    <path
       style="opacity:0.54621851;fill:#abc3e8;fill-opacity:1;stroke:none;filter:url(#filter4010)"
       id="path3988"
       d="m 883.48209,1347.1799 c -113.44181,-0.7228 -102.40259,23.5455 -42.97399,-208.1368 2.82527,-11.0143 22.73263,-0.6453 34.09894,-0.9679 123.23679,-7.3628 246.55556,-12.773 369.95716,-16.4085 69.186,-0.8069 138.3854,-4.0348 207.5913,-3.2687 17.126,0.1896 55.6328,0.8613 74.474,5.2194 10.8176,2.5023 21.0113,7.1871 31.5169,10.7806 76.4451,106.3068 86.7623,68.2099 2.2455,197.6439 -5.3305,8.1635 -17.3192,9.0151 -25.5332,14.2675 -3.0735,1.9654 -5.5256,4.7693 -8.1692,7.2834 -2.4173,2.2991 -9.4894,9.3742 -7.0049,7.1479 12.6097,-11.2986 24.9286,-22.9177 37.3929,-34.3765 -0.3622,-0.5938 -1.1155,-1.0865 -1.0867,-1.7814 0.7702,-18.595 3.7983,6.0563 2.9807,-20.8455 -0.6375,-20.973 -1.8894,-33.9598 -12.9871,-52.1001 -4.7294,-7.7305 -11.5736,-13.9486 -17.3605,-20.9229 -1.1676,-6.6906 -19.8314,-11.3473 -24.4622,-16.134 -1.3315,-1.3764 3.6944,-1.1777 5.6082,-1.2463 2.8336,-0.1015 5.6702,-0.087 8.5053,-0.1297 40.2996,0.6324 80.4,-5.6285 120.0705,-12.1221 29.0305,-5.2856 58.2089,-10.6845 86.8367,-17.9215 6.8959,-1.7432 14.3818,-2.3792 20.4517,-6.087 1.5724,-0.9604 -0.6841,-6.2061 -2.1513,-5.0917 -22.2625,16.9095 -42.2744,36.5934 -63.4115,54.8901 -0.6784,21.0019 -0.3116,42.0637 -2.035,63.0057 -0.098,1.1892 -2.2442,2.0661 -3.2698,1.4564 -6.7095,-3.9888 -12.0486,-9.9582 -18.4775,-14.385 -18.153,-12.5002 -36.9564,-22.94 -57.2324,-31.6742 -11.1432,-4.8001 -22.7416,-8.466 -34.1123,-12.699 -35.0454,-10.6731 -70.9589,-19.0325 -107.6386,-21.2482 -16.9532,-1.024 -36.8664,-0.6914 -53.7708,2.9214 -5.2019,1.1118 -10.0549,3.4762 -15.0823,5.2143 -1.8844,1.9604 -5.5104,3.1657 -5.6531,5.8811 -0.1157,2.2021 3.334,5.4716 5.1242,4.184 17.6445,-12.6904 34.6549,-26.7018 48.9485,-43.0746 6.989,-8.0056 5.1155,-29.4215 3.1706,-39.4387 3.2978,2.7749 7.1231,8.5984 11.6633,9.3495 1.2912,0.2136 1.9421,-2.2084 3.2509,-2.2016 4.3966,0.023 8.6601,1.5244 12.9902,2.2866 4.403,-0.2172 8.8061,-0.4344 13.2091,-0.6515 5.2855,-1.3174 18.9983,-4.4748 23.9996,-6.7658 2.2749,-1.0422 6.2468,-1.975 6.0324,-4.4681 -0.2084,-2.4223 -4.6182,-4.2536 -6.6706,-2.9502 -18.9605,12.0404 -38.4617,24.3218 -53.3985,41.0958 -7.0077,7.8695 -6.6158,20.0095 -9.9237,30.0143 3.5415,47.4388 -2.8532,27.0934 17.715,66.5831 0.9396,1.804 3.2867,3.2893 3.0151,5.3051 -0.1768,1.3113 -2.5341,0.9783 -3.8567,0.9396 -4.2037,-0.1232 -8.3561,-0.9606 -12.5365,-1.4198 -7.2698,-0.7985 -14.5426,-1.5689 -21.8139,-2.3534 -34.5284,-3.359 -69.3676,-3.8448 -103.9539,-0.9057 -25.4209,2.1602 -47.9232,4.8968 -72.0562,13.3068 -8.8822,3.0954 -17.0468,7.9566 -25.5703,11.935 -2.9702,4.8903 -14.2021,16.8482 -8.9107,14.6711 25.4591,-10.4751 31.6509,-17.0077 37.9893,-36.5441 1.0041,-3.0949 -0.014,-7.1453 2.2276,-9.5035 1.3716,-1.4429 4.0818,0.1364 5.8949,0.9587 5.7514,2.6086 11.0336,6.1477 16.5504,9.2215 108.6933,44.0351 227.5393,32.5995 341.5795,24.3593 61.4236,-6.602 123.6747,-11.071 183.8188,-26.1986 2.3025,-0.5791 39.8465,-10.243 45.8499,-18.9411 1.3341,-1.9331 -3.6529,-2.9535 -5.4793,-4.4303 -47.1601,48.4452 -60.4498,39.0578 -54.9658,101.236 0.781,8.8544 7.0042,16.3783 9.583,24.8847 0.2097,0.6918 -0.9231,1.7429 -1.593,1.4714 -4.4909,-1.8202 -8.2789,-5.0609 -12.6127,-7.2288 -6.2936,-3.1481 -12.8228,-5.801 -19.2342,-8.7015 -94.8495,-35.9977 -197.6981,-34.9242 -297.6395,-35.0845 -45.166,0.7914 -74.1817,-1.9466 -116.833,9.2287 -10.6616,2.7934 -21.3315,6.676 -30.4716,12.8349 -4.567,3.0773 -13.8321,16.5742 -9.0696,13.809 46.2821,-26.8718 40.5484,-20.2512 50.1993,-52.2579 0.5024,-3.421 -1.6247,-8.7977 1.5072,-10.2631 3.0824,-1.4423 5.5135,4.0526 8.5706,5.5478 7.9433,3.8851 16.1911,7.1159 24.3401,10.5489 15.7606,6.6396 31.2758,13.9302 47.3866,19.6682 48.8528,17.3993 72.2802,21.3648 123.2011,33.3429 53.3667,10.3722 107.3445,19.2451 161.7487,21.7542 9.6147,0.4434 19.2499,-0.056 28.8748,-0.084 14.5481,2.1619 -16.0263,207.9026 -30.5743,205.7406 l 0,0 c -13.3295,-0.6256 -26.6839,-0.8491 -39.9884,-1.8769 -63.0674,-4.8717 -125.6337,-15.1926 -187.3857,-28.7309 -25.4385,-6.5666 -51.1604,-12.1196 -76.3155,-19.6998 -46.1323,-13.9015 -104.9854,-34.8547 -146.659,-60.0168 -43.2949,-26.141 -80.4128,-54.051 -102.7666,-100.5896 -10.1762,-21.1859 -13.1988,-45.1151 -19.7982,-67.6727 3.6652,-23.7027 -1.1587,-50.4315 10.9956,-71.1082 57.7083,-98.1735 155.8753,-120.1726 259.1628,-125.6305 23.8503,-1.2603 47.7649,-0.4548 71.6474,-0.6822 25.4701,0.4385 50.9573,0.2856 76.4103,1.3154 101.4443,4.1042 203.64,16.7229 296.808,59.4003 11.8667,6.3715 24.0843,12.1288 35.6002,19.1144 34.2423,20.7715 75.858,55.1021 85.5528,96.1508 5.3792,22.7762 9.9893,48.7657 0.6078,70.2058 -13.0955,29.9279 -42.5716,49.5615 -63.8574,74.3422 -11.5909,5.7133 -22.8282,12.2084 -34.7727,17.14 -23.9006,9.8679 -57.0733,18.1493 -81.7722,23.1687 -67.5769,13.7333 -136.4293,19.9056 -205.0281,25.7547 -64.9262,3.6749 -109.0347,7.7107 -174.2942,5.1488 -74.8884,-2.9398 -154.4793,-14.405 -223.9145,-44.1344 -21.3281,-9.1319 -40.9043,-21.9079 -61.3565,-32.8619 -39.7182,-35.0908 -65.9726,-49.9393 -86.0602,-102.1015 -15.8458,-41.1472 -21.1748,-102.058 4.6461,-141.8181 40.5529,-62.4448 71.6671,-71.7258 128.0405,-100.2938 16.4745,-4.7722 32.695,-10.5296 49.4234,-14.3168 77.7151,-17.5942 159.5681,-15.4472 238.1091,-5.6139 12.4918,2.3937 25.134,4.1046 37.4754,7.1811 52.0003,12.963 106.0017,40.465 126.0646,94.508 6.397,17.2315 4.7393,36.4543 7.109,54.6815 -4.9747,15.5996 -4.6798,34.0257 -14.924,46.7987 -18.5073,23.0757 -43.6645,40.2481 -68.1732,56.811 -9.2443,6.2472 -20.9328,7.8352 -31.7175,10.6947 -33.5551,8.8968 -68.4899,9.3069 -102.8133,6.0194 -32.5223,-6.7988 -48.4757,-7.9005 -78.2814,-22.6333 -35.0619,-17.331 -62.2374,-39.9975 -84.1937,-72.2589 -6.4858,-9.53 -11.4741,-19.9973 -17.2111,-29.9959 -11.346,-33.3715 -19.7912,-46.9403 -15.9388,-83.9242 1.6607,-15.9441 3.0537,-33.3653 12.2289,-46.5102 31.9527,-45.7774 55.1827,-65.9232 100.9043,-81.7826 11.1384,-3.8635 22.8422,-5.8474 34.2633,-8.7711 35.6487,-4.4993 41.9363,-6.6244 78.9768,-5.5593 66.3649,1.9083 131.5235,16.8527 193.9067,38.9727 16.5435,6.9847 33.448,13.1694 49.6303,20.9542 42.1415,20.2728 93.1748,51.9919 125.2008,86.5296 12.7487,13.7486 28.5747,26.6457 34.4825,44.4404 10.3358,31.1324 8.4476,65.0604 12.6714,97.5905 -25.7543,25.9333 -48.6808,55.0206 -77.2628,77.7997 -9.7284,7.7533 -23.4143,8.4612 -35.3542,11.9531 -9.2685,2.7107 -18.7726,4.5438 -28.2004,6.6341 -32.5839,7.2244 -65.4275,13.3524 -98.4493,18.1989 -48.9853,6.4228 -98.1883,12.2441 -147.7027,10.1658 -35.7463,-1.221 -64.4154,-6.1979 -94.1675,-28.6008 -8.2995,-8.9905 -18.07,-16.8184 -24.8984,-26.9714 -23.9441,-35.6022 -24.7336,-80.4362 -7.0173,-118.4367 3.0483,-6.5386 7.2553,-12.4715 10.883,-18.7073 18.2368,-17.7104 35.978,-35.9457 54.7104,-53.1311 4.527,-4.1532 9.889,-7.2963 14.9511,-10.7774 5.2233,-3.592 11.1032,-6.2897 15.8976,-10.4367 0.7782,-0.6732 -2.5629,-1.6473 -3.0025,-0.7169 -15.5836,32.9769 -47.3316,63.8625 -44.0016,100.1839 2.8611,31.2075 39.89,48.3443 59.835,72.5165 3.2365,0.9192 13.0289,2.2087 9.7095,2.7576 -5.9795,0.9888 -12.074,-1.145 -18.1307,-1.365 -12.3935,-0.4502 -24.7977,-0.6289 -37.1993,-0.6448 -33.8091,-0.043 -93.2174,1.1766 -124.944,1.8582 -26.2022,0.5629 -52.402,1.2372 -78.6029,1.8558 -122.1917,3.9087 -244.29261,9.6776 -366.34311,16.7388 -84.79459,8.2619 -27.40292,8.4026 -10.44278,-204.5489 0.25634,-3.2187 6.45764,0 9.68645,0 17.60862,0 35.21723,0 52.82584,0 14.59185,1.8433 -11.47746,208.2032 -26.06931,206.3598 z"
       clip-path="url(#clipPath4056)" />
  </g>
</svg>
