/* XPM */
static char *C[] = {
/* columns rows colors chars-per-pixel */
"15 15 56 1",
"  c #085729834AB1",
". c #09E82A2D4B74",
"X c #08C02A454BDC",
"o c #0B582B854CB3",
"O c #0AD52C984E78",
"+ c #0D1C2D954F15",
"@ c #0CB72F135188",
"# c #0F763153540F",
"$ c #109730D1510D",
"% c #1ABD3B325BB5",
"& c #1D363D8E5EF0",
"* c #19193D34618E",
"= c #1CD1417D6675",
"- c #247644E3656D",
"; c #23F9493D6FA2",
": c #35D755A17591",
"> c #3B815B3D7B11",
", c #3DD45BD47CC8",
"< c #3DC55CB77CB8",
"1 c #314258D080E7",
"2 c #33545A908377",
"3 c #34605BEA849E",
"4 c #3DE15F82807E",
"5 c #37CE5E6D87D3",
"6 c #39EF61E88ABD",
"7 c #3C5365348DB8",
"8 c #3CE5656E8EFB",
"9 c #3D6A665790AE",
"0 c #431462DD81BF",
"q c #42ED6CF097B0",
"w c #42ED6CF0986E",
"e c #486F73A09F93",
"r c #4FA476AC9F1F",
"t c #567676679597",
"y c #596A781797E1",
"u c #557376FE99D5",
"i c #509575A89DD0",
"p c #57547A1C9E46",
"a c #5BBB79BA98DA",
"s c #59A27A779C8D",
"d c #551E7B0FA291",
"f c #54777BA8A49A",
"g c #55A47CDAA5BD",
"h c #54387C6FA664",
"j c #52B77E4CAAE1",
"k c #528E7E60AB32",
"l c #52527D7DACAC",
"z c #54C87FDFAEF2",
"x c #58587F7FA852",
"c c #538580A2ADC3",
"v c #5353805AAE61",
"b c #57AF83C5B2D7",
"n c #565C843BB21B",
"m c #58588585B3B3",
"M c #58B585D9B4FB",
"N c #5A5A8787B5B5",
/* pixels */
"NNNNNNNNnNNNNNN",
"mNNNq*@.@*qNnNN",
"mmn;   ....;bbn",
"mb=.X . ....=bn",
"b8..t>XX+:a.X8m",
"b%..6f>X<g3.X%c",
"z@..o2f<h1X.X+m",
"e..XXX2x3.....e",
"j+..X>i9h>...oh",
"z% .:f8O3d>..%c",
"z4 @i1X.@3iX.6v",
"zd&.$XX.X.@.&hv",
"llu-X.....X-ull",
"jllp0%X..%0sjll",
"jjljhuaayshjljj"
};
