/* XPM */
static char *C[] = {
/* columns rows colors chars-per-pixel */
"15 15 37 1",
"  c #087B2A374C15",
". c #08CD2A944C79",
"X c #09342B0B4D03",
"o c #0A062BF84E10",
"O c #0B7A2D9A4FE8",
"+ c #0C332E805102",
"@ c #0F7A3241553B",
"# c #171D3AF85F53",
"$ c #18DA3D056186",
"% c #19F83E4F62EB",
"& c #1BA9406D6532",
"* c #1C4640C865E7",
"= c #1D7B41A46703",
"- c #21CD47226D3A",
"; c #236F48AD6F0A",
": c #325B5A868348",
"> c #33365B558409",
", c #34B45C49850A",
"< c #37AD5FD289E1",
"1 c #375560428982",
"2 c #399B61EC8C33",
"3 c #3AE7635A8D76",
"4 c #3C5D65528FA7",
"5 c #3CB565A190AE",
"6 c #42306C3397B0",
"7 c #42306CF097B0",
"8 c #489473049F26",
"9 c #4DD5784FA5E1",
"0 c #4CEA793AA6CC",
"q c #507A7C64A948",
"w c #51517D7DABAB",
"e c #54B27FC9AEDB",
"r c #54B781DAAFFF",
"t c #55BB81EDB122",
"y c #587685A0B3CB",
"u c #588885B7B4E9",
"i c #5A5A8787B5B5",
/* pixels */
"iiiiiiiiiiiuiii",
"yiiiitiiyyuiiui",
"yyiy6$oX@#7yuyy",
"yyt;XXXXXoo;ryt",
"yt=XXXXXooXX&yy",
"t5XXe3OXX:toX4t",
"t$XX1e3O3e:XX$r",
"t@XXO:e3e,X  @r",
"8XX XX:r<XXX X8",
"e+XXO105r<OXX@r",
"r$XX:05o:9<XX$e",
"e2X@0:OXX<9XX<w",
"ww&X@XXXXX@X%re",
"qeq-X XXXX -0qe",
"qeqq5$oXO$5ewww"
};
