/* XPM */
static char *C[] = {
/* columns rows colors chars-per-pixel */
"15 15 55 1",
"  c #52527D7DABAB",
". c #52317F80AD8F",
"X c #52EE8081AC93",
"o c #56688285AEA2",
"O c #57E48489AEB3",
"+ c #57AB837EB24E",
"@ c #56EA847DB18E",
"# c #58588383B2B2",
"$ c #58588484B3B3",
"% c #58588585B3B3",
"& c #59598686B5B5",
"* c #5A5A8787B5B5",
"= c #5F6A87A3B5B2",
"- c #5D3F87C3B655",
"; c #5BA78879B64A",
": c #5E3488B8B74A",
"> c #6055888EB69D",
", c #60558979B69D",
"< c #6E379631BD21",
"1 c #701A9631BD21",
"2 c #7E1BA085BFFA",
"3 c #809EA1B0C699",
"4 c #834AA671C761",
"5 c #88EAA980C6E4",
"6 c #8522A671C87C",
"7 c #897AA6D3CB61",
"8 c #8ADAA980C8D4",
"9 c #8E41AC39CC3C",
"0 c #8A5AA8D2CD12",
"q c #8C40AA6BCD9D",
"w c #9257AE67D07B",
"e c #9533B086D162",
"r c #9545B0C0D36A",
"t c #993CB455D385",
"y c #BE50CEBCE0AF",
"u c #BFABCFC0E154",
"i c #C09BD168E35B",
"p c #C1E9D25EE3F2",
"a c #CB2ED8FFE6D1",
"s c #CC29D932E723",
"d c #CD5FDB03E8F5",
"f c #D305DECDEB1D",
"g c #D517DFE1EB29",
"h c #D6D3E1FCED65",
"j c #E716ED5AF40D",
"k c #E6F1ED7FF420",
"l c #ED50F231F74A",
"z c #EE3EF391F830",
"x c #EFBFF4ADF8E0",
"c c #F3CBF6F2FA2B",
"v c #F429F763FAAE",
"b c #F542F80AFAF3",
"n c #F57DF848FB38",
"m c #F503F89DFA63",
"M c #F6A9F91BFBA4",
/* pixels */
"***************",
"%***6gzbzh4****",
"%%;ivbMbbbbi**%",
"%*dbbMbbMbbba++",
"%9bb:0xbxr%bb5@",
"@fbMq-0x5;rbMh@",
"#zbbzr-6;rxMbzO",
"<bMMMvt+0vMMMv<",
"ozvbz8>3#5zbMzO",
"ofbbe>3zw>7bMsX",
".8bj>wlbx7:bM8X",
".oavjbbbbbjbsXX",
"..oyvbvvbbMpOoX",
" . .3fzvzf1    ",
"               "
};
