/* XPM */
static char *C[] = {
/* columns rows colors chars-per-pixel */
"15 15 44 1",
"  c #556F7E93AAB8",
". c #556E7F94ABBB",
"X c #56758099AABE",
"o c #5665808CABB3",
"O c #58588181ABAB",
"+ c #58588181ACAC",
"@ c #5B5B8484ADAD",
"# c #5EB786D1AFEA",
"$ c #612F88F4B172",
"% c #644C8A2FB1FD",
"& c #66C18BE9B2BE",
"* c #675E8D63B2E4",
"= c #69698D8DB3B3",
"- c #69698E8EB3B3",
"; c #68248D9BB44C",
": c #6A6A8F8FB4B4",
"> c #6C6C8F8FB5B5",
", c #6A709056B6E9",
"< c #6BB291E7B7E9",
"1 c #6C6C9090B4B4",
"2 c #6E3E9379B886",
"3 c #708793E1B7EE",
"4 c #70B2941BB80D",
"5 c #73A795F5B9BC",
"6 c #753297CDBABB",
"7 c #73469726BC47",
"8 c #76F89913BB2E",
"9 c #774F9A63BD35",
"0 c #7B399BC6BDE6",
"q c #7A669D51BEC8",
"w c #7CA29EBCC054",
"e c #7EC7A027C115",
"r c #83E4A362C308",
"t c #863BA5B2C46B",
"y c #86CFA64BC4AC",
"u c #89CDA921C76E",
"i c #8BB1A9EDC79A",
"p c #8C72AAFDC8A6",
"a c #8FEBADDDCA83",
"s c #9204AF8CCB99",
"d c #930BB056CC17",
"f c #9384B0A1CC53",
"g c #9588B224CD74",
"h c #9697B2D8CDDF",
/* pixels */
"11>1>88888,111>",
":::60ifgfpq6,--",
"--5rgggggggt6--",
"*4tgggggggggt3%",
"*9gf-9sgs7-gg0$",
",tgf6:5s9:2ggt,",
":affa5%5-1adda*",
"%sfffa5#,addss*",
"#psss2$,$<aasi#",
"#wss2%2p2$<sae#",
"@:as@,iaa<$as1@",
"++0aaaaaasaaqo@",
"++O8aaaaaaa7@oo",
"oooo$qisiw$oooo",
"   ooo o ... o "
};
