/* XPM */
static char * maximize_active_xpm[] = {
"14 15 39 1",
" 	c None",
".	c #5A87B5",
"+	c #5986B5",
"@	c #5986B4",
"#	c #5885B3",
"$	c #5985B3",
"%	c #5886B4",
"&	c #5985B4",
"*	c #5885B4",
"=	c #5884B3",
"-	c #5884B2",
";	c #5883B2",
">	c #5784B3",
",	c #F1F1F1",
"'	c #5783B2",
")	c #5783B1",
"!	c #5682B1",
"~	c #5683B1",
"{	c #5682B0",
"]	c #5582B0",
"^	c #5581AF",
"/	c #5581B0",
"(	c #5580AF",
"_	c #5481AE",
":	c #5480AF",
"<	c #5581AE",
"[	c #5380AE",
"}	c #547FAE",
"|	c #537FAD",
"1	c #5380AD",
"2	c #547FAD",
"3	c #537EAD",
"4	c #527FAD",
"5	c #527FAC",
"6	c #527DAB",
"7	c #527DAC",
"8	c #527EAB",
"9	c #527EAC",
"0	c #517DAB",
"...++...++.++.",
"@@++@@@++@++@@",
"#$%&*#$%&*%&*#",
"#=#==#=#==#==#",
"-=;>=-,,>=;>=-",
"'))))',,)))))'",
"!~{~!!,,~!{~!!",
"]]{,,,,,,,,]{]",
"^^^,,,,,,,,/^^",
"(_:<:(,,<:(<:(",
"[[[[}[,,[}[[}[",
"|12|1|,,|12|1|",
"3453|33|3|53|3",
"67898678988986",
"00600006006000"};
