/* XPM */
static char * close_active_xpm[] = {
"15 15 38 1",
" 	c None",
".	c #5A87B5",
"+	c #5986B5",
"@	c #5986B4",
"#	c #5885B3",
"$	c #5985B3",
"%	c #5886B4",
"&	c #5985B4",
"*	c #5885B4",
"=	c #5884B3",
"-	c #5884B2",
";	c #5883B2",
">	c #5784B3",
",	c #5783B2",
"'	c #5783B1",
")	c #5682B1",
"!	c #5683B1",
"~	c #5682B0",
"{	c #5582B0",
"]	c #5581AF",
"^	c #5581B0",
"/	c #5580AF",
"(	c #5481AE",
"_	c #5480AF",
":	c #5581AE",
"<	c #5380AE",
"[	c #547FAE",
"}	c #537FAD",
"|	c #5380AD",
"1	c #547FAD",
"2	c #537EAD",
"3	c #527FAD",
"4	c #527FAC",
"5	c #527DAB",
"6	c #527DAC",
"7	c #527EAB",
"8	c #527EAC",
"9	c #517DAB",
"...++...++.++..",
"@@++@@@++@++@@@",
"#$%&*#$%&*%&*#$",
"#=#==#=#==#==#=",
"-=;>=-=;>=;>=-=",
",'''',''''''','",
")!~!))!~!)~!))!",
"{{~{~{{~{~~{~{{",
"]]]^]]]]^]]^]]]",
"/(_:_/(_:__:_/(",
"<<<<[<<<<[<<[<<",
"}|1}|}|1}|1}|}|",
"2342}2342}42}23",
"567875678778756",
"995999959959999"};
