/* XPM */
static char * hide_prelight_xpm[] = {
"14 15 41 1",
" 	c None",
".	c #5A87B5",
"+	c #5986B5",
"@	c #5986B4",
"#	c #5885B3",
"$	c #5985B3",
"%	c #5886B4",
"&	c #5985B4",
"*	c #5885B4",
"=	c #5884B3",
"-	c #5884B2",
";	c #5883B2",
">	c #5784B3",
",	c #5783B2",
"'	c #5783B1",
")	c #5682B1",
"!	c #5683B1",
"~	c #5682B0",
"{	c #5582B0",
"]	c #06355B",
"^	c #5581AF",
"/	c #5581B0",
"(	c #5580AF",
"_	c #5481AE",
":	c #5480AF",
"<	c #6D90B2",
"[	c #6D90B3",
"}	c #5581AE",
"|	c #5380AE",
"1	c #547FAE",
"2	c #537FAD",
"3	c #5380AD",
"4	c #547FAD",
"5	c #537EAD",
"6	c #527FAD",
"7	c #527FAC",
"8	c #527DAB",
"9	c #527DAC",
"0	c #527EAB",
"a	c #527EAC",
"b	c #517DAB",
"...++...++.++.",
"@@++@@@++@++@@",
"#$%&*#$%&*%&*#",
"#=#==#=#==#==#",
"-=;>=-=;>=;>=-",
",'''',''''''',",
")!~!))!~!)~!))",
"{{~]]]]]]]]{~{",
"^^^]]]]]]]]/^^",
"(_:<[[[[[[<}:(",
"||||1||||1||1|",
"23423234234232",
"56752567527525",
"890a0890a00a08",
"bb8bbbb8bb8bbb"};
