/* XPM */
static char * shade_toggled_inactive_xpm[] = {
"15 15 46 1",
" 	c None",
".	c #6C90B4",
"+	c #6C90B5",
"@	c #6C8FB5",
"#	c #6A8FB4",
"$	c #6A8EB4",
"%	c #6B8FB4",
"&	c #6B8EB4",
"*	c #698EB3",
"=	c #698DB3",
"-	c #678DB2",
";	c #678CB2",
">	c #658BB1",
",	c #668BB1",
"'	c #658BB2",
")	c #648AB1",
"!	c #648AB0",
"~	c #638AB1",
"{	c #6288B0",
"]	c #6289B0",
"^	c #93ADC9",
"/	c #6187AF",
"(	c #6087B0",
"_	c #6087AF",
":	c #6088AF",
"<	c #5F86AF",
"[	c #5E86AF",
"}	c #5F87AF",
"|	c #5D85AE",
"1	c #5D84AE",
"2	c #5D85AD",
"3	c #5C84AD",
"4	c #5B83AD",
"5	c #5B84AD",
"6	c #5A82AC",
"7	c #5983AC",
"8	c #5A83AD",
"9	c #5A83AC",
"0	c #5881AB",
"a	c #5881AC",
"b	c #5882AB",
"c	c #5680AB",
"d	c #5680AA",
"e	c #557EAA",
"f	c #557FAB",
"g	c #557FAA",
"..++@..++@..+.+",
"##$%&##$%&##$#$",
"*====*====*====",
"-;;-;-;;-;-;;;;",
">,'>>>,'>>>,','",
")!~!))!~!))!~!~",
"{{]^^^{]]^^^]{]",
"/(_:^^^_^^^(_(_",
"<[[[}^^^^^<[[[[",
"||1|2|^^^2||1|1",
"3345533^5533434",
"667896678966767",
"0abb00abb00abab",
"cdccccdccccdcdc",
"efgggefgggefgfg"};
