/* XPM */
static char * title_5_active_xpm[] = {
"5 24 59 1",
" 	c None",
".	c #385B80",
"+	c #5F9BD9",
"@	c #5C89B7",
"#	c #5C89B8",
"$	c #5C88B7",
"%	c #5B88B7",
"&	c #5B88B6",
"*	c #5A87B6",
"=	c #5B87B6",
"-	c #5A87B5",
";	c #5986B5",
">	c #5986B4",
",	c #5886B4",
"'	c #5985B4",
")	c #5885B4",
"!	c #5885B3",
"~	c #5985B3",
"{	c #5884B3",
"]	c #5883B2",
"^	c #5784B3",
"/	c #5884B2",
"(	c #5783B1",
"_	c #5783B2",
":	c #5682B0",
"<	c #5683B1",
"[	c #5682B1",
"}	c #5582B0",
"|	c #5581AF",
"1	c #5581B0",
"2	c #5480AF",
"3	c #5581AE",
"4	c #5580AF",
"5	c #5481AE",
"6	c #5380AE",
"7	c #547FAE",
"8	c #547FAD",
"9	c #537FAD",
"0	c #5380AD",
"a	c #527FAC",
"b	c #537EAD",
"c	c #527FAD",
"d	c #527EAB",
"e	c #527EAC",
"f	c #527DAB",
"g	c #527DAC",
"h	c #517DAB",
"i	c #517CAA",
"j	c #517DAA",
"k	c #507CA9",
"l	c #507CAA",
"m	c #507BAA",
"n	c #507BA8",
"o	c #507BA9",
"p	c #4F7CA9",
"q	c #4F7AA8",
"r	c #4F7BA8",
"s	c #4E7BA8",
"t	c #4E7AA8",
".....",
"+++++",
"@@@#$",
"%&&&&",
"**=&*",
"-;;--",
";;>>>",
",')!~",
"!{{!{",
"]^{/{",
"(((_(",
":<[[<",
":}:}}",
"|1|||",
"23245",
"66766",
"89090",
"ab9bc",
"dedfg",
"fhhhh",
"iiijj",
"kllmk",
"nnonp",
"qrqst"};
