/* XPM */
static char * title_3_inactive_xpm[] = {
"5 24 67 1",
" 	c None",
".	c #67829E",
"+	c #7294B7",
"@	c #7194B7",
"#	c #7193B7",
"$	c #7094B6",
"%	c #6F92B6",
"&	c #7092B6",
"*	c #7093B6",
"=	c #6F93B6",
"-	c #6E91B6",
";	c #6E91B5",
">	c #6C90B4",
",	c #6C90B5",
"'	c #6C8FB5",
")	c #6A8FB4",
"!	c #6A8EB4",
"~	c #6B8FB4",
"{	c #6B8EB4",
"]	c #698DB3",
"^	c #698EB3",
"/	c #678CB2",
"(	c #678DB2",
"_	c #668BB1",
":	c #658BB2",
"<	c #658BB1",
"[	c #648AB0",
"}	c #638AB1",
"|	c #648AB1",
"1	c #6288B0",
"2	c #6289B0",
"3	c #6087B0",
"4	c #6087AF",
"5	c #6088AF",
"6	c #6187AF",
"7	c #5E86AF",
"8	c #5F87AF",
"9	c #5F86AF",
"0	c #5D85AE",
"a	c #5D84AE",
"b	c #5D85AD",
"c	c #5C84AD",
"d	c #5B83AD",
"e	c #5B84AD",
"f	c #5A82AC",
"g	c #5983AC",
"h	c #5A83AD",
"i	c #5A83AC",
"j	c #5881AC",
"k	c #5882AB",
"l	c #5881AB",
"m	c #5680AA",
"n	c #5680AB",
"o	c #557FAB",
"p	c #557FAA",
"q	c #557EAA",
"r	c #537EA9",
"s	c #537DA9",
"t	c #537EAA",
"u	c #517CA9",
"v	c #517DA9",
"w	c #517CA8",
"x	c #4F7BA7",
"y	c #507BA8",
"z	c #4F7BA8",
"A	c #507BA7",
"B	c #4E7AA7",
".....",
"+@#+#",
"#$##@",
"%&%*=",
"-;;;;",
">,,'>",
")!~{)",
"]]]]^",
"//(/(",
"_:<<<",
"[}[||",
"12221",
"34556",
"77789",
"0a0b0",
"cdeec",
"fghif",
"jkkll",
"mnnnn",
"opppq",
"rstsr",
"uuvwv",
"xyyzA",
"BBBBB"};
