/* XPM */
static char * top_right_inactive_xpm[] = {
"3 24 63 1",
" 	c None",
".	c #67829E",
"+	c #7294B7",
"@	c #7193B7",
"#	c #7094B6",
"$	c #6F92B6",
"%	c #7092B6",
"&	c #65809C",
"*	c #6E91B6",
"=	c #6E91B5",
"-	c #637E9B",
";	c #6C90B4",
">	c #6C90B5",
",	c #617C9A",
"'	c #6A8FB4",
")	c #6A8EB4",
"!	c #5E7B99",
"~	c #698DB3",
"{	c #5D7997",
"]	c #678CB2",
"^	c #5A7796",
"/	c #668BB1",
"(	c #658BB2",
"_	c #587695",
":	c #648AB0",
"<	c #638AB1",
"[	c #567494",
"}	c #6288B0",
"|	c #6289B0",
"1	c #537292",
"2	c #6087B0",
"3	c #6087AF",
"4	c #527090",
"5	c #5E86AF",
"6	c #506F8F",
"7	c #5D85AE",
"8	c #5D84AE",
"9	c #4D6C8E",
"0	c #5C84AD",
"a	c #5B83AD",
"b	c #4B6B8C",
"c	c #5A82AC",
"d	c #5983AC",
"e	c #49698B",
"f	c #5881AC",
"g	c #5882AB",
"h	c #46678A",
"i	c #5680AA",
"j	c #5680AB",
"k	c #456688",
"l	c #557FAB",
"m	c #557FAA",
"n	c #426486",
"o	c #537EA9",
"p	c #537DA9",
"q	c #406285",
"r	c #517CA9",
"s	c #3F6084",
"t	c #4F7BA7",
"u	c #507BA8",
"v	c #3C5E82",
"w	c #4E7AA7",
"x	c #395C81",
".. ",
"+..",
"@#.",
"$%&",
"*=-",
";>,",
"')!",
"~~{",
"]]^",
"/(_",
":<[",
"}|1",
"234",
"556",
"789",
"0ab",
"cde",
"fgh",
"ijk",
"lmn",
"opq",
"rrs",
"tuv",
"wwx"};
