/* XPM */
static char * close_inactive_xpm[] = {
"15 15 45 1",
" 	c None",
".	c #6C90B4",
"+	c #6C90B5",
"@	c #6C8FB5",
"#	c #6A8FB4",
"$	c #6A8EB4",
"%	c #6B8FB4",
"&	c #6B8EB4",
"*	c #698EB3",
"=	c #698DB3",
"-	c #678DB2",
";	c #678CB2",
">	c #658BB1",
",	c #668BB1",
"'	c #658BB2",
")	c #648AB1",
"!	c #648AB0",
"~	c #638AB1",
"{	c #6288B0",
"]	c #6289B0",
"^	c #6187AF",
"/	c #6087B0",
"(	c #6087AF",
"_	c #6088AF",
":	c #5F86AF",
"<	c #5E86AF",
"[	c #5F87AF",
"}	c #5D85AE",
"|	c #5D84AE",
"1	c #5D85AD",
"2	c #5C84AD",
"3	c #5B83AD",
"4	c #5B84AD",
"5	c #5A82AC",
"6	c #5983AC",
"7	c #5A83AD",
"8	c #5A83AC",
"9	c #5881AB",
"0	c #5881AC",
"a	c #5882AB",
"b	c #5680AB",
"c	c #5680AA",
"d	c #557EAA",
"e	c #557FAB",
"f	c #557FAA",
"..++@..++@..+.+",
"##$%&##$%&##$#$",
"*====*====*====",
"-;;-;-;;-;-;;;;",
">,'>>>,'>>>,','",
")!~!))!~!))!~!~",
"{{]]]{{]]]{{]{]",
"^/(__^/(__^/(/(",
":<<<[:<<<[:<<<<",
"}}|}1}}|}1}}|}|",
"223442234422323",
"556785567855656",
"90aa990aa990a0a",
"bcbbbbcbbbbcbcb",
"defffdefffdefef"};
