/* XPM */
static char * stick_toggled_pressed_xpm[] = {
"14 15 40 1",
" 	c None",
".	c #5A87B5",
"+	c #5986B5",
"@	c #5986B4",
"#	c #5885B3",
"$	c #5985B3",
"%	c #5886B4",
"&	c #5985B4",
"*	c #5885B4",
"=	c #5884B3",
"-	c #5884B2",
";	c #5883B2",
">	c #5784B3",
",	c #06355B",
"'	c #5783B2",
")	c #5783B1",
"!	c #5682B1",
"~	c #5683B1",
"{	c #5682B0",
"]	c #5582B0",
"^	c #6D8FB3",
"/	c #5581AF",
"(	c #5581B0",
"_	c #5580AF",
":	c #5481AE",
"<	c #5480AF",
"[	c #5581AE",
"}	c #5380AE",
"|	c #547FAE",
"1	c #537FAD",
"2	c #5380AD",
"3	c #547FAD",
"4	c #537EAD",
"5	c #527FAD",
"6	c #527FAC",
"7	c #527DAB",
"8	c #527DAC",
"9	c #527EAB",
"0	c #527EAC",
"a	c #517DAB",
"...++...++.++.",
"@@++@@@++@++@@",
"#$%&*#$%&*%&*#",
"#=#==#=#==#==#",
"-=;>=-=;>,;>=-",
"')))),,)),,))'",
"!~{~,,,{,,,,!!",
"]]{,,^^{,,^^{]",
"///,,//,^^/(//",
"_:<,,_:^[,,[<_",
"}}},,}}}},,}|}",
"123^,,,,,,^121",
"4564^,,,,^6414",
"78909^^^^99097",
"aa7aaaa7aa7aaa"};
