/* XPM */
static char * top_left_inactive_xpm[] = {
"3 24 63 1",
" 	c None",
".	c #67829E",
"+	c #7294B7",
"@	c #7094B6",
"#	c #7193B7",
"$	c #65809C",
"%	c #7092B6",
"&	c #6F92B6",
"*	c #637E9B",
"=	c #6E91B5",
"-	c #6E91B6",
";	c #617C9A",
">	c #6C90B5",
",	c #6C90B4",
"'	c #5E7B99",
")	c #6A8EB4",
"!	c #6A8FB4",
"~	c #5D7997",
"{	c #698DB3",
"]	c #5A7796",
"^	c #678CB2",
"/	c #587695",
"(	c #658BB2",
"_	c #668BB1",
":	c #567494",
"<	c #638AB1",
"[	c #648AB0",
"}	c #537292",
"|	c #6289B0",
"1	c #6288B0",
"2	c #527090",
"3	c #6087AF",
"4	c #6087B0",
"5	c #506F8F",
"6	c #5E86AF",
"7	c #4D6C8E",
"8	c #5D84AE",
"9	c #5D85AE",
"0	c #4B6B8C",
"a	c #5B83AD",
"b	c #5C84AD",
"c	c #49698B",
"d	c #5983AC",
"e	c #5A82AC",
"f	c #46678A",
"g	c #5882AB",
"h	c #5881AC",
"i	c #456688",
"j	c #5680AB",
"k	c #5680AA",
"l	c #426486",
"m	c #557FAA",
"n	c #557FAB",
"o	c #406285",
"p	c #537DA9",
"q	c #537EA9",
"r	c #3F6084",
"s	c #517CA9",
"t	c #3C5E82",
"u	c #507BA8",
"v	c #4F7BA7",
"w	c #395C81",
"x	c #4E7AA7",
" ..",
"..+",
".@#",
"$%&",
"*=-",
";>,",
"')!",
"~{{",
"]^^",
"/(_",
":<[",
"}|1",
"234",
"566",
"789",
"0ab",
"cde",
"fgh",
"ijk",
"lmn",
"opq",
"rss",
"tuv",
"wxx"};
