/* XPM */
static char * top_right_active_xpm[] = {
"3 24 23 1",
" 	c None",
".	c #385B80",
"+	c #5F9BD9",
"@	c #5B88B7",
"#	c #5A87B6",
"$	c #5A87B5",
"%	c #5986B5",
"&	c #5886B4",
"*	c #5885B3",
"=	c #5883B2",
"-	c #5783B1",
";	c #5682B0",
">	c #5581AF",
",	c #5480AF",
"'	c #5380AE",
")	c #547FAD",
"!	c #527FAC",
"~	c #527EAB",
"{	c #527DAB",
"]	c #517CAA",
"^	c #507CA9",
"/	c #507BA8",
"(	c #4F7AA8",
".. ",
"+..",
"++.",
"@+.",
"#+.",
"$+.",
"%+.",
"&+.",
"*+.",
"=+.",
"-+.",
";+.",
";+.",
">+.",
",+.",
"'+.",
")+.",
"!+.",
"~+.",
"{+.",
"]+.",
"^+.",
"/+.",
"(+."};
