/* XPM */
static char * shade_pressed_xpm[] = {
"20 24 22 1",
" 	c None",
".	c #8D8D8D",
"+	c #FFFFFF",
"@	c #DEDEDE s active_color_2",
"#	c #71A4CB",
"$	c #78A9CD",
"%	c #70A1C6",
"&	c #669BC3",
"*	c #7CA8CA",
"=	c #7BA5C7",
"-	c #5C92BC",
";	c #B3CDE3",
">	c #D0E0EB",
",	c #85ADCC",
"'	c #84A8C3",
")	c #528AB5",
"!	c #CEDEEA",
"~	c #E0E8EE",
"{	c #89AAC5",
"]	c #EBECED",
"^	c #E1E8ED",
"/	c #E8EBEE",
"....................",
"++++++++++++++++++++",
"@@@@@@@@@@@@@@@@@@@@",
"@@@@@@@@@@@@@@@@@@@@",
"@@@@@@@@@@@@@@@@@@@@",
"@@@@@@@@@@@@@@@@@@@@",
"@@@@@@@@@@@@@@@@@@@@",
"@@@@@@@@@@@@@@@@@@@@",
"@@@@@@@@@@@@@@@@@@@@",
"@@@@@@@@@@@@@@@@@@@@",
"@@@@@@@@@#$@@@@@@@@@",
"@@@@@@@@%&&*@@@@@@@@",
"@@@@@@@=-;>-,@@@@@@@",
"@@@@@@')!@@~){@@@@@@",
"@@@@@@]^@@@@/]@@@@@@",
"@@@@@@@@@@@@@@@@@@@@",
"@@@@@@@@@@@@@@@@@@@@",
"@@@@@@@@@@@@@@@@@@@@",
"@@@@@@@@@@@@@@@@@@@@",
"@@@@@@@@@@@@@@@@@@@@",
"@@@@@@@@@@@@@@@@@@@@",
"@@@@@@@@@@@@@@@@@@@@",
"@@@@@@@@@@@@@@@@@@@@",
"@@@@@@@@@@@@@@@@@@@@"};
